/* XPM */
static char *cr16[]={
"16 16 6 1",
". c #232341",
"a c #ff0000",
"d c #ff0e02",
"c c #ff0f02",
"b c #ff1002",
"# c #ffff00",
"................",
".##############.",
"................",
".aaaaaaa.aaaaaa.",
".a####aa.a###aa.",
".aaaaaaa.aaaaaa.",
".a####aa.a###aa.",
".aaaaaaa.aaaaaa.",
".a####aa.a###aa.",
".abbcaaa.abbdaa.",
".a####aa.a###aa.",
".aaaaaaa.aaaaaa.",
".aaaaaaa.aaaaaa.",
"................",
".##..##########.",
"................"};
