/* XPM */
static char *cr16[]={
"16 16 3 1",
". c #232341",
"a c #9696ff",
"# c #d2d2ff",
"................",
".##############.",
"................",
".aaaaaaa.aaaaaa.",
".a....aa.a...aa.",
".aaaaaaa.aaaaaa.",
".a....aa.a...aa.",
".aaaaaaa.aaaaaa.",
".a....aa.a...aa.",
".aaaaaaa.aaaaaa.",
".a....aa.a...aa.",
".aaaaaaa.aaaaaa.",
".aaaaaaa.aaaaaa.",
"................",
".##..##########.",
"................"};
