/* XPM */
static char *cr32[]={
"32 32 68 2",
"Qt c None",
".# c #232341",
".b c #232341",
".a c #232341",
".q c #262543",
".E c #2a2946",
".1 c #302f4b",
".8 c #30304c",
".w c #33324e",
".7 c #373752",
".L c #393853",
".C c #484861",
".P c #4e4e66",
".t c #5b5b71",
".y c #7e7e8f",
"#. c #9494a2",
".X c #d0d0d7",
".j c #d7afb4",
".5 c #f10204",
".6 c #f2181a",
".9 c #f88c8d",
"## c #f8f802",
"#a c #f8f80f",
"#b c #f8f818",
".d c #ff0000",
".N c #ff0101",
".R c #ff0200",
".I c #ff0202",
".v c #ff0303",
".g c #ff0401",
".U c #ff0606",
".W c #ff0707",
".k c #ff0d02",
".B c #ff0e02",
".O c #ff1010",
".K c #ff1303",
".p c #ff1703",
".S c #ff1803",
".l c #ff2004",
".x c #ff2020",
".A c #ff2105",
".0 c #ff2222",
".i c #ff2705",
".h c #ff2805",
".J c #ff2c06",
".2 c #ff2d2d",
".m c #ff3407",
".G c #ff3535",
".r c #ff3c3c",
".T c #ff3d3d",
".f c #ff5c5c",
".V c #ff5f5f",
".Q c #ff6161",
".s c #ff620d",
".Z c #ff7373",
".H c #ff7878",
".4 c #ff7e7e",
".u c #ff8080",
".3 c #ff9393",
".z c #ffa662",
".Y c #ffabab",
".M c #ffb2b2",
".D c #ffdba8",
".F c #ffdbdb",
".o c #ffef21",
".n c #fff021",
".c c #ffff00",
".e c #ffffff",
"QtQt.#.a.a.a.a.a.a.a.a.a.a.a.a.a.a.a.a.a.a.a.a.a.a.a.a.a.a.#QtQt",
"Qt.b.a.a.c.c.c.c.c.c.c.c.c.c.c.c.c.c.c.c.c.c.c.c.c.c.c.c.a.a.bQt",
".#.a.a.c.c.c.c.c.c.c.c.c.c.c.c.c.c.c.c.c.c.c.c.c.c.c.c.c.c.a.a.#",
".a.a.c.c.c.d.d.d.d.d.d.d.d.d.d.d.d.d.d.d.d.d.d.d.d.c.c.c.c.c.a.a",
".a.c.c.c.c.c.c.c.c.c.c.c.c.c.c.c.c.c.c.c.c.c.c.c.c.c.c.c.c.c.c.a",
".a.a.a.a.a.a.a.a.a.a.a.a.a.a.a.a.a.a.a.a.a.a.a.a.a.a.a.a.a.a.a.a",
".a.d.d.d.d.d.d.d.d.d.d.d.d.d.d.a.a.d.d.d.d.d.d.d.d.d.d.d.d.d.d.a",
".a.d.d.d.d.d.d.d.d.d.d.d.e.e.f.a.a.d.d.d.d.d.d.d.d.d.d.d.d.d.d.a",
".a.d.g.h.h.h.h.h.h.i.d.d.e.a.e.j.a.d.k.h.h.h.h.h.h.l.d.d.d.d.d.a",
".a.d.m.n.n.n.n.n.n.o.p.d.e.a.q.e.e.r.s.n.n.n.n.n.n.n.d.d.d.d.d.a",
".a.d.d.d.d.d.d.d.d.d.d.d.e.a.a.a.t.e.u.v.d.d.d.d.d.d.d.d.d.d.d.a",
".a.d.d.d.d.d.d.d.d.d.d.d.e.a.a.a.a.w.e.e.x.d.d.d.d.d.d.d.d.d.d.a",
".a.d.d.d.d.d.d.d.d.d.d.d.e.a.a.a.a.a.a.y.e.z.d.d.d.d.d.d.d.d.d.a",
".a.d.A.n.n.n.n.n.n.n.B.d.e.a.a.a.a.a.a.a.C.e.D.n.n.n.d.d.d.d.d.a",
".a.d.d.d.d.d.d.d.d.d.d.d.e.a.a.a.a.a.a.a.a.E.e.F.G.d.d.d.d.d.d.a",
".a.d.d.d.d.d.d.d.d.d.d.d.e.a.a.a.a.a.a.a.a.a.a.e.e.H.I.d.d.d.d.a",
".a.d.J.d.d.d.d.d.d.d.K.d.e.a.a.a.a.a.a.a.a.a.a.a.L.e.M.N.d.d.d.a",
".a.d.k.n.n.n.n.n.n.n.g.d.e.a.a.a.a.a.a.a.a.a.a.a.a.a.e.O.d.d.d.a",
".a.d.d.d.d.d.d.d.d.d.d.d.e.a.a.a.a.a.a.a.a.P.e.e.e.e.Q.d.d.d.d.a",
".a.d.R.S.S.S.S.S.S.p.d.d.e.a.a.a.a.a.a.a.a.a.e.T.U.d.d.d.d.d.d.a",
".a.d.d.d.d.d.d.d.d.d.p.d.e.a.a.a.a.a.a.a.a.a.e.V.d.d.d.d.d.d.d.a",
".a.d.d.n.n.n.n.n.n.n.d.d.e.a.a.a.a.e.a.a.a.a.a.e.W.d.d.d.d.d.d.a",
".a.d.d.d.d.d.d.d.d.d.d.d.e.a.a.X.e.Y.e.a.a.a.a.e.Z.d.d.d.d.d.d.a",
".a.d.d.d.d.d.d.d.d.d.d.d.e.a.e.e.a.0.e.1.a.a.a.a.e.O.d.d.d.d.d.a",
".a.d.d.d.d.d.d.d.d.d.d.d.e.e.2.a.a.d.3.e.a.a.a.a.e.4.d.d.d.d.d.a",
".a.d.d.d.d.d.d.d.d.d.d.d.d.d.d.a.a.5.6.e.7.a.a.8.e.9.5.d.d.d.d.a",
".a.a.a.a.a.a.a.a.a.a.a.a.a.a.a.a.a.a.a#..e.e.e.e.e.a.a.a.a.a.a.a",
".a.c####.c.d.d.d#######################a.c.c.c#b############.c.a",
".a.a.c.c.c.c.c.d.d.c.c.c.c.c.c.c.c.c.c.c.c.c.c.c.c.c.c.c.c.c.a.a",
".#.a.a.c.c.c.c.d.d.c.c.c.c.c.c.c.c.c.c.c.c.c.c.c.c.c.c.c.c.a.a.#",
"Qt.b.a.a.c.d.d.d.c.c.c.c.c.c.c.c.c.c.c.c.c.c.c.c.c.c.c.c.a.a.bQt",
"QtQt.#.a.a.a.a.a.a.a.a.a.a.a.a.a.a.a.a.a.a.a.a.a.a.a.a.a.a.#QtQt"};
