/* XPM */
static char *cr32[]={
"32 32 74 2",
"Qt c None",
".# c #232341",
".b c #232341",
".e c #333350",
".d c #31314e",
".a c #232341",
".F c #232342",
".M c #252543",
".S c #262643",
".v c #262644",
".W c #272745",
".6 c #2c2c4a",
".I c #2d2d4b",
".q c #2e2e4a",
".A c #333350",
"#a c #3c3c57",
"#c c #40405a",
".t c #42425c",
".7 c #46465f",
"#d c #515169",
".o c #53536b",
".X c #54546b",
".y c #5d5d73",
".P c #616177",
".O c #65657a",
".Q c #727285",
".r c #747487",
".h c #7474c7",
".g c #7c7cd5",
".x c #7f7fb5",
".C c #808091",
".1 c #818192",
".J c #838394",
"## c #8484e2",
".m c #8585b4",
".k c #8b8bed",
".n c #8d8df1",
".8 c #8e8ef3",
".u c #9090f6",
".l c #9191a0",
"#. c #9191f3",
".E c #9494fd",
".T c #9696a4",
".f c #9696ff",
".i c #9797ff",
".w c #9898a6",
".3 c #9898ff",
".L c #9c9cff",
".U c #9e9ec3",
".B c #a3a3ff",
".4 c #a8a8ff",
".D c #aaaaff",
".p c #b1b1ce",
"#f c #b7b7cc",
"#e c #b9b9cd",
".R c #b9b9ff",
".G c #bbbbc4",
".c c #bebed2",
".s c #bebeff",
".2 c #c1c1ff",
".Y c #c7c7cf",
".H c #c7c7ff",
".Z c #c8c8cf",
"#h c #c9c9d8",
".z c #cbcbff",
".N c #ccccff",
".K c #d0d0ff",
".9 c #d4d4fa",
"#g c #d6d6e2",
".0 c #dfdfff",
".V c #e3e3e6",
".5 c #ebebef",
"#b c #eeeef0",
".j c #efeff1",
"QtQt.#.a.a.a.a.a.a.a.a.a.a.a.a.a.a.a.a.a.a.a.a.a.a.a.a.a.a.#QtQt",
"Qt.b.a.a.c.c.c.c.c.c.c.c.c.c.c.c.c.c.c.c.c.c.c.c.c.c.c.c.a.a.bQt",
".#.a.a.c.c.c.c.c.c.c.c.c.c.c.c.c.c.c.c.c.c.c.c.c.c.c.c.c.c.a.a.#",
".a.a.c.c.c.a.a.a.a.a.a.a.a.a.a.a.a.a.a.a.a.a.a.a.a.c.c.c.c.c.a.a",
".a.c.c.c.c.c.c.c.c.c.c.c.c.c.c.c.c.c.c.c.c.c.c.c.c.c.c.c.c.c.c.a",
".a.d.e.e.e.e.e.e.e.e.e.e.e.e.e.e.e.e.e.e.e.e.e.e.e.e.e.e.e.e.d.a",
".a.f.f.f.f.f.f.f.f.f.f.f.f.f.f.a.a.g.g.g.g.g.g.g.g.g.g.g.g.g.h.a",
".a.f.f.f.f.f.f.f.f.f.f.i.j.j.f.a.a.f.f.f.f.f.f.f.f.f.f.f.f.f.k.a",
".a.f.f.f.f.f.f.f.f.f.f.j.a.l.j.m.a.f.f.f.f.f.f.f.f.f.f.f.f.f.k.a",
".a.f.f.a.a.a.a.a.a.a.n.j.a.a.o.j.p.f.f.a.a.a.a.a.a.a.f.f.f.f.k.a",
".a.f.f.f.f.f.f.f.f.f.f.j.a.a.a.q.j.j.f.f.f.f.f.f.f.f.f.f.f.f.k.a",
".a.f.f.f.f.f.f.f.f.f.f.j.a.a.a.a.a.r.j.s.f.f.f.f.f.f.f.f.f.f.k.a",
".a.f.f.f.f.f.f.f.f.f.f.j.a.a.a.a.a.a.t.j.j.f.f.f.f.f.f.f.f.f.k.a",
".a.f.f.a.a.a.a.a.a.a.u.j.a.a.a.a.a.a.a.v.w.j.x.a.a.a.f.f.f.f.k.a",
".a.f.f.f.f.f.f.f.f.f.f.j.a.a.a.a.a.a.a.a.a.y.j.z.i.f.f.f.f.f.k.a",
".a.f.f.f.f.f.f.f.f.f.f.j.a.a.a.a.a.a.a.a.a.a.A.j.j.B.f.f.f.f.k.a",
".a.f.f.f.f.f.f.f.f.f.f.j.a.a.a.a.a.a.a.a.a.a.a.a.C.j.D.f.f.f.k.a",
".a.f.f.a.a.a.a.a.a.a.E.j.a.a.a.a.a.a.a.a.a.a.a.F.a.G.H.f.f.f.k.a",
".a.f.f.f.f.f.f.f.f.f.f.j.a.a.a.a.a.a.a.a.I.J.j.j.j.K.L.f.f.f.k.a",
".a.f.f.f.f.f.f.f.f.f.f.j.a.a.a.a.a.a.a.a.M.j.N.L.f.f.f.f.f.f.k.a",
".a.f.f.f.f.f.f.f.f.f.f.j.a.a.a.a.a.F.a.a.a.O.j.f.f.f.f.f.f.f.k.a",
".a.f.f.a.a.a.a.a.a.a.f.j.a.a.a.P.j.Q.a.a.a.a.j.R.f.f.f.f.f.f.k.a",
".a.f.f.f.f.f.f.f.f.f.f.j.a.S.T.j.U.V.W.a.a.a.X.j.i.f.f.f.f.f.k.a",
".a.f.f.f.f.f.f.f.f.f.f.j.Y.Z.j.j.a.0.1.a.a.a.a.j.2.f.f.f.f.f.k.a",
".a.f.f.f.f.f.f.f.f.f.f.3.j.j.f.a.a.4.5.6.a.a.a.7.j.f.f.f.f.f.k.a",
".a.f.8.8.8.8.8.8.8.8.8.8.8.8.8.a.a.8.9.l.a.a.a.j.j#..8.8.8.8##.a",
".a.a.a.a.a.a.a.a.a.a.a.a.a.a.a.a.a.a#a#b#c.a.j.j#d.a.a.a.a.a.a.a",
".a.c.c.c#e.a.a#f#e#e#e#e#e#e#e#e#e#e#e#g.j.j#h#e#e#e#e#e#e#e.c.a",
".a.a.c.c.c.c.a.a.c.c.c.c.c.c.c.c.c.c.c.c.c.c.c.c.c.c.c.c.c.c.a.a",
".#.a.a.c.c.c.a.a.c.c.c.c.c.c.c.c.c.c.c.c.c.c.c.c.c.c.c.c.c.a.a.#",
"Qt.b.a.a.c.a.a.c.c.c.c.c.c.c.c.c.c.c.c.c.c.c.c.c.c.c.c.c.a.a.bQt",
"QtQt.#.a.a.a.a.a.a.a.a.a.a.a.a.a.a.a.a.a.a.a.a.a.a.a.a.a.a.#QtQt"};
