<?xml version="1.0" encoding="UTF-8" standalone="no"?>
<!-- Created with Inkscape (http://www.inkscape.org/) -->
<svg
   xmlns:dc="http://purl.org/dc/elements/1.1/"
   xmlns:cc="http://web.resource.org/cc/"
   xmlns:rdf="http://www.w3.org/1999/02/22-rdf-syntax-ns#"
   xmlns:svg="http://www.w3.org/2000/svg"
   xmlns="http://www.w3.org/2000/svg"
   xmlns:sodipodi="http://inkscape.sourceforge.net/DTD/sodipodi-0.dtd"
   xmlns:inkscape="http://www.inkscape.org/namespaces/inkscape"
   width="1280.0000pt"
   height="1024.0000pt"
   id="svg1803"
   sodipodi:version="0.32"
   inkscape:version="0.41"
   sodipodi:docbase="/home/kwaigon/work/krusader_signs/ready/krusader_icons__svg"
   sodipodi:docname="krusader_icons_.svg">
  <defs
     id="defs3" />
  <sodipodi:namedview
     id="base"
     pagecolor="#ffffff"
     bordercolor="#666666"
     borderopacity="1.0"
     inkscape:pageopacity="0.0"
     inkscape:pageshadow="2"
     inkscape:zoom="0.50000000"
     inkscape:cx="815.89050"
     inkscape:cy="642.89514"
     inkscape:document-units="px"
     inkscape:current-layer="layer1"
     inkscape:window-width="1181"
     inkscape:window-height="941"
     inkscape:window-x="85"
     inkscape:window-y="0" />
  <metadata
     id="metadata4">
    <rdf:RDF
       id="RDF5">
      <cc:Work
         rdf:about=""
         id="Work6">
        <dc:format
           id="format7">image/svg+xml</dc:format>
        <dc:type
           id="type9"
           rdf:resource="http://purl.org/dc/dcmitype/StillImage" />
      </cc:Work>
    </rdf:RDF>
  </metadata>
  <g
     inkscape:label="Layer 1"
     inkscape:groupmode="layer"
     id="layer1">
    <g
       transform="translate(43.63817,-190.0000)"
       id="g2576">
      <path
         style="fill:#bebed2;fill-opacity:1.0000000;fill-rule:evenodd;stroke:none;stroke-width:15.000000;stroke-miterlimit:4.0000000;stroke-dashoffset:0.0000000;stroke-opacity:1.0000000;display:inline"
         d="M 857.83808,441.47123 L 664.68351,441.47123 L 664.68351,441.79678 C 664.68351,458.86448 678.43235,472.60424 695.50087,472.60424 L 827.02936,472.60424 C 844.09766,472.60424 857.83808,458.86448 857.83808,441.79678 L 857.83808,441.47123 z "
         id="path2986" />
      <path
         style="fill:#9696ff;fill-opacity:1.0000000;fill-rule:evenodd;stroke:none;stroke-width:15.000000;stroke-miterlimit:4.0000000;stroke-dashoffset:0.0000000;stroke-opacity:1.0000000;display:inline"
         d="M 857.83808,312.34724 L 664.68351,312.34724 L 664.68351,441.47123 L 857.83808,441.47123 L 857.83808,312.34724 z "
         id="path2988" />
      <path
         style="fill:#bebed2;fill-opacity:1.0000000;fill-rule:evenodd;stroke:none;stroke-width:15.000000;stroke-miterlimit:4.0000000;stroke-dashoffset:0.0000000;stroke-opacity:1.0000000;display:inline"
         d="M 695.50087,279.45798 C 678.43246,279.45798 664.68351,293.19772 664.68351,310.26542 L 664.68351,312.34724 L 857.83808,312.34724 L 857.83808,310.26542 C 857.83808,293.19772 844.09777,279.45798 827.02936,279.45798 L 695.50087,279.45798 z "
         id="path2990" />
      <path
         style="fill:#323264;fill-opacity:1.0000000;fill-rule:evenodd;stroke:none;stroke-width:25.000000;stroke-linecap:round;stroke-linejoin:round;stroke-miterlimit:4.0000000;stroke-opacity:1.0000000;display:inline"
         d="M 692.95016,292.68394 C 691.71425,292.66646 690.56468,293.31577 689.94159,294.38322 C 689.31850,295.45068 689.31850,296.77091 689.94159,297.83837 C 690.56468,298.90583 691.71425,299.55514 692.95016,299.53765 L 813.92339,299.53765 C 815.15929,299.55514 816.30887,298.90583 816.93196,297.83837 C 817.55494,296.77091 817.55494,295.45068 816.93196,294.38322 C 816.30887,293.31577 815.15929,292.66646 813.92339,292.68394 L 692.95016,292.68394 z "
         id="path2992" />
      <path
         style="fill:#232341;fill-opacity:1.0000000;fill-rule:evenodd;stroke:none;stroke-width:25.000000;stroke-linecap:butt;stroke-linejoin:miter;stroke-miterlimit:4.0000000;stroke-dashoffset:0.0000000;stroke-opacity:1.0000000;display:inline"
         d="M 695.50055,276.03111 C 676.59281,276.03111 661.26472,291.35852 661.26472,310.26542 L 661.26472,441.79678 C 661.26472,460.70368 676.59281,476.03109 695.50055,476.03109 L 827.02892,476.03109 C 845.93666,476.03109 861.26464,460.70368 861.26475,441.79678 L 861.26475,310.26542 C 861.26475,291.35852 845.93666,276.03111 827.02892,276.03111 L 695.50055,276.03111 z M 695.50055,282.88483 L 827.02892,282.88483 C 841.51449,282.88483 853.19114,293.88507 854.29930,308.06367 L 668.23005,307.97800 C 669.37821,293.84033 681.04382,282.88483 695.50055,282.88483 z M 668.11870,314.83171 L 757.88052,314.87454 L 757.78633,438.10434 L 668.11870,438.06151 L 668.11870,314.83171 z M 764.73451,314.87454 L 854.41076,314.91738 L 854.41076,438.14718 L 764.64031,438.10434 L 764.73451,314.87454 z M 668.29868,444.91522 L 854.21363,445.00090 C 852.64662,458.69283 841.17191,469.17738 827.02892,469.17738 L 695.50055,469.17738 C 681.32750,469.17738 669.82668,458.64991 668.29868,444.91522 z "
         id="path2994" />
      <path
         style="fill:#323264;fill-opacity:1.0000000;fill-rule:evenodd;stroke:none;stroke-width:25.000000;stroke-linecap:round;stroke-linejoin:round;stroke-miterlimit:4.0000000;stroke-opacity:1.0000000;display:inline"
         d="M 697.71982,445.76765 C 696.26788,445.83823 695.01842,446.81700 694.60230,448.20976 C 694.18618,449.60253 694.69398,451.10627 695.86924,451.96170 L 702.45769,456.87924 L 696.08342,462.13947 C 694.62372,463.34600 694.41850,465.50739 695.62512,466.96705 C 696.83163,468.42672 698.99310,468.63192 700.45292,467.42540 L 710.18555,459.38085 C 710.99703,458.71158 711.45620,457.70677 711.43118,456.65524 C 711.40605,455.60373 710.89955,454.62195 710.05704,453.99211 L 699.96456,446.47016 C 699.32257,445.97856 698.52748,445.72974 697.71982,445.76765 z "
         id="path2996" />
      <path
         style="fill:#323264;fill-opacity:1.0000000;fill-rule:evenodd;stroke:none;stroke-width:25.000000;stroke-linecap:round;stroke-linejoin:round;stroke-miterlimit:4.0000000;stroke-opacity:1.0000000;display:inline"
         d="M 679.53677,331.22656 C 679.08885,331.20908 678.67221,331.85839 678.44639,332.92585 C 678.22056,333.99330 678.22056,335.31353 678.44639,336.38099 C 678.67221,337.44845 679.08885,338.09776 679.53677,338.08027 L 723.38037,338.08027 C 723.82829,338.09776 724.24492,337.44845 724.47075,336.38099 C 724.69654,335.31353 724.69654,333.99330 724.47075,332.92585 C 724.24492,331.85839 723.82829,331.20908 723.38037,331.22656 L 679.53677,331.22656 z "
         id="path2998" />
      <path
         style="fill:#323264;fill-opacity:1.0000000;fill-rule:evenodd;stroke:none;stroke-width:25.000000;stroke-linecap:round;stroke-linejoin:round;stroke-miterlimit:4.0000000;stroke-opacity:1.0000000;display:inline"
         d="M 679.53677,354.27649 C 679.08885,354.25901 678.67221,354.90832 678.44639,355.97578 C 678.22056,357.04323 678.22056,358.36347 678.44639,359.43092 C 678.67221,360.49838 679.08885,361.14769 679.53677,361.13021 L 723.38037,361.13021 C 723.82829,361.14769 724.24492,360.49838 724.47075,359.43092 C 724.69654,358.36347 724.69654,357.04323 724.47075,355.97578 C 724.24492,354.90832 723.82829,354.25901 723.38037,354.27649 L 679.53677,354.27649 z "
         id="path3000" />
      <path
         style="fill:#323264;fill-opacity:1.0000000;fill-rule:evenodd;stroke:none;stroke-width:25.000000;stroke-linecap:round;stroke-linejoin:round;stroke-miterlimit:4.0000000;stroke-opacity:1.0000000;display:inline"
         d="M 679.53677,377.32643 C 679.08885,377.30894 678.67221,377.95825 678.44639,379.02571 C 678.22056,380.09316 678.22056,381.41340 678.44639,382.48085 C 678.67221,383.54831 679.08885,384.19762 679.53677,384.18014 L 723.38037,384.18014 C 723.82829,384.19762 724.24492,383.54831 724.47075,382.48085 C 724.69654,381.41340 724.69654,380.09316 724.47075,379.02571 C 724.24492,377.95825 723.82829,377.30894 723.38037,377.32643 L 679.53677,377.32643 z "
         id="path3002" />
      <path
         style="fill:#323264;fill-opacity:1.0000000;fill-rule:evenodd;stroke:none;stroke-width:25.000000;stroke-linecap:round;stroke-linejoin:round;stroke-miterlimit:4.0000000;stroke-opacity:1.0000000;display:inline"
         d="M 679.53677,400.37635 C 679.08885,400.35886 678.67221,401.00817 678.44639,402.07563 C 678.22056,403.14309 678.22056,404.46332 678.44639,405.53077 C 678.67221,406.59823 679.08885,407.24754 679.53677,407.23006 L 723.38037,407.23006 C 723.82829,407.24754 724.24492,406.59823 724.47075,405.53077 C 724.69654,404.46332 724.69654,403.14309 724.47075,402.07563 C 724.24492,401.00817 723.82829,400.35886 723.38037,400.37635 L 679.53677,400.37635 z "
         id="path3004" />
      <path
         style="fill:#323264;fill-opacity:1.0000000;fill-rule:evenodd;stroke:none;stroke-width:25.000000;stroke-linecap:round;stroke-linejoin:round;stroke-miterlimit:4.0000000;stroke-opacity:1.0000000;display:inline"
         d="M 778.35211,331.22656 C 777.90419,331.20908 777.48756,331.85839 777.26174,332.92585 C 777.03591,333.99330 777.03591,335.31353 777.26174,336.38099 C 777.48756,337.44845 777.90419,338.09776 778.35211,338.08027 L 822.19571,338.08027 C 822.64363,338.09776 823.06027,337.44845 823.28610,336.38099 C 823.51188,335.31353 823.51188,333.99330 823.28610,332.92585 C 823.06027,331.85839 822.64363,331.20908 822.19571,331.22656 L 778.35211,331.22656 z "
         id="path3006" />
      <path
         style="fill:#323264;fill-opacity:1.0000000;fill-rule:evenodd;stroke:none;stroke-width:25.000000;stroke-linecap:round;stroke-linejoin:round;stroke-miterlimit:4.0000000;stroke-opacity:1.0000000;display:inline"
         d="M 778.35211,354.27649 C 777.90419,354.25901 777.48756,354.90832 777.26174,355.97578 C 777.03591,357.04323 777.03591,358.36347 777.26174,359.43092 C 777.48756,360.49838 777.90419,361.14769 778.35211,361.13021 L 822.19571,361.13021 C 822.64363,361.14769 823.06027,360.49838 823.28610,359.43092 C 823.51188,358.36347 823.51188,357.04323 823.28610,355.97578 C 823.06027,354.90832 822.64363,354.25901 822.19571,354.27649 L 778.35211,354.27649 z "
         id="path3008" />
      <path
         style="fill:#ffffff;fill-opacity:1.0000000;fill-rule:evenodd;stroke:none;stroke-width:50.000000;stroke-linecap:round;stroke-linejoin:round;stroke-miterlimit:4.0000000;stroke-opacity:1.0000000;display:inline"
         d="M 743.33137,321.71712 C 742.75067,321.68282 742.14666,321.69896 741.50402,321.79148 C 740.85006,321.88565 740.26471,322.04176 739.76212,322.22029 C 739.20273,322.41905 738.67506,322.67141 738.18403,322.96258 C 737.70525,323.24652 737.23304,323.58506 736.78704,323.98139 C 736.34219,324.37669 735.94976,324.80600 735.61080,325.24867 C 735.31592,325.63403 734.98480,326.11923 734.67998,326.73554 C 734.38412,327.33376 734.18894,327.89120 734.04903,328.41478 C 733.91774,328.90907 733.84941,329.41798 733.84567,329.92941 C 733.84180,330.44270 733.83837,330.93209 733.83518,331.39464 C 733.67373,354.57689 733.81314,377.72022 733.76847,400.81814 C 733.76831,400.82067 733.76816,400.82319 733.76802,400.82571 C 733.76879,407.88622 733.77715,414.94950 733.77787,422.00923 C 733.77786,422.25879 733.77098,422.55408 733.77104,422.89745 C 733.77134,423.53544 733.87235,424.16942 734.07020,424.77594 C 733.54460,423.16408 733.51443,423.24340 734.13427,424.97719 C 734.48938,425.97706 735.02626,426.81245 735.61952,427.48015 C 736.21335,428.14853 736.98763,428.78773 737.93747,429.25758 C 738.85966,429.71356 739.85587,429.97089 740.87689,430.03119 C 741.89771,430.09147 742.94536,429.94017 743.87930,429.60845 C 745.85134,428.90793 746.03947,428.59971 744.57398,429.29251 C 744.89853,429.14106 745.20910,428.96112 745.50193,428.75487 C 746.06595,428.35311 746.02721,428.42495 745.50282,428.73975 C 745.60532,428.67278 745.70564,428.60270 745.80384,428.52965 C 745.89781,428.45897 746.00917,428.37276 746.13784,428.27596 C 752.33908,423.60908 758.49759,418.92905 764.66337,414.25551 C 770.51065,425.16582 780.48734,443.85537 781.98008,446.68409 C 782.13487,446.97975 782.31380,447.26214 782.51509,447.52838 C 783.48283,448.80230 784.94494,450.15847 787.07587,450.81296 C 789.20681,451.46745 791.71940,451.09530 793.50848,450.18266 C 800.34774,446.88107 806.78412,443.79690 813.63942,440.48753 C 813.70006,440.45665 813.76016,440.42473 813.81974,440.39183 C 815.89230,439.30333 817.65781,436.79494 817.99037,434.59235 C 818.32300,432.38979 817.78162,430.71544 817.15943,429.37099 C 817.10030,429.24354 817.03679,429.11821 816.96897,428.99517 C 809.75493,415.86236 804.67774,406.30195 799.81325,397.18372 C 806.52433,395.53893 813.23262,393.89541 819.94398,392.25073 C 820.33336,392.15533 820.74950,392.05101 821.18498,391.94426 C 821.77064,391.80274 822.33195,391.57479 822.85044,391.26788 C 822.29303,391.60044 822.86328,391.49351 824.10216,390.39242 C 824.87204,389.70851 825.51314,388.87085 825.97946,387.92850 C 826.16595,387.55134 826.38629,387.05677 826.55420,386.42823 C 826.71181,385.83783 826.78046,385.29701 826.80920,384.81032 C 826.83786,384.32492 826.83372,383.78004 826.74640,383.17365 C 826.65360,382.53039 826.49233,382.01980 826.35179,381.62371 C 825.94765,380.48632 825.40034,379.73570 825.05355,379.29890 C 824.70736,378.86513 824.30319,378.48092 823.85256,378.15705 C 823.53751,377.92915 823.23245,377.71068 822.93459,377.49523 C 798.18286,359.59176 773.37355,341.76236 748.61771,323.90528 C 748.24483,323.63633 747.86195,323.36596 747.47365,323.08580 C 747.09235,322.80971 746.68039,322.57892 746.24584,322.39809 C 746.36026,322.44542 745.99609,322.23703 745.12962,322.00557 C 744.52219,321.84342 743.91197,321.75140 743.33137,321.71712 z M 745.95619,336.94852 C 766.98760,352.11262 788.03211,367.25392 809.03945,382.43186 C 802.47280,384.04113 795.90800,385.65138 789.34023,387.26119 C 787.52067,387.70917 786.01031,388.97283 785.24831,390.68472 C 784.48631,392.39655 784.55823,394.36448 785.44321,396.01615 C 790.92627,406.22902 796.60548,416.99950 804.49038,431.42550 C 799.99824,433.58947 795.55139,435.73103 791.03568,437.90716 C 787.55590,431.35058 775.93958,409.53419 772.00337,402.24805 C 771.16148,400.69341 769.68319,399.58339 767.95533,399.20844 C 766.22756,398.83350 764.42212,399.23095 763.01150,400.29679 C 757.29752,404.61680 751.60460,408.92923 745.90931,413.23922 C 745.90861,409.10233 745.90596,404.96440 745.90549,400.82849 C 745.94671,379.49354 745.84924,358.20857 745.95619,336.94852 z "
         id="path3010" />
      <path
         style="fill:#232341;fill-opacity:1.0000000;fill-rule:evenodd;stroke:none;stroke-width:15.000000;stroke-linecap:round;stroke-linejoin:round;stroke-miterlimit:4.0000000;stroke-opacity:1.0000000;display:inline"
         d="M 742.97154,327.76943 C 742.76589,327.75728 742.56146,327.76436 742.36514,327.79262 C 742.16895,327.82088 741.97872,327.87116 741.79606,327.93607 C 741.61338,328.00096 741.43987,328.08293 741.27503,328.18070 C 741.11018,328.27847 740.95534,328.39044 740.81251,328.51731 C 740.66978,328.64421 740.54028,328.78475 740.42374,328.93697 C 740.30734,329.08918 740.20058,329.25148 740.11457,329.42528 C 740.02863,329.59903 739.96094,329.78716 739.90982,329.97874 C 739.90616,330.46547 739.90561,330.95218 739.90226,331.43893 C 739.74129,354.56841 739.88206,377.69692 739.83742,400.82729 C 739.83813,407.88719 739.83990,414.94872 739.84060,422.00907 C 739.84062,422.30570 739.83723,422.60237 739.83726,422.89901 C 739.84137,422.91158 739.84030,422.92637 739.84469,422.93879 C 739.91308,423.13109 740.02012,423.30345 740.15364,423.45376 C 740.28718,423.60406 740.44575,423.73066 740.62863,423.82115 C 740.81163,423.91162 741.01771,423.96705 741.23405,423.97983 C 741.45051,423.99261 741.65674,423.96152 741.84911,423.89322 C 741.89839,423.87566 741.93463,423.83474 741.98166,423.81251 C 742.03932,423.77148 742.09948,423.71037 742.15668,423.68021 C 742.26811,423.59645 742.37987,423.51330 742.49118,423.42950 C 750.56782,417.35119 758.60442,411.22722 766.66749,405.13124 C 770.91039,412.98492 785.50337,440.36958 787.34342,443.85640 C 788.21958,445.00977 789.36873,445.48552 790.75126,444.78027 C 797.59850,441.47480 804.15280,438.32950 811.00002,435.02402 C 812.20887,434.38908 812.21407,433.12150 811.65581,431.91526 C 802.63183,415.48758 796.76265,404.28218 790.78553,393.14910 C 800.02552,390.88433 809.26280,388.62058 818.50208,386.35641 C 818.91444,386.25539 819.32725,386.15678 819.73951,386.05574 C 819.85058,385.98947 819.97452,385.94451 820.07084,385.85891 C 820.26632,385.68531 820.42760,385.47553 820.54531,385.23774 C 820.60407,385.11884 820.65535,384.99378 820.69040,384.86271 C 820.72537,384.73164 820.74560,384.59403 820.75391,384.45336 C 820.76221,384.31268 820.75832,384.17365 820.73902,384.03937 C 820.71964,383.90510 820.68344,383.77486 820.63908,383.64988 C 820.56308,383.43605 820.43829,383.24920 820.29924,383.07407 C 819.99291,382.85244 819.68588,382.63155 819.37947,382.40993 C 794.63813,364.51398 769.83002,346.68911 745.06805,328.82762 C 744.68746,328.55306 744.30722,328.27743 743.92660,328.00285 C 743.80783,327.95374 743.69211,327.89722 743.56594,327.86352 C 743.37431,327.81235 743.17715,327.78157 742.97154,327.76943 z "
         id="path3012"
         sodipodi:nodetypes="cccccccccccccccccccccccccccccccccccccccc" />
    </g>
    <g
       transform="translate(43.63819,-137.4754)"
       id="g2546">
      <path
         style="fill:#ffff00;fill-opacity:1.0000000;fill-rule:evenodd;stroke:none;stroke-width:15.000000;stroke-miterlimit:4.0000000;stroke-dashoffset:0.0000000;stroke-opacity:1.0000000;display:inline"
         d="M 857.83803,684.50756 L 664.68349,684.50756 L 664.68349,684.83312 C 664.68349,701.90081 678.43233,715.64057 695.50085,715.64057 L 827.02932,715.64057 C 844.09761,715.64057 857.83803,701.90081 857.83803,684.83312 L 857.83803,684.50756 z "
         id="path3220" />
      <path
         style="fill:#ff0000;fill-opacity:1.0000000;fill-rule:evenodd;stroke:none;stroke-width:15.000000;stroke-miterlimit:4.0000000;stroke-dashoffset:0.0000000;stroke-opacity:1.0000000;display:inline"
         d="M 857.83803,555.38356 L 664.68349,555.38356 L 664.68349,684.50756 L 857.83803,684.50756 L 857.83803,555.38356 z "
         id="path3222" />
      <path
         style="fill:#ffff00;fill-opacity:1.0000000;fill-rule:evenodd;stroke:none;stroke-width:15.000000;stroke-miterlimit:4.0000000;stroke-dashoffset:0.0000000;stroke-opacity:1.0000000;display:inline"
         d="M 695.50085,522.49429 C 678.43244,522.49429 664.68349,536.23403 664.68349,553.30173 L 664.68349,555.38356 L 857.83803,555.38356 L 857.83803,553.30173 C 857.83803,536.23403 844.09772,522.49429 827.02932,522.49429 L 695.50085,522.49429 z "
         id="path3224" />
      <path
         style="fill:#ff2323;fill-opacity:1.0000000;fill-rule:evenodd;stroke:none;stroke-width:25.000000;stroke-linecap:round;stroke-linejoin:round;stroke-miterlimit:4.0000000;stroke-opacity:1.0000000;display:inline"
         d="M 692.95014,535.72026 C 691.71424,535.70277 690.56465,536.35208 689.94156,537.41954 C 689.31848,538.48699 689.31848,539.80723 689.94156,540.87469 C 690.56465,541.94214 691.71424,542.59145 692.95014,542.57397 L 813.92334,542.57397 C 815.15925,542.59145 816.30883,541.94214 816.93192,540.87469 C 817.55490,539.80723 817.55490,538.48699 816.93192,537.41954 C 816.30883,536.35208 815.15925,535.70277 813.92334,535.72026 L 692.95014,535.72026 z "
         id="path3226" />
      <path
         style="fill:#232341;fill-opacity:1.0000000;fill-rule:evenodd;stroke:none;stroke-width:25.000000;stroke-linecap:butt;stroke-linejoin:miter;stroke-miterlimit:4.0000000;stroke-dashoffset:0.0000000;stroke-opacity:1.0000000;display:inline"
         d="M 695.50053,519.06743 C 676.59279,519.06743 661.26470,534.39483 661.26470,553.30173 L 661.26470,684.83312 C 661.26470,703.74002 676.59279,719.06742 695.50053,719.06742 L 827.02887,719.06742 C 845.93661,719.06742 861.26459,703.74002 861.26470,684.83312 L 861.26470,553.30173 C 861.26470,534.39483 845.93661,519.06743 827.02887,519.06743 L 695.50053,519.06743 z M 695.50053,525.92115 L 827.02887,525.92115 C 841.51445,525.92115 853.19109,536.92139 854.29925,551.09999 L 668.23003,551.01431 C 669.37819,536.87665 681.04379,525.92115 695.50053,525.92115 z M 668.11869,557.86802 L 757.88049,557.91086 L 757.78630,681.14067 L 668.11869,681.09784 L 668.11869,557.86802 z M 764.73447,557.91086 L 854.41072,557.95369 L 854.41072,681.18351 L 764.64027,681.14067 L 764.73447,557.91086 z M 668.29865,687.95155 L 854.21358,688.03723 C 852.64657,701.72915 841.17187,712.21371 827.02887,712.21371 L 695.50053,712.21371 C 681.32748,712.21371 669.82665,701.68624 668.29865,687.95155 z "
         id="path3228" />
      <path
         style="fill:#ff2323;fill-opacity:1.0000000;fill-rule:evenodd;stroke:none;stroke-width:25.000000;stroke-linecap:round;stroke-linejoin:round;stroke-miterlimit:4.0000000;stroke-opacity:1.0000000;display:inline"
         d="M 697.71980,688.80398 C 696.26786,688.87457 695.01840,689.85333 694.60228,691.24609 C 694.18615,692.63886 694.69396,694.14260 695.86922,694.99803 L 702.45766,699.91556 L 696.08339,705.17580 C 694.62369,706.38233 694.41847,708.54372 695.62509,710.00338 C 696.83161,711.46305 698.99307,711.66825 700.45288,710.46173 L 710.18551,702.41719 C 710.99699,701.74790 711.45617,700.74309 711.43115,699.69157 C 711.40602,698.64006 710.89952,697.65828 710.05701,697.02844 L 699.96453,689.50649 C 699.32254,689.01489 698.52745,688.76606 697.71980,688.80398 z "
         id="path3230" />
      <path
         style="fill:#ffff23;fill-opacity:1.0000000;fill-rule:evenodd;stroke:none;stroke-width:25.000000;stroke-linecap:round;stroke-linejoin:round;stroke-miterlimit:4.0000000;stroke-opacity:1.0000000;display:inline"
         d="M 679.53674,574.26288 C 679.08883,574.24540 678.67220,574.89470 678.44637,575.96216 C 678.22055,577.02963 678.22055,578.34985 678.44637,579.41731 C 678.67220,580.48477 679.08883,581.13407 679.53674,581.11660 L 723.38034,581.11660 C 723.82826,581.13407 724.24489,580.48477 724.47073,579.41731 C 724.69651,578.34985 724.69651,577.02963 724.47073,575.96216 C 724.24489,574.89470 723.82826,574.24540 723.38034,574.26288 L 679.53674,574.26288 z "
         id="path3232" />
      <path
         style="fill:#ffff23;fill-opacity:1.0000000;fill-rule:evenodd;stroke:none;stroke-width:25.000000;stroke-linecap:round;stroke-linejoin:round;stroke-miterlimit:4.0000000;stroke-opacity:1.0000000;display:inline"
         d="M 679.53674,597.31282 C 679.08883,597.29533 678.67220,597.94465 678.44637,599.01210 C 678.22055,600.07956 678.22055,601.39979 678.44637,602.46725 C 678.67220,603.53470 679.08883,604.18402 679.53674,604.16653 L 723.38034,604.16653 C 723.82826,604.18402 724.24489,603.53470 724.47073,602.46725 C 724.69651,601.39979 724.69651,600.07956 724.47073,599.01210 C 724.24489,597.94465 723.82826,597.29533 723.38034,597.31282 L 679.53674,597.31282 z "
         id="path3234" />
      <path
         style="fill:#ffff23;fill-opacity:1.0000000;fill-rule:evenodd;stroke:none;stroke-width:25.000000;stroke-linecap:round;stroke-linejoin:round;stroke-miterlimit:4.0000000;stroke-opacity:1.0000000;display:inline"
         d="M 679.53674,620.36275 C 679.08883,620.34526 678.67220,620.99457 678.44637,622.06203 C 678.22055,623.12948 678.22055,624.44972 678.44637,625.51718 C 678.67220,626.58463 679.08883,627.23394 679.53674,627.21646 L 723.38034,627.21646 C 723.82826,627.23394 724.24489,626.58463 724.47073,625.51718 C 724.69651,624.44972 724.69651,623.12948 724.47073,622.06203 C 724.24489,620.99457 723.82826,620.34526 723.38034,620.36275 L 679.53674,620.36275 z "
         id="path3236" />
      <path
         style="fill:#ffff23;fill-opacity:1.0000000;fill-rule:evenodd;stroke:none;stroke-width:25.000000;stroke-linecap:round;stroke-linejoin:round;stroke-miterlimit:4.0000000;stroke-opacity:1.0000000;display:inline"
         d="M 679.53674,643.41268 C 679.08883,643.39519 678.67220,644.04450 678.44637,645.11196 C 678.22055,646.17941 678.22055,647.49965 678.44637,648.56711 C 678.67220,649.63456 679.08883,650.28387 679.53674,650.26639 L 723.38034,650.26639 C 723.82826,650.28387 724.24489,649.63456 724.47073,648.56711 C 724.69651,647.49965 724.69651,646.17941 724.47073,645.11196 C 724.24489,644.04450 723.82826,643.39519 723.38034,643.41268 L 679.53674,643.41268 z "
         id="path3238" />
      <path
         style="fill:#ffff23;fill-opacity:1.0000000;fill-rule:evenodd;stroke:none;stroke-width:25.000000;stroke-linecap:round;stroke-linejoin:round;stroke-miterlimit:4.0000000;stroke-opacity:1.0000000;display:inline"
         d="M 778.35207,574.26288 C 777.90415,574.24540 777.48752,574.89470 777.26170,575.96216 C 777.03587,577.02963 777.03587,578.34985 777.26170,579.41731 C 777.48752,580.48477 777.90415,581.13407 778.35207,581.11660 L 822.19567,581.11660 C 822.64359,581.13407 823.06023,580.48477 823.28606,579.41731 C 823.51184,578.34985 823.51184,577.02963 823.28606,575.96216 C 823.06023,574.89470 822.64359,574.24540 822.19567,574.26288 L 778.35207,574.26288 z "
         id="path3240" />
      <path
         style="fill:#ffff23;fill-opacity:1.0000000;fill-rule:evenodd;stroke:none;stroke-width:25.000000;stroke-linecap:round;stroke-linejoin:round;stroke-miterlimit:4.0000000;stroke-opacity:1.0000000;display:inline"
         d="M 778.35207,597.31282 C 777.90415,597.29533 777.48752,597.94465 777.26170,599.01210 C 777.03587,600.07956 777.03587,601.39979 777.26170,602.46725 C 777.48752,603.53470 777.90415,604.18402 778.35207,604.16653 L 822.19567,604.16653 C 822.64359,604.18402 823.06023,603.53470 823.28606,602.46725 C 823.51184,601.39979 823.51184,600.07956 823.28606,599.01210 C 823.06023,597.94465 822.64359,597.29533 822.19567,597.31282 L 778.35207,597.31282 z "
         id="path3242" />
      <path
         style="fill:#ffffff;fill-opacity:1.0000000;fill-rule:evenodd;stroke:none;stroke-width:50.000000;stroke-linecap:round;stroke-linejoin:round;stroke-miterlimit:4.0000000;stroke-opacity:1.0000000;display:inline"
         d="M 743.31845,564.90439 C 742.73774,564.87009 742.13373,564.88623 741.49109,564.97875 C 740.83714,565.07292 740.25179,565.22903 739.74920,565.40756 C 739.18980,565.60632 738.66214,565.85867 738.17111,566.14984 C 737.69232,566.43378 737.22011,566.77232 736.77411,567.16866 C 736.32926,567.56395 735.93684,567.99327 735.59788,568.43593 C 735.30300,568.82129 734.97187,569.30650 734.66705,569.92280 C 734.37120,570.52104 734.17602,571.07846 734.03611,571.60205 C 733.90481,572.09633 733.83648,572.60524 733.83275,573.11668 C 733.82888,573.62996 733.82544,574.11936 733.82226,574.58191 C 733.66081,597.76416 733.80021,620.90749 733.75554,644.00540 C 733.75539,644.00794 733.75524,644.01045 733.75510,644.01298 C 733.75587,651.07350 733.76423,658.13677 733.76496,665.19650 C 733.76494,665.44607 733.75806,665.74135 733.75813,666.08473 C 733.75842,666.72271 733.85943,667.35670 734.05727,667.96321 C 733.53168,666.35135 733.50150,666.43067 734.12134,668.16447 C 734.47645,669.16434 735.01333,669.99972 735.60659,670.66742 C 736.20043,671.33581 736.97471,671.97501 737.92454,672.44486 C 738.84673,672.90084 739.84294,673.15816 740.86397,673.21847 C 741.88478,673.27874 742.93243,673.12744 743.86638,672.79573 C 745.83841,672.09520 746.02654,671.78698 744.56105,672.47978 C 744.88561,672.32833 745.19617,672.14839 745.48900,671.94215 C 746.05302,671.54038 746.01428,671.61222 745.48989,671.92702 C 745.59239,671.86006 745.69272,671.78998 745.79091,671.71693 C 745.88488,671.64625 745.99625,671.56004 746.12491,671.46323 C 752.32614,666.79635 758.48466,662.11631 764.65043,657.44279 C 770.49772,668.35309 780.47440,687.04265 781.96716,689.87137 C 782.12193,690.16702 782.30088,690.44941 782.50216,690.71566 C 783.46990,691.98957 784.93201,693.34576 787.06293,694.00024 C 789.19388,694.65473 791.70646,694.28258 793.49555,693.36993 C 800.33481,690.06835 806.77118,686.98417 813.62649,683.67480 C 813.68712,683.64392 813.74723,683.61201 813.80680,683.57910 C 815.87937,682.49061 817.64487,679.98221 817.97744,677.77962 C 818.31006,675.57706 817.76868,673.90272 817.14649,672.55826 C 817.08736,672.43082 817.02385,672.30549 816.95604,672.18244 C 809.74200,659.04963 804.66481,649.48923 799.80031,640.37100 C 806.51140,638.72620 813.21969,637.08268 819.93104,635.43800 C 820.32042,635.34259 820.73656,635.23828 821.17204,635.13153 C 821.75770,634.99002 822.31901,634.76207 822.83750,634.45515 C 822.28009,634.78770 822.85035,634.68077 824.08921,633.57969 C 824.85910,632.89578 825.50021,632.05812 825.96652,631.11577 C 826.15301,630.73861 826.37335,630.24404 826.54126,629.61551 C 826.69887,629.02510 826.76752,628.48427 826.79626,627.99760 C 826.82492,627.51220 826.82078,626.96731 826.73346,626.36092 C 826.64066,625.71765 826.47939,625.20706 826.33885,624.81098 C 825.93471,623.67359 825.38740,622.92297 825.04062,622.48617 C 824.69442,622.05241 824.29025,621.66819 823.83962,621.34432 C 823.52457,621.11643 823.21952,620.89795 822.92165,620.68250 C 798.16992,602.77903 773.36062,584.94962 748.60479,567.09255 C 748.23190,566.82360 747.84901,566.55323 747.46073,566.27307 C 747.07943,565.99698 746.66747,565.76618 746.23291,565.58536 C 746.34734,565.63269 745.98316,565.42429 745.11669,565.19284 C 744.50927,565.03068 743.89904,564.93867 743.31845,564.90439 z M 745.94326,580.13579 C 766.97467,595.29989 788.01917,610.44120 809.02651,625.61913 C 802.45986,627.22841 795.89507,628.83865 789.32729,630.44847 C 787.50774,630.89644 785.99738,632.16010 785.23538,633.87199 C 784.47338,635.58382 784.54530,637.55175 785.43028,639.20343 C 790.91334,649.41629 796.59254,660.18677 804.47744,674.61277 C 799.98531,676.77673 795.53846,678.91830 791.02275,681.09444 C 787.54297,674.53785 775.92664,652.72146 771.99044,645.43532 C 771.14856,643.88067 769.67026,642.77066 767.94240,642.39571 C 766.21463,642.02076 764.40919,642.41822 762.99857,643.48406 C 757.28460,647.80407 751.59167,652.11651 745.89639,656.42649 C 745.89569,652.28959 745.89304,648.15167 745.89256,644.01575 C 745.93378,622.68081 745.83632,601.39584 745.94326,580.13579 z "
         id="path3244" />
      <path
         style="fill:#232341;fill-opacity:1.0000000;fill-rule:evenodd;stroke:none;stroke-width:15.000000;stroke-linecap:round;stroke-linejoin:round;stroke-miterlimit:4.0000000;stroke-opacity:1.0000000;display:inline"
         d="M 742.95860,570.95669 C 742.75296,570.94455 742.54854,570.95162 742.35222,570.97988 C 742.15603,571.00815 741.96580,571.05842 741.78313,571.12333 C 741.60046,571.18823 741.42694,571.27019 741.26211,571.36796 C 741.09725,571.46573 740.94241,571.57771 740.79959,571.70458 C 740.65685,571.83147 740.52736,571.97202 740.41082,572.12422 C 740.29441,572.27644 740.18766,572.43874 740.10164,572.61254 C 740.01571,572.78629 739.94802,572.97442 739.89690,573.16601 C 739.89324,573.65273 739.89269,574.13945 739.88934,574.62620 C 739.72836,597.75567 739.86914,620.88419 739.82450,644.01456 C 739.82520,651.07446 739.82698,658.13599 739.82769,665.19635 C 739.82769,665.49298 739.82431,665.78965 739.82433,666.08628 C 739.82844,666.09885 739.82738,666.11365 739.83177,666.12606 C 739.90015,666.31837 740.00720,666.49072 740.14072,666.64103 C 740.27426,666.79133 740.43282,666.91794 740.61570,667.00842 C 740.79870,667.09889 741.00479,667.15433 741.22113,667.16710 C 741.43757,667.17988 741.64382,667.14879 741.83618,667.08049 C 741.88547,667.06293 741.92171,667.02201 741.96873,666.99978 C 742.02639,666.95875 742.08655,666.89765 742.14376,666.86748 C 742.25518,666.78371 742.36695,666.70058 742.47826,666.61677 C 750.55489,660.53845 758.59149,654.41449 766.65455,648.31851 C 770.89746,656.17219 785.49043,683.55686 787.33048,687.04367 C 788.20664,688.19705 789.35579,688.67279 790.73833,687.96755 C 797.58556,684.66208 804.13986,681.51676 810.98709,678.21130 C 812.19593,677.57636 812.20113,676.30878 811.64287,675.10253 C 802.61889,658.67485 796.74971,647.46946 790.77261,636.33638 C 800.01258,634.07161 809.24987,631.80785 818.48914,629.54368 C 818.90151,629.44266 819.31431,629.34406 819.72658,629.24302 C 819.83764,629.17674 819.96159,629.13178 820.05790,629.04617 C 820.25339,628.87258 820.41466,628.66280 820.53238,628.42501 C 820.59113,628.30611 820.64242,628.18104 820.67746,628.04998 C 820.71243,627.91891 820.73267,627.78130 820.74097,627.64063 C 820.74927,627.49995 820.74539,627.36092 820.72609,627.22664 C 820.70671,627.09237 820.67049,626.96213 820.62615,626.83715 C 820.55015,626.62331 820.42536,626.43647 820.28630,626.26135 C 819.97998,626.03971 819.67295,625.81882 819.36654,625.59720 C 794.62520,607.70125 769.81710,589.87637 745.05512,572.01488 C 744.67453,571.74033 744.29430,571.46469 743.91368,571.19012 C 743.79491,571.14100 743.67919,571.08448 743.55301,571.05078 C 743.36139,570.99962 743.16422,570.96884 742.95860,570.95669 z "
         id="path3246"
         sodipodi:nodetypes="cccccccccccccccccccccccccccccccccccccccc" />
    </g>
    <g
       transform="translate(84.90280,-202.8470)"
       id="g1484">
      <path
         id="path3080"
         d="M 816.57345,1045.4401 L 623.41888,1045.4401 L 623.41888,1045.7657 C 623.41888,1062.8334 637.16772,1076.5731 654.23624,1076.5731 L 785.76472,1076.5731 C 802.83303,1076.5731 816.57345,1062.8334 816.57345,1045.7657 L 816.57345,1045.4401 z "
         style="fill:#ffffff;fill-opacity:1.0000000;fill-rule:evenodd;stroke:none;stroke-width:15.000000;stroke-miterlimit:4.0000000;stroke-dashoffset:0.0000000;stroke-opacity:1.0000000;display:inline" />
      <path
         id="path3082"
         d="M 816.57345,916.31614 L 623.41888,916.31614 L 623.41888,1045.4401 L 816.57345,1045.4401 L 816.57345,916.31614 z "
         style="fill:#ffffff;fill-opacity:1.0000000;fill-rule:evenodd;stroke:none;stroke-width:15.000000;stroke-miterlimit:4.0000000;stroke-dashoffset:0.0000000;stroke-opacity:1.0000000;display:inline" />
      <path
         id="path3084"
         d="M 654.23624,883.42687 C 637.16783,883.42687 623.41888,897.16662 623.41888,914.23432 L 623.41888,916.31614 L 816.57345,916.31614 L 816.57345,914.23432 C 816.57345,897.16662 802.83314,883.42687 785.76472,883.42687 L 654.23624,883.42687 z "
         style="fill:#ffffff;fill-opacity:1.0000000;fill-rule:evenodd;stroke:none;stroke-width:15.000000;stroke-miterlimit:4.0000000;stroke-dashoffset:0.0000000;stroke-opacity:1.0000000;display:inline" />
      <path
         id="path3086"
         d="M 651.68553,896.65284 C 650.44962,896.63535 649.30004,897.28466 648.67695,898.35212 C 648.05386,899.41958 648.05386,900.73981 648.67695,901.80727 C 649.30004,902.87472 650.44962,903.52403 651.68553,903.50655 L 772.65875,903.50655 C 773.89466,903.52403 775.04424,902.87472 775.66733,901.80727 C 776.29031,900.73981 776.29031,899.41958 775.66733,898.35212 C 775.04424,897.28466 773.89466,896.63535 772.65875,896.65284 L 651.68553,896.65284 z "
         style="fill:#000000;fill-opacity:1.0000000;fill-rule:evenodd;stroke:none;stroke-width:25.000000;stroke-linecap:round;stroke-linejoin:round;stroke-miterlimit:4.0000000;stroke-opacity:1.0000000;display:inline" />
      <path
         id="path3088"
         d="M 654.23591,880.00001 C 635.32817,880.00001 620.00009,895.32741 620.00009,914.23432 L 620.00009,1045.7657 C 620.00009,1064.6726 635.32817,1080.0000 654.23591,1080.0000 L 785.76429,1080.0000 C 804.67203,1080.0000 820.00000,1064.6726 820.00011,1045.7657 L 820.00011,914.23432 C 820.00011,895.32741 804.67203,880.00001 785.76429,880.00001 L 654.23591,880.00001 z M 654.23591,886.85373 L 785.76429,886.85373 C 800.24986,886.85373 811.92650,897.85396 813.03467,912.03257 L 626.96542,911.94690 C 628.11358,897.80923 639.77919,886.85373 654.23591,886.85373 z M 626.85407,918.80061 L 716.61589,918.84345 L 716.52169,1042.0732 L 626.85407,1042.0304 L 626.85407,918.80061 z M 723.46987,918.84345 L 813.14613,918.88628 L 813.14613,1042.1161 L 723.37568,1042.0732 L 723.46987,918.84345 z M 627.03405,1048.8841 L 812.94900,1048.9698 C 811.38198,1062.6617 799.90728,1073.1463 785.76429,1073.1463 L 654.23591,1073.1463 C 640.06287,1073.1463 628.56205,1062.6188 627.03405,1048.8841 z "
         style="fill:#000000;fill-opacity:1.0000000;fill-rule:evenodd;stroke:none;stroke-width:25.000000;stroke-linecap:butt;stroke-linejoin:miter;stroke-miterlimit:4.0000000;stroke-dashoffset:0.0000000;stroke-opacity:1.0000000;display:inline" />
      <path
         id="path3090"
         d="M 656.45519,1049.7366 C 655.00325,1049.8071 653.75379,1050.7859 653.33767,1052.1787 C 652.92155,1053.5714 653.42935,1055.0752 654.60461,1055.9306 L 661.19305,1060.8481 L 654.81879,1066.1084 C 653.35909,1067.3149 653.15387,1069.4763 654.36049,1070.9360 C 655.56700,1072.3956 657.72847,1072.6008 659.18828,1071.3943 L 668.92091,1063.3498 C 669.73240,1062.6805 670.19157,1061.6757 670.16655,1060.6241 C 670.14141,1059.5726 669.63492,1058.5909 668.79241,1057.9610 L 658.69993,1050.4391 C 658.05794,1049.9475 657.26285,1049.6986 656.45519,1049.7366 z "
         style="fill:#000000;fill-opacity:1.0000000;fill-rule:evenodd;stroke:none;stroke-width:25.000000;stroke-linecap:round;stroke-linejoin:round;stroke-miterlimit:4.0000000;stroke-opacity:1.0000000;display:inline" />
      <path
         id="path3092"
         d="M 638.27214,935.19546 C 637.82422,935.17798 637.40758,935.82729 637.18176,936.89475 C 636.95593,937.96220 636.95593,939.28244 637.18176,940.34989 C 637.40758,941.41735 637.82422,942.06666 638.27214,942.04918 L 682.11574,942.04918 C 682.56366,942.06666 682.98029,941.41735 683.20612,940.34989 C 683.43191,939.28244 683.43191,937.96220 683.20612,936.89475 C 682.98029,935.82729 682.56366,935.17798 682.11574,935.19546 L 638.27214,935.19546 z "
         style="fill:#000000;fill-opacity:1.0000000;fill-rule:evenodd;stroke:none;stroke-width:25.000000;stroke-linecap:round;stroke-linejoin:round;stroke-miterlimit:4.0000000;stroke-opacity:1.0000000;display:inline" />
      <path
         id="path3094"
         d="M 638.27214,958.24540 C 637.82422,958.22791 637.40758,958.87722 637.18176,959.94468 C 636.95593,961.01214 636.95593,962.33237 637.18176,963.39982 C 637.40758,964.46728 637.82422,965.11659 638.27214,965.09911 L 682.11574,965.09911 C 682.56366,965.11659 682.98029,964.46728 683.20612,963.39982 C 683.43191,962.33237 683.43191,961.01214 683.20612,959.94468 C 682.98029,958.87722 682.56366,958.22791 682.11574,958.24540 L 638.27214,958.24540 z "
         style="fill:#000000;fill-opacity:1.0000000;fill-rule:evenodd;stroke:none;stroke-width:25.000000;stroke-linecap:round;stroke-linejoin:round;stroke-miterlimit:4.0000000;stroke-opacity:1.0000000;display:inline" />
      <path
         id="path3096"
         d="M 638.27214,981.29533 C 637.82422,981.27784 637.40758,981.92715 637.18176,982.99461 C 636.95593,984.06207 636.95593,985.38230 637.18176,986.44976 C 637.40758,987.51721 637.82422,988.16652 638.27214,988.14904 L 682.11574,988.14904 C 682.56366,988.16652 682.98029,987.51721 683.20612,986.44976 C 683.43191,985.38230 683.43191,984.06207 683.20612,982.99461 C 682.98029,981.92715 682.56366,981.27784 682.11574,981.29533 L 638.27214,981.29533 z "
         style="fill:#000000;fill-opacity:1.0000000;fill-rule:evenodd;stroke:none;stroke-width:25.000000;stroke-linecap:round;stroke-linejoin:round;stroke-miterlimit:4.0000000;stroke-opacity:1.0000000;display:inline" />
      <path
         id="path3098"
         d="M 638.27214,1004.3452 C 637.82422,1004.3278 637.40758,1004.9771 637.18176,1006.0445 C 636.95593,1007.1120 636.95593,1008.4322 637.18176,1009.4997 C 637.40758,1010.5671 637.82422,1011.2164 638.27214,1011.1990 L 682.11574,1011.1990 C 682.56366,1011.2164 682.98029,1010.5671 683.20612,1009.4997 C 683.43191,1008.4322 683.43191,1007.1120 683.20612,1006.0445 C 682.98029,1004.9771 682.56366,1004.3278 682.11574,1004.3452 L 638.27214,1004.3452 z "
         style="fill:#000000;fill-opacity:1.0000000;fill-rule:evenodd;stroke:none;stroke-width:25.000000;stroke-linecap:round;stroke-linejoin:round;stroke-miterlimit:4.0000000;stroke-opacity:1.0000000;display:inline" />
      <path
         id="path3100"
         d="M 737.08748,935.19546 C 736.63956,935.17798 736.22293,935.82729 735.99711,936.89475 C 735.77128,937.96220 735.77128,939.28244 735.99711,940.34989 C 736.22293,941.41735 736.63956,942.06666 737.08748,942.04918 L 780.93108,942.04918 C 781.37900,942.06666 781.79564,941.41735 782.02147,940.34989 C 782.24725,939.28244 782.24725,937.96220 782.02147,936.89475 C 781.79564,935.82729 781.37900,935.17798 780.93108,935.19546 L 737.08748,935.19546 z "
         style="fill:#000000;fill-opacity:1.0000000;fill-rule:evenodd;stroke:none;stroke-width:25.000000;stroke-linecap:round;stroke-linejoin:round;stroke-miterlimit:4.0000000;stroke-opacity:1.0000000;display:inline" />
      <path
         id="path3102"
         d="M 737.08748,958.24540 C 736.63956,958.22791 736.22293,958.87722 735.99711,959.94468 C 735.77128,961.01214 735.77128,962.33237 735.99711,963.39982 C 736.22293,964.46728 736.63956,965.11659 737.08748,965.09911 L 780.93108,965.09911 C 781.37900,965.11659 781.79564,964.46728 782.02147,963.39982 C 782.24725,962.33237 782.24725,961.01214 782.02147,959.94468 C 781.79564,958.87722 781.37900,958.22791 780.93108,958.24540 L 737.08748,958.24540 z "
         style="fill:#000000;fill-opacity:1.0000000;fill-rule:evenodd;stroke:none;stroke-width:25.000000;stroke-linecap:round;stroke-linejoin:round;stroke-miterlimit:4.0000000;stroke-opacity:1.0000000;display:inline" />
      <path
         id="path3104"
         d="M 702.04676,925.68602 C 701.46606,925.65172 700.86205,925.66786 700.21941,925.76038 C 699.56545,925.85455 698.98010,926.01067 698.47751,926.18919 C 697.91812,926.38796 697.39045,926.64031 696.89942,926.93148 C 696.42064,927.21542 695.94843,927.55396 695.50243,927.95029 C 695.05758,928.34559 694.66515,928.77490 694.32619,929.21757 C 694.03130,929.60294 693.70019,930.08813 693.39536,930.70444 C 693.09951,931.30267 692.90432,931.86010 692.76442,932.38368 C 692.63312,932.87797 692.56479,933.38688 692.56106,933.89831 C 692.55719,934.41160 692.55376,934.90099 692.55057,935.36354 C 692.38912,958.54579 692.52852,981.68912 692.48385,1004.7870 C 692.48370,1004.7896 692.48355,1004.7921 692.48341,1004.7946 C 692.48418,1011.8551 692.49254,1018.9184 692.49326,1025.9781 C 692.49325,1026.2277 692.48637,1026.5230 692.48643,1026.8664 C 692.48673,1027.5043 692.58774,1028.1383 692.78558,1028.7448 C 692.25999,1027.1330 692.22982,1027.2123 692.84965,1028.9461 C 693.20477,1029.9460 693.74165,1030.7814 694.33491,1031.4491 C 694.92874,1032.1174 695.70301,1032.7566 696.65286,1033.2265 C 697.57505,1033.6825 698.57126,1033.9398 699.59227,1034.0001 C 700.61309,1034.0604 701.66075,1033.9091 702.59469,1033.5774 C 704.56673,1032.8768 704.75486,1032.5686 703.28936,1033.2614 C 703.61392,1033.1100 703.92448,1032.9300 704.21732,1032.7238 C 704.78134,1032.3220 704.74260,1032.3939 704.21821,1032.7087 C 704.32071,1032.6417 704.42103,1032.5716 704.51923,1032.4986 C 704.61319,1032.4279 704.72456,1032.3417 704.85323,1032.2449 C 711.05447,1027.5780 717.21298,1022.8979 723.37875,1018.2244 C 729.22604,1029.1347 739.20272,1047.8243 740.69547,1050.6530 C 740.85026,1050.9487 741.02919,1051.2310 741.23047,1051.4973 C 742.19822,1052.7712 743.66033,1054.1274 745.79126,1054.7819 C 747.92220,1055.4364 750.43479,1055.0642 752.22387,1054.1516 C 759.06313,1050.8500 765.49950,1047.7658 772.35481,1044.4564 C 772.41545,1044.4256 772.47555,1044.3936 772.53513,1044.3607 C 774.60769,1043.2722 776.37320,1040.7638 776.70576,1038.5613 C 777.03838,1036.3587 776.49701,1034.6843 775.87482,1033.3399 C 775.81569,1033.2124 775.75218,1033.0871 775.68436,1032.9641 C 768.47031,1019.8313 763.39313,1010.2709 758.52864,1001.1526 C 765.23972,999.50784 771.94801,997.86431 778.65937,996.21963 C 779.04875,996.12423 779.46489,996.01991 779.90037,995.91316 C 780.48603,995.77165 781.04733,995.54370 781.56582,995.23679 C 781.00842,995.56934 781.57866,995.46241 782.81754,994.36132 C 783.58742,993.67741 784.22853,992.83975 784.69484,991.89740 C 784.88133,991.52024 785.10168,991.02567 785.26959,990.39713 C 785.42720,989.80673 785.49585,989.26591 785.52458,988.77923 C 785.55325,988.29382 785.54911,987.74894 785.46178,987.14256 C 785.36899,986.49929 785.20772,985.98870 785.06718,985.59261 C 784.66303,984.45522 784.11573,983.70460 783.76894,983.26780 C 783.42275,982.83404 783.01858,982.44982 782.56795,982.12595 C 782.25290,981.89805 781.94784,981.67958 781.64998,981.46413 C 756.89825,963.56066 732.08894,945.73127 707.33310,927.87418 C 706.96021,927.60523 706.57733,927.33487 706.18903,927.05471 C 705.80774,926.77861 705.39578,926.54782 704.96123,926.36699 C 705.07565,926.41432 704.71148,926.20593 703.84501,925.97448 C 703.23758,925.81232 702.62736,925.72030 702.04676,925.68602 z M 704.67158,940.91742 C 725.70299,956.08153 746.74749,971.22282 767.75484,986.40076 C 761.18819,988.01004 754.62339,989.62028 748.05562,991.23010 C 746.23606,991.67807 744.72570,992.94174 743.96370,994.65362 C 743.20170,996.36546 743.27362,998.33338 744.15860,999.98505 C 749.64166,1010.1979 755.32086,1020.9684 763.20576,1035.3944 C 758.71363,1037.5584 754.26678,1039.6999 749.75106,1041.8761 C 746.27129,1035.3195 734.65497,1013.5031 730.71876,1006.2169 C 729.87687,1004.6623 728.39858,1003.5523 726.67071,1003.1773 C 724.94295,1002.8024 723.13751,1003.1998 721.72689,1004.2657 C 716.01291,1008.5857 710.31999,1012.8981 704.62470,1017.2081 C 704.62400,1013.0712 704.62135,1008.9333 704.62088,1004.7974 C 704.66209,983.46244 704.56463,962.17748 704.67158,940.91742 z "
         style="fill:#ffffff;fill-opacity:1.0000000;fill-rule:evenodd;stroke:none;stroke-width:50.000000;stroke-linecap:round;stroke-linejoin:round;stroke-miterlimit:4.0000000;stroke-opacity:1.0000000;display:inline" />
      <path
         sodipodi:nodetypes="cccccccccccccccccccccccccccccccccccccccc"
         id="path3106"
         d="M 701.68692,931.73833 C 701.48128,931.72618 701.27685,931.73326 701.08053,931.76152 C 700.88434,931.78979 700.69411,931.84006 700.51145,931.90497 C 700.32877,931.96986 700.15526,932.05183 699.99042,932.14960 C 699.82557,932.24737 699.67072,932.35934 699.52790,932.48621 C 699.38516,932.61311 699.25567,932.75365 699.13913,932.90587 C 699.02273,933.05808 698.91597,933.22038 698.82996,933.39418 C 698.74402,933.56793 698.67633,933.75606 698.62521,933.94765 C 698.62155,934.43437 698.62100,934.92109 698.61765,935.40783 C 698.45668,958.53731 698.59745,981.66582 698.55281,1004.7962 C 698.55352,1011.8561 698.55529,1018.9176 698.55599,1025.9780 C 698.55600,1026.2746 698.55262,1026.5713 698.55265,1026.8679 C 698.55676,1026.8805 698.55569,1026.8953 698.56008,1026.9077 C 698.62846,1027.1000 698.73551,1027.2723 698.86902,1027.4227 C 699.00257,1027.5730 699.16114,1027.6996 699.34402,1027.7901 C 699.52702,1027.8805 699.73310,1027.9360 699.94944,1027.9487 C 700.16589,1027.9615 700.37213,1027.9304 700.56450,1027.8621 C 700.61378,1027.8446 700.65002,1027.8036 700.69705,1027.7814 C 700.75470,1027.7404 700.81487,1027.6793 700.87207,1027.6491 C 700.98350,1027.5653 701.09526,1027.4822 701.20657,1027.3984 C 709.28321,1021.3201 717.31980,1015.1961 725.38288,1009.1001 C 729.62578,1016.9538 744.21876,1044.3385 746.05881,1047.8253 C 746.93497,1048.9787 748.08412,1049.4544 749.46665,1048.7492 C 756.31388,1045.4437 762.86819,1042.2984 769.71541,1038.9929 C 770.92426,1038.3580 770.92946,1037.0904 770.37120,1035.8842 C 761.34722,1019.4565 755.47803,1008.2511 749.50092,997.11801 C 758.74091,994.85323 767.97819,992.58948 777.21746,990.32531 C 777.62983,990.22429 778.04264,990.12568 778.45490,990.02464 C 778.56597,989.95837 778.68991,989.91341 778.78623,989.82781 C 778.98171,989.65421 779.14299,989.44443 779.26070,989.20664 C 779.31946,989.08774 779.37074,988.96268 779.40578,988.83161 C 779.44075,988.70054 779.46099,988.56293 779.46930,988.42226 C 779.47760,988.28158 779.47371,988.14255 779.45441,988.00828 C 779.43503,987.87400 779.39882,987.74376 779.35447,987.61878 C 779.27847,987.40495 779.15368,987.21811 779.01463,987.04298 C 778.70830,986.82134 778.40127,986.60045 778.09486,986.37883 C 753.35352,968.48288 728.54541,950.65801 703.78344,932.79652 C 703.40285,932.52197 703.02261,932.24633 702.64199,931.97175 C 702.52322,931.92264 702.40750,931.86612 702.28133,931.83242 C 702.08970,931.78125 701.89254,931.75047 701.68692,931.73833 z "
         style="fill:#000000;fill-opacity:1.0000000;fill-rule:evenodd;stroke:none;stroke-width:15.000000;stroke-linecap:round;stroke-linejoin:round;stroke-miterlimit:4.0000000;stroke-opacity:1.0000000;display:inline" />
    </g>
    <g
       transform="translate(-294.0000,138.0000)"
       id="g1514">
      <path
         id="path3052"
         d="M 1195.4762,1000.1540 L 1002.3217,1000.1540 L 1002.3217,1000.4795 C 1002.3217,1017.5473 1016.0705,1031.2870 1033.1390,1031.2870 L 1164.6675,1031.2870 C 1181.7358,1031.2870 1195.4762,1017.5473 1195.4762,1000.4795 L 1195.4762,1000.1540 z "
         style="fill:#afafaf;fill-opacity:1.0000000;fill-rule:evenodd;stroke:none;stroke-width:15.000000;stroke-miterlimit:4.0000000;stroke-dashoffset:0.0000000;stroke-opacity:1.0000000;display:inline" />
      <path
         id="path3054"
         d="M 1195.4762,871.02999 L 1002.3217,871.02999 L 1002.3217,1000.1540 L 1195.4762,1000.1540 L 1195.4762,871.02999 z "
         style="fill:#d2d2d2;fill-opacity:1.0000000;fill-rule:evenodd;stroke:none;stroke-width:15.000000;stroke-miterlimit:4.0000000;stroke-dashoffset:0.0000000;stroke-opacity:1.0000000;display:inline" />
      <path
         id="path3056"
         d="M 1033.1390,838.14072 C 1016.0706,838.14072 1002.3217,851.88046 1002.3217,868.94818 L 1002.3217,871.02999 L 1195.4762,871.02999 L 1195.4762,868.94818 C 1195.4762,851.88046 1181.7359,838.14072 1164.6675,838.14072 L 1033.1390,838.14072 z "
         style="fill:#afafaf;fill-opacity:1.0000000;fill-rule:evenodd;stroke:none;stroke-width:15.000000;stroke-miterlimit:4.0000000;stroke-dashoffset:0.0000000;stroke-opacity:1.0000000;display:inline" />
      <path
         id="path3058"
         d="M 1030.5883,851.36669 C 1029.3524,851.34920 1028.2028,851.99852 1027.5797,853.06597 C 1026.9567,854.13343 1026.9567,855.45366 1027.5797,856.52112 C 1028.2028,857.58857 1029.3524,858.23789 1030.5883,858.22040 L 1151.5615,858.22040 C 1152.7974,858.23789 1153.9470,857.58857 1154.5701,856.52112 C 1155.1931,855.45366 1155.1931,854.13343 1154.5701,853.06597 C 1153.9470,851.99852 1152.7974,851.34920 1151.5615,851.36669 L 1030.5883,851.36669 z "
         style="fill:#414141;fill-opacity:1.0000000;fill-rule:evenodd;stroke:none;stroke-width:25.000000;stroke-linecap:round;stroke-linejoin:round;stroke-miterlimit:4.0000000;stroke-opacity:1.0000000;display:inline" />
      <path
         id="path3060"
         d="M 1033.1387,834.71386 C 1014.2310,834.71386 998.90289,850.04126 998.90289,868.94818 L 998.90289,1000.4795 C 998.90289,1019.3864 1014.2310,1034.7139 1033.1387,1034.7139 L 1164.6671,1034.7139 C 1183.5748,1034.7139 1198.9028,1019.3864 1198.9029,1000.4795 L 1198.9029,868.94818 C 1198.9029,850.04126 1183.5748,834.71386 1164.6671,834.71386 L 1033.1387,834.71386 z M 1033.1387,841.56758 L 1164.6671,841.56758 C 1179.1526,841.56758 1190.8293,852.56781 1191.9374,866.74642 L 1005.8682,866.66074 C 1007.0164,852.52307 1018.6820,841.56758 1033.1387,841.56758 z M 1005.7569,873.51447 L 1095.5187,873.55730 L 1095.4245,996.78710 L 1005.7569,996.74427 L 1005.7569,873.51447 z M 1102.3727,873.55730 L 1192.0489,873.60012 L 1192.0489,996.82994 L 1102.2785,996.78710 L 1102.3727,873.55730 z M 1005.9368,1003.5980 L 1191.8518,1003.6837 C 1190.2847,1017.3756 1178.8100,1027.8601 1164.6671,1027.8601 L 1033.1387,1027.8601 C 1018.9657,1027.8601 1007.4648,1017.3327 1005.9368,1003.5980 z "
         style="fill:#232323;fill-opacity:1.0000000;fill-rule:evenodd;stroke:none;stroke-width:25.000000;stroke-linecap:butt;stroke-linejoin:miter;stroke-miterlimit:4.0000000;stroke-dashoffset:0.0000000;stroke-opacity:1.0000000;display:inline" />
      <path
         id="path3062"
         d="M 1035.3580,1004.4504 C 1033.9060,1004.5210 1032.6566,1005.4998 1032.2405,1006.8925 C 1031.8243,1008.2853 1032.3321,1009.7890 1033.5074,1010.6445 L 1040.0958,1015.5620 L 1033.7216,1020.8222 C 1032.2619,1022.0288 1032.0567,1024.1901 1033.2633,1025.6498 C 1034.4698,1027.1095 1036.6313,1027.3147 1038.0911,1026.1082 L 1047.8237,1018.0636 C 1048.6352,1017.3943 1049.0944,1016.3895 1049.0693,1015.3380 C 1049.0442,1014.2865 1048.5377,1013.3047 1047.6952,1012.6749 L 1037.6027,1005.1529 C 1036.9607,1004.6613 1036.1656,1004.4125 1035.3580,1004.4504 z "
         style="fill:#414141;fill-opacity:1.0000000;fill-rule:evenodd;stroke:none;stroke-width:25.000000;stroke-linecap:round;stroke-linejoin:round;stroke-miterlimit:4.0000000;stroke-opacity:1.0000000;display:inline" />
      <path
         id="path3064"
         d="M 1017.1749,889.90932 C 1016.7270,889.89184 1016.3104,890.54115 1016.0846,891.60860 C 1015.8587,892.67606 1015.8587,893.99628 1016.0846,895.06375 C 1016.3104,896.13121 1016.7270,896.78050 1017.1749,896.76303 L 1061.0185,896.76303 C 1061.4664,896.78050 1061.8831,896.13121 1062.1089,895.06375 C 1062.3347,893.99628 1062.3347,892.67606 1062.1089,891.60860 C 1061.8831,890.54115 1061.4664,889.89184 1061.0185,889.90932 L 1017.1749,889.90932 z "
         style="fill:#414141;fill-opacity:1.0000000;fill-rule:evenodd;stroke:none;stroke-width:25.000000;stroke-linecap:round;stroke-linejoin:round;stroke-miterlimit:4.0000000;stroke-opacity:1.0000000;display:inline" />
      <path
         id="path3066"
         d="M 1017.1749,912.95925 C 1016.7270,912.94176 1016.3104,913.59108 1016.0846,914.65853 C 1015.8587,915.72599 1015.8587,917.04622 1016.0846,918.11368 C 1016.3104,919.18113 1016.7270,919.83045 1017.1749,919.81296 L 1061.0185,919.81296 C 1061.4664,919.83045 1061.8831,919.18113 1062.1089,918.11368 C 1062.3347,917.04622 1062.3347,915.72599 1062.1089,914.65853 C 1061.8831,913.59108 1061.4664,912.94176 1061.0185,912.95925 L 1017.1749,912.95925 z "
         style="fill:#414141;fill-opacity:1.0000000;fill-rule:evenodd;stroke:none;stroke-width:25.000000;stroke-linecap:round;stroke-linejoin:round;stroke-miterlimit:4.0000000;stroke-opacity:1.0000000;display:inline" />
      <path
         id="path3068"
         d="M 1017.1749,936.00918 C 1016.7270,935.99171 1016.3104,936.64101 1016.0846,937.70846 C 1015.8587,938.77593 1015.8587,940.09615 1016.0846,941.16361 C 1016.3104,942.23106 1016.7270,942.88038 1017.1749,942.86290 L 1061.0185,942.86290 C 1061.4664,942.88038 1061.8831,942.23106 1062.1089,941.16361 C 1062.3347,940.09615 1062.3347,938.77593 1062.1089,937.70846 C 1061.8831,936.64101 1061.4664,935.99171 1061.0185,936.00918 L 1017.1749,936.00918 z "
         style="fill:#414141;fill-opacity:1.0000000;fill-rule:evenodd;stroke:none;stroke-width:25.000000;stroke-linecap:round;stroke-linejoin:round;stroke-miterlimit:4.0000000;stroke-opacity:1.0000000;display:inline" />
      <path
         id="path3070"
         d="M 1017.1749,959.05911 C 1016.7270,959.04162 1016.3104,959.69093 1016.0846,960.75839 C 1015.8587,961.82584 1015.8587,963.14608 1016.0846,964.21354 C 1016.3104,965.28099 1016.7270,965.93030 1017.1749,965.91282 L 1061.0185,965.91282 C 1061.4664,965.93030 1061.8831,965.28099 1062.1089,964.21354 C 1062.3347,963.14608 1062.3347,961.82584 1062.1089,960.75839 C 1061.8831,959.69093 1061.4664,959.04162 1061.0185,959.05911 L 1017.1749,959.05911 z "
         style="fill:#414141;fill-opacity:1.0000000;fill-rule:evenodd;stroke:none;stroke-width:25.000000;stroke-linecap:round;stroke-linejoin:round;stroke-miterlimit:4.0000000;stroke-opacity:1.0000000;display:inline" />
      <path
         id="path3072"
         d="M 1115.9903,889.90932 C 1115.5423,889.89184 1115.1257,890.54115 1114.8999,891.60860 C 1114.6741,892.67606 1114.6741,893.99628 1114.8999,895.06375 C 1115.1257,896.13121 1115.5423,896.78050 1115.9903,896.76303 L 1159.8339,896.76303 C 1160.2818,896.78050 1160.6984,896.13121 1160.9242,895.06375 C 1161.1500,893.99628 1161.1500,892.67606 1160.9242,891.60860 C 1160.6984,890.54115 1160.2818,889.89184 1159.8339,889.90932 L 1115.9903,889.90932 z "
         style="fill:#414141;fill-opacity:1.0000000;fill-rule:evenodd;stroke:none;stroke-width:25.000000;stroke-linecap:round;stroke-linejoin:round;stroke-miterlimit:4.0000000;stroke-opacity:1.0000000;display:inline" />
      <path
         id="path3074"
         d="M 1115.9903,912.95925 C 1115.5423,912.94176 1115.1257,913.59108 1114.8999,914.65853 C 1114.6741,915.72599 1114.6741,917.04622 1114.8999,918.11368 C 1115.1257,919.18113 1115.5423,919.83045 1115.9903,919.81296 L 1159.8339,919.81296 C 1160.2818,919.83045 1160.6984,919.18113 1160.9242,918.11368 C 1161.1500,917.04622 1161.1500,915.72599 1160.9242,914.65853 C 1160.6984,913.59108 1160.2818,912.94176 1159.8339,912.95925 L 1115.9903,912.95925 z "
         style="fill:#414141;fill-opacity:1.0000000;fill-rule:evenodd;stroke:none;stroke-width:25.000000;stroke-linecap:round;stroke-linejoin:round;stroke-miterlimit:4.0000000;stroke-opacity:1.0000000;display:inline" />
      <path
         id="path3076"
         d="M 1080.9730,880.39987 C 1080.3923,880.36558 1079.7883,880.38171 1079.1457,880.47424 C 1078.4917,880.56841 1077.9064,880.72452 1077.4038,880.90305 C 1076.8444,881.10181 1076.3167,881.35416 1075.8257,881.64533 C 1075.3469,881.92927 1074.8747,882.26781 1074.4287,882.66415 C 1073.9839,883.05944 1073.5914,883.48875 1073.2525,883.93142 C 1072.9576,884.31678 1072.6265,884.80199 1072.3216,885.41829 C 1072.0258,886.01651 1071.8306,886.57396 1071.6907,887.09753 C 1071.5594,887.59182 1071.4911,888.10073 1071.4873,888.61215 C 1071.4835,889.12545 1071.4800,889.61485 1071.4768,890.07740 C 1071.3154,913.25965 1071.4548,936.40298 1071.4101,959.50089 C 1071.4100,959.50343 1071.4098,959.50594 1071.4097,959.50847 C 1071.4105,966.56897 1071.4188,973.63226 1071.4195,980.69199 C 1071.4195,980.94156 1071.4126,981.23684 1071.4127,981.58022 C 1071.4130,982.21820 1071.5140,982.85219 1071.7119,983.45870 C 1071.1863,981.84684 1071.1561,981.92616 1071.7759,983.65996 C 1072.1310,984.65983 1072.6679,985.49521 1073.2612,986.16291 C 1073.8550,986.83129 1074.6293,987.47049 1075.5791,987.94035 C 1076.5013,988.39633 1077.4975,988.65366 1078.5186,988.71396 C 1079.5394,988.77423 1080.5870,988.62293 1081.5210,988.29122 C 1083.4930,987.59069 1083.6811,987.28247 1082.2156,987.97527 C 1082.5402,987.82382 1082.8508,987.64388 1083.1436,987.43763 C 1083.7076,987.03587 1083.6689,987.10771 1083.1445,987.42251 C 1083.2470,987.35555 1083.3473,987.28547 1083.4455,987.21242 C 1083.5395,987.14174 1083.6508,987.05553 1083.7795,986.95872 C 1089.9807,982.29184 1096.1393,977.61181 1102.3050,972.93828 C 1108.1523,983.84858 1118.1290,1002.5381 1119.6217,1005.3668 C 1119.7765,1005.6625 1119.9555,1005.9449 1120.1567,1006.2111 C 1121.1245,1007.4851 1122.5866,1008.8412 1124.7175,1009.4957 C 1126.8485,1010.1502 1129.3611,1009.7781 1131.1501,1008.8654 C 1137.9894,1005.5638 1144.4258,1002.4797 1151.2811,999.17029 C 1151.3417,999.13941 1151.4018,999.10749 1151.4614,999.07459 C 1153.5340,997.98609 1155.2995,995.47770 1155.6320,993.27511 C 1155.9646,991.07255 1155.4233,989.39821 1154.8011,988.05375 C 1154.7420,987.92631 1154.6784,987.80098 1154.6106,987.67793 C 1147.3966,974.54512 1142.3194,964.98472 1137.4549,955.86648 C 1144.1660,954.22170 1150.8743,952.57818 1157.5856,950.93349 C 1157.9750,950.83808 1158.3912,950.73376 1158.8266,950.62702 C 1159.4123,950.48551 1159.9736,950.25756 1160.4921,949.95064 C 1159.9347,950.28320 1160.5049,950.17626 1161.7438,949.07518 C 1162.5137,948.39127 1163.1548,947.55361 1163.6211,946.61126 C 1163.8076,946.23410 1164.0279,945.73953 1164.1959,945.11099 C 1164.3535,944.52059 1164.4221,943.97976 1164.4509,943.49309 C 1164.4795,943.00769 1164.4754,942.46280 1164.3880,941.85641 C 1164.2952,941.21314 1164.1340,940.70255 1163.9934,940.30647 C 1163.5893,939.16908 1163.0420,938.41846 1162.6952,937.98165 C 1162.3490,937.54790 1161.9448,937.16367 1161.4942,936.83981 C 1161.1792,936.61191 1160.8741,936.39344 1160.5762,936.17799 C 1135.8245,918.27452 1111.0152,900.44512 1086.2594,882.58804 C 1085.8865,882.31909 1085.5036,882.04872 1085.1153,881.76856 C 1084.7340,881.49247 1084.3221,881.26167 1083.8875,881.08083 C 1084.0019,881.12818 1083.6377,880.91978 1082.7713,880.68833 C 1082.1639,880.52617 1081.5536,880.43416 1080.9730,880.39987 z M 1083.5978,895.63128 C 1104.6293,910.79538 1125.6738,925.93667 1146.6811,941.11462 C 1140.1145,942.72390 1133.5497,944.33414 1126.9819,945.94396 C 1125.1623,946.39193 1123.6520,947.65559 1122.8900,949.36748 C 1122.1280,951.07931 1122.1999,953.04724 1123.0849,954.69892 C 1128.5679,964.91178 1134.2471,975.68226 1142.1320,990.10826 C 1137.6399,992.27222 1133.1930,994.41380 1128.6773,996.58992 C 1125.1976,990.03334 1113.5812,968.21695 1109.6450,960.93080 C 1108.8031,959.37616 1107.3248,958.26615 1105.5970,957.89120 C 1103.8692,957.51625 1102.0638,957.91371 1100.6532,958.97955 C 1094.9392,963.29956 1089.2463,967.61200 1083.5510,971.92198 C 1083.5503,967.78508 1083.5476,963.64716 1083.5471,959.51124 C 1083.5884,938.17630 1083.4909,916.89133 1083.5978,895.63128 z "
         style="fill:#ffffff;fill-opacity:1.0000000;fill-rule:evenodd;stroke:none;stroke-width:50.000000;stroke-linecap:round;stroke-linejoin:round;stroke-miterlimit:4.0000000;stroke-opacity:1.0000000;display:inline" />
      <path
         sodipodi:nodetypes="cccccccccccccccccccccccccccccccccccccccc"
         id="path3078"
         d="M 1080.6132,886.45218 C 1080.4075,886.44003 1080.2031,886.44711 1080.0068,886.47537 C 1079.8106,886.50364 1079.6204,886.55392 1079.4377,886.61882 C 1079.2550,886.68372 1079.0815,886.76568 1078.9167,886.86345 C 1078.7518,886.96122 1078.5970,887.07318 1078.4542,887.20006 C 1078.3114,887.32696 1078.1819,887.46751 1078.0654,887.61972 C 1077.9490,887.77193 1077.8422,887.93423 1077.7562,888.10803 C 1077.6703,888.28178 1077.6026,888.46991 1077.5515,888.66149 C 1077.5478,889.14822 1077.5473,889.63494 1077.5439,890.12169 C 1077.3829,913.25116 1077.5237,936.37968 1077.4791,959.51005 C 1077.4798,966.56996 1077.4816,973.63149 1077.4823,980.69182 C 1077.4823,980.98846 1077.4789,981.28514 1077.4789,981.58178 C 1077.4830,981.59434 1077.4820,981.60914 1077.4864,981.62155 C 1077.5547,981.81386 1077.6618,981.98622 1077.7953,982.13652 C 1077.9288,982.28682 1078.0874,982.41343 1078.2703,982.50391 C 1078.4533,982.59438 1078.6594,982.64981 1078.8757,982.66260 C 1079.0922,982.67537 1079.2984,982.64428 1079.4908,982.57598 C 1079.5401,982.55842 1079.5763,982.51750 1079.6233,982.49527 C 1079.6810,982.45424 1079.7411,982.39314 1079.7983,982.36297 C 1079.9098,982.27921 1080.0215,982.19606 1080.1328,982.11226 C 1088.2095,976.03395 1096.2461,969.90998 1104.3091,963.81399 C 1108.5520,971.66768 1123.1450,999.05235 1124.9851,1002.5392 C 1125.8612,1003.6925 1127.0104,1004.1683 1128.3929,1003.4630 C 1135.2401,1000.1576 1141.7945,997.01226 1148.6417,993.70679 C 1149.8505,993.07183 1149.8557,991.80427 1149.2975,990.59802 C 1140.2735,974.17035 1134.4043,962.96495 1128.4272,951.83186 C 1137.6672,949.56709 1146.9045,947.30334 1156.1437,945.03917 C 1156.5561,944.93815 1156.9689,944.83954 1157.3812,944.73849 C 1157.4922,944.67223 1157.6162,944.62727 1157.7125,944.54167 C 1157.9080,944.36808 1158.0692,944.15829 1158.1870,943.92050 C 1158.2457,943.80160 1158.2970,943.67654 1158.3321,943.54547 C 1158.3670,943.41440 1158.3873,943.27679 1158.3956,943.13612 C 1158.4039,942.99544 1158.4000,942.85641 1158.3807,942.72213 C 1158.3613,942.58786 1158.3251,942.45762 1158.2807,942.33264 C 1158.2047,942.11880 1158.0799,941.93196 1157.9409,941.75684 C 1157.6346,941.53520 1157.3275,941.31431 1157.0211,941.09269 C 1132.2798,923.19674 1107.4717,905.37186 1082.7097,887.51037 C 1082.3291,887.23582 1081.9489,886.96018 1081.5683,886.68560 C 1081.4495,886.63649 1081.3338,886.57997 1081.2076,886.54627 C 1081.0160,886.49510 1080.8188,886.46432 1080.6132,886.45218 z "
         style="fill:#232323;fill-opacity:1.0000000;fill-rule:evenodd;stroke:none;stroke-width:15.000000;stroke-linecap:round;stroke-linejoin:round;stroke-miterlimit:4.0000000;stroke-opacity:1.0000000;display:inline" />
    </g>
  </g>
</svg>
