<?xml version="1.0" encoding="UTF-8" standalone="no"?>
<!-- Created with Inkscape (http://www.inkscape.org/) -->
<svg
   xmlns:dc="http://purl.org/dc/elements/1.1/"
   xmlns:cc="http://web.resource.org/cc/"
   xmlns:rdf="http://www.w3.org/1999/02/22-rdf-syntax-ns#"
   xmlns:svg="http://www.w3.org/2000/svg"
   xmlns="http://www.w3.org/2000/svg"
   xmlns:xlink="http://www.w3.org/1999/xlink"
   xmlns:sodipodi="http://inkscape.sourceforge.net/DTD/sodipodi-0.dtd"
   xmlns:inkscape="http://www.inkscape.org/namespaces/inkscape"
   sodipodi:docname="snapback.svg"
   sodipodi:docbase="/data/personal/vector/krusader"
   inkscape:export-ydpi="33.750000"
   inkscape:export-xdpi="33.750000"
   inkscape:export-filename="/home/jw/jumpback_24.png"
   inkscape:version="0.41"
   sodipodi:version="0.32"
   id="svg6853"
   height="64.000000px"
   width="64.000000px">
  <defs
     id="defs3">
    <linearGradient
       id="linearGradient14470">
      <stop
         id="stop14472"
         offset="0.0000000"
         style="stop-color:#ffffff;stop-opacity:1.0000000;" />
      <stop
         id="stop14474"
         offset="1"
         style="stop-color:#ffffff;stop-opacity:0;" />
    </linearGradient>
    <linearGradient
       id="linearGradient9897">
      <stop
         id="stop9899"
         offset="0"
         style="stop-color:#2060b0;stop-opacity:1;" />
      <stop
         id="stop9901"
         offset="1.0000000"
         style="stop-color:#9cc5f8;stop-opacity:1.0000000;" />
    </linearGradient>
    <linearGradient
       gradientUnits="userSpaceOnUse"
       y2="48.014664"
       x2="24.005852"
       y1="21.869793"
       x1="24.005852"
       id="linearGradient9907"
       xlink:href="#linearGradient9897"
       inkscape:collect="always" />
    <linearGradient
       gradientUnits="userSpaceOnUse"
       y2="8.6474829"
       x2="7.6345701"
       y1="-2.7465270"
       x1="3.3693459"
       gradientTransform="scale(1.360701,0.734915)"
       id="linearGradient14476"
       xlink:href="#linearGradient14470"
       inkscape:collect="always" />
  </defs>
  <sodipodi:namedview
     inkscape:window-y="0"
     inkscape:window-x="0"
     inkscape:window-height="768"
     inkscape:window-width="1024"
     inkscape:grid-bbox="true"
     inkscape:document-units="px"
     showgrid="true"
     inkscape:current-layer="layer1"
     inkscape:cy="31.994453"
     inkscape:cx="42.104178"
     inkscape:zoom="8.0000000"
     inkscape:pageshadow="2"
     inkscape:pageopacity="0.0"
     borderopacity="1.0"
     bordercolor="#666666"
     pagecolor="#ffffff"
     id="base" />
  <metadata
     id="metadata4">
    <rdf:RDF
       id="RDF5">
      <cc:Work
         id="Work6"
         rdf:about="">
        <dc:format
           id="format7">image/svg+xml</dc:format>
        <dc:type
           rdf:resource="http://purl.org/dc/dcmitype/StillImage"
           id="type9" />
      </cc:Work>
    </rdf:RDF>
  </metadata>
  <g
     inkscape:groupmode="layer"
     inkscape:label="Layer 1"
     id="layer1">
    <path
       transform="matrix(1.299129,0.000000,0.000000,1.299115,-2.188725,-2.070356)"
       d="M 48.636364 26.227272 A 22.318182 22.318182 0 1 1  4.0000000,26.227272 A 22.318182 22.318182 0 1 1  48.636364 26.227272 z"
       sodipodi:ry="22.318182"
       sodipodi:rx="22.318182"
       sodipodi:cy="26.227272"
       sodipodi:cx="26.318182"
       id="path6863"
       style="fill:url(#linearGradient9907);fill-opacity:1.0000000;fill-rule:nonzero;stroke:#2060b0;stroke-width:1.5395015;stroke-linejoin:bevel;stroke-miterlimit:4.0000000;stroke-dashoffset:0.0000000;stroke-opacity:1.0000000"
       sodipodi:type="arc" />
    <path
       transform="matrix(0.268839,0.000000,0.000000,0.268839,24.92465,24.94909)"
       d="M 48.636364 26.227272 A 22.318182 22.318182 0 1 1  4.0000000,26.227272 A 22.318182 22.318182 0 1 1  48.636364 26.227272 z"
       sodipodi:ry="22.318182"
       sodipodi:rx="22.318182"
       sodipodi:cy="26.227272"
       sodipodi:cx="26.318182"
       id="path15998"
       style="fill:#ffffff;fill-opacity:1.0000000;fill-rule:nonzero;stroke:none;stroke-width:48.237072;stroke-linejoin:bevel;stroke-miterlimit:4.0000000;stroke-dashoffset:0.0000000;stroke-opacity:1.0000000"
       sodipodi:type="arc" />
    <path
       transform="matrix(0.770194,0.000000,0.000000,0.770194,11.79267,11.86268)"
       d="M 48.636364 26.227272 A 22.318182 22.318182 0 1 1  4.0000000,26.227272 A 22.318182 22.318182 0 1 1  48.636364 26.227272 z"
       sodipodi:ry="22.318182"
       sodipodi:rx="22.318182"
       sodipodi:cy="26.227272"
       sodipodi:cx="26.318182"
       id="path14478"
       style="fill:none;fill-opacity:1.0000000;fill-rule:nonzero;stroke:#ffffff;stroke-width:7.7902527;stroke-linejoin:bevel;stroke-miterlimit:4.0000000;stroke-dashoffset:0.0000000;stroke-opacity:1.0000000"
       sodipodi:type="arc" />
    <path
       sodipodi:nodetypes="cccssscsssc"
       id="path12944"
       d="M -261.95000,36.950003 C -261.95000,52.406004 -274.49400,64.950007 -289.95000,64.950007 C -305.40600,64.950007 -317.95000,52.406004 -317.95000,36.950003 C -317.95000,33.086003 -317.16600,29.404003 -315.74850,26.054502 C -314.33100,22.705002 -312.28000,19.688002 -309.74600,17.154001 C -307.21200,14.620001 -304.19500,12.569000 -300.84550,11.151500 C -297.49600,9.7340001 -293.81400,8.9500000 -289.95000,8.9500000 C -286.08600,8.9500000 -282.40400,9.7340001 -279.05450,11.151500 C -275.70500,12.569000 -272.68800,14.620001 -270.15400,17.154001 C -267.62000,19.688002 -265.56900,22.705002 -264.15150,26.054502 C -262.73400,29.404003 -261.95000,33.086003 -261.95000,36.950003 z "
       style="fill:#ffffff;fill-opacity:0.63492066;fill-rule:nonzero;stroke:#000000;stroke-width:1.9000000;stroke-linejoin:bevel;stroke-miterlimit:4.0000000;stroke-dasharray:1.9000000 1.9000000 ;stroke-dashoffset:0.0000000;stroke-opacity:1.0000000" />
    <path
       transform="matrix(0.936172,0.000000,0.000000,0.934310,7.251698,7.550563)"
       d="M 48.636364 26.227272 A 22.318182 22.318182 0 1 1  4.0000000,26.227272 A 22.318182 22.318182 0 1 1  48.636364 26.227272 z"
       sodipodi:ry="22.318182"
       sodipodi:rx="22.318182"
       sodipodi:cy="26.227272"
       sodipodi:cx="26.318182"
       id="path18276"
       style="fill:none;fill-opacity:1.0000000;fill-rule:nonzero;stroke:#2060b0;stroke-width:2.1384861;stroke-linejoin:bevel;stroke-miterlimit:4.0000000;stroke-dashoffset:0.0000000;stroke-opacity:1.0000000"
       sodipodi:type="arc" />
    <path
       transform="matrix(0.593442,0.000000,0.000000,0.592261,16.27535,16.31870)"
       d="M 48.636364 26.227272 A 22.318182 22.318182 0 1 1  4.0000000,26.227272 A 22.318182 22.318182 0 1 1  48.636364 26.227272 z"
       sodipodi:ry="22.318182"
       sodipodi:rx="22.318182"
       sodipodi:cy="26.227272"
       sodipodi:cx="26.318182"
       id="path19036"
       style="fill:none;fill-opacity:1.0000000;fill-rule:nonzero;stroke:#2060b0;stroke-width:3.3735254;stroke-linejoin:bevel;stroke-miterlimit:4.0000000;stroke-dashoffset:0.0000000;stroke-opacity:1.0000000"
       sodipodi:type="arc" />
    <path
       transform="matrix(0.317039,0.000000,0.000000,0.315867,23.65612,23.74462)"
       d="M 48.636364 26.227272 A 22.318182 22.318182 0 1 1  4.0000000,26.227272 A 22.318182 22.318182 0 1 1  48.636364 26.227272 z"
       sodipodi:ry="22.318182"
       sodipodi:rx="22.318182"
       sodipodi:cy="26.227272"
       sodipodi:cx="26.318182"
       id="path19064"
       style="fill:none;fill-opacity:1.0000000;fill-rule:nonzero;stroke:#2060b0;stroke-width:6.3200736;stroke-linejoin:bevel;stroke-miterlimit:4.0000000;stroke-dashoffset:0.0000000;stroke-opacity:1.0000000"
       sodipodi:type="arc" />
    <path
       transform="matrix(2.653539,0.000000,0.000000,2.557047,18.52830,9.367190)"
       sodipodi:nodetypes="ccssscssc"
       id="path11425"
       d="M 14.799178,4.5901822 C 6.2877033,5.1017829 8.0271166,8.5729576 -5.4750662,8.8511524 C -5.4750662,7.3400342 -5.1796117,5.9000918 -4.6454195,4.5901822 C -4.1112272,3.2802726 -3.3382972,2.1003959 -2.3833461,1.1094089 C -1.4283950,0.11842190 -0.29142287,-0.68367529 0.97085363,-1.2380257 C 2.2331301,-1.7923762 3.6207110,-2.0989799 5.0768795,-2.0989799 C 6.5330481,-2.0989799 7.9206290,-1.7923762 9.1829055,-1.2380257 C 10.445182,-0.68367529 11.582154,0.11842190 12.537105,1.1094089 C 13.492056,2.1003959 14.264986,3.2802726 14.799178,4.5901822 z "
       style="stroke-opacity:1.0000000;stroke-dashoffset:0.0000000;stroke-miterlimit:4.0000000;stroke-linejoin:bevel;stroke-width:1.8991210;stroke:none;fill-rule:nonzero;fill-opacity:1.0;fill:url(#linearGradient14476)" />
  </g>
</svg>
