<?xml version="1.0" encoding="UTF-8" standalone="no"?>
<!-- Created with Inkscape (http://www.inkscape.org/) -->
<svg
   xmlns:dc="http://purl.org/dc/elements/1.1/"
   xmlns:cc="http://web.resource.org/cc/"
   xmlns:rdf="http://www.w3.org/1999/02/22-rdf-syntax-ns#"
   xmlns:svg="http://www.w3.org/2000/svg"
   xmlns="http://www.w3.org/2000/svg"
   xmlns:sodipodi="http://inkscape.sourceforge.net/DTD/sodipodi-0.dtd"
   xmlns:inkscape="http://www.inkscape.org/namespaces/inkscape"
   sodipodi:docname="krusader_logo_bw.svg"
   sodipodi:docbase="/home/kwaigon/work/krusader_signs/ready/krusader_logo_png_and_svg"
   inkscape:version="0.41"
   sodipodi:version="0.32"
   id="svg2628"
   height="297mm"
   width="210mm">
  <defs
     id="defs3" />
  <sodipodi:namedview
     inkscape:window-y="0"
     inkscape:window-x="85"
     inkscape:window-height="541"
     inkscape:window-width="640"
     inkscape:current-layer="layer1"
     inkscape:document-units="px"
     inkscape:cy="520.00000"
     inkscape:cx="375.00000"
     inkscape:zoom="0.35000000"
     inkscape:pageshadow="2"
     inkscape:pageopacity="0.0"
     borderopacity="1.0"
     bordercolor="#666666"
     pagecolor="#ffffff"
     id="base" />
  <metadata
     id="metadata4">
    <rdf:RDF
       id="RDF5">
      <cc:Work
         id="Work6"
         rdf:about="">
        <dc:format
           id="format7">image/svg+xml</dc:format>
        <dc:type
           rdf:resource="http://purl.org/dc/dcmitype/StillImage"
           id="type9" />
      </cc:Work>
    </rdf:RDF>
  </metadata>
  <g
     id="layer1"
     inkscape:groupmode="layer"
     inkscape:label="Layer 1">
    <g
       transform="matrix(1.254800,0.000000,0.000000,1.254800,57.51758,-590.8215)"
       id="g2426">
      <g
         id="g2382">
        <path
           id="path1866"
           d="M 104.02327,949.56409 L 103.53441,952.12802 C 102.88852,951.82050 102.24543,951.58682 101.60608,951.42698 C 100.96673,951.26715 100.36010,951.18676 99.788984,951.18676 C 99.136549,951.18676 98.631800,951.26995 98.275672,951.43633 C 97.925152,951.60925 97.749425,951.85135 97.749425,952.16541 C 97.749425,952.34955 97.847570,952.49724 98.044796,952.60754 C 98.241087,952.71877 98.628996,952.83561 99.207588,952.95899 L 99.807678,953.06929 C 101.14152,953.35251 102.07718,953.71892 102.61184,954.16758 C 103.14650,954.61064 103.41476,955.22849 103.41476,956.02113 C 103.41476,957.22131 102.94366,958.15790 102.00334,958.83090 C 101.06301,959.50483 99.745987,959.84133 98.054143,959.84133 C 97.346560,959.84133 96.624022,959.78525 95.886528,959.67495 C 95.148099,959.56466 94.393780,959.39828 93.626375,959.17768 L 94.124580,956.58570 C 94.721867,956.93622 95.361215,957.19982 96.044495,957.37835 C 96.720298,957.55688 97.414795,957.64661 98.128921,957.64661 C 98.823418,957.64661 99.346861,957.56342 99.697381,957.39611 C 100.04790,957.23066 100.22363,956.98670 100.22363,956.66796 C 100.22363,956.44737 100.12455,956.27351 99.928257,956.15106 C 99.731966,956.02861 99.325363,955.90242 98.710317,955.77343 L 98.111161,955.66220 C 96.929675,955.41543 96.086558,955.05370 95.582744,954.57419 C 95.077995,954.09374 94.826555,953.42915 94.826555,952.58043 C 94.826555,951.43072 95.263069,950.54461 96.136098,949.92302 C 97.003518,949.30237 98.245761,948.99110 99.863761,948.99110 C 100.57134,948.99110 101.26584,949.03877 101.94912,949.12944 C 102.63614,949.22759 103.32783,949.37154 104.02327,949.56409 z " />
        <path
           id="path1868"
           d="M 111.05984,949.24067 L 114.38090,949.24067 L 112.36003,959.57400 L 109.04832,959.57400 L 111.05984,949.24067 z M 111.83379,945.21670 L 115.15578,945.21670 L 114.62953,947.91150 L 111.29913,947.91150 L 111.83379,945.21670 z " />
        <path
           id="path1870"
           d="M 130.56931,950.95589 C 131.07967,950.32308 131.65826,949.83703 132.30415,949.49772 C 132.95565,949.16029 133.63146,948.99017 134.33343,948.99017 C 135.25506,948.99017 135.98228,949.24535 136.51133,949.75664 C 137.04599,950.26045 137.31425,950.95589 137.31425,951.84107 C 137.31425,952.02521 137.29836,952.23552 137.26845,952.46920 C 137.24321,952.70849 137.20396,952.97862 137.14881,953.28053 L 135.92152,959.57213 L 132.59111,959.57213 L 133.63426,954.18347 L 133.66137,954.04607 C 133.82120,953.28334 133.90159,952.79354 133.90159,952.57856 C 133.90159,952.24113 133.80438,951.97380 133.61089,951.77750 C 133.41741,951.58028 133.15475,951.48213 132.82199,951.48213 C 132.18825,951.48213 131.65359,951.74292 131.21614,952.26636 C 130.77308,952.78233 130.45621,953.52356 130.26553,954.48913 L 129.26912,959.57307 L 125.93871,959.57307 L 126.99962,954.18441 C 127.09122,953.72359 127.15665,953.37307 127.19310,953.13285 C 127.23049,952.89917 127.24825,952.71503 127.24825,952.57856 C 127.24825,952.23552 127.15291,951.96445 126.96223,951.76722 C 126.77155,951.57654 126.50702,951.48120 126.16865,951.48120 C 125.55921,951.48120 125.02736,951.74853 124.57215,952.28319 C 124.11040,952.82439 123.79166,953.56002 123.61313,954.48726 L 122.61672,959.57120 L 119.30500,959.57120 L 121.31652,949.23787 L 124.63758,949.23787 L 124.33286,950.75025 C 124.84976,950.16605 125.40031,949.72673 125.98451,949.43136 C 126.56871,949.13599 127.17721,948.98737 127.81189,948.98737 C 128.52508,948.98737 129.13732,949.16964 129.64768,949.53231 C 130.15710,949.90526 130.46556,950.37823 130.56931,950.95589 z " />
        <path
           id="path1872"
           d="M 146.38945,958.07845 L 145.32854,963.50450 L 142.00655,963.50450 L 144.78454,949.24067 L 148.10560,949.24067 L 147.80088,950.75305 C 148.30563,950.14922 148.83374,949.70803 149.38803,949.42481 C 149.94139,949.13599 150.54708,948.99017 151.20513,948.99017 C 152.36792,948.99017 153.28675,949.36032 153.96349,950.09781 C 154.64022,950.83624 154.97859,951.84200 154.97859,953.11602 C 154.97859,953.90960 154.86175,954.68168 154.62807,955.43226 C 154.38785,956.18284 154.04668,956.86519 153.60362,957.48023 C 153.04279,958.25511 152.41372,958.84212 151.71268,959.24218 C 151.00510,959.64224 150.24891,959.84227 149.44318,959.84227 C 148.73560,959.84227 148.13270,959.69739 147.63450,959.40856 C 147.14283,959.12440 146.72782,958.68135 146.38945,958.07845 z M 149.85820,951.38960 C 149.00947,951.38960 148.31778,951.78031 147.78218,952.56173 C 147.24004,953.34970 146.96991,954.37135 146.96991,955.62481 C 146.96991,956.19032 147.12320,956.63337 147.43073,956.95305 C 147.73264,957.28020 148.15327,957.44284 148.69540,957.44284 C 149.52543,957.44284 150.21152,957.05774 150.75272,956.28940 C 151.29393,955.51451 151.56499,954.52371 151.56499,953.31792 C 151.56499,952.69073 151.41731,952.21028 151.12194,951.87845 C 150.83311,951.55224 150.41155,951.38960 149.85820,951.38960 z " />
        <path
           id="path1874"
           d="M 162.86389,945.21670 L 166.18588,945.21670 L 163.39014,959.57307 L 160.07842,959.57307 L 162.86389,945.21670 z " />
        <path
           id="path1876"
           d="M 181.63587,954.79385 L 181.52557,955.32009 L 173.79450,955.32009 C 173.79450,955.35748 173.79170,955.40983 173.78516,955.47713 C 173.77861,955.55190 173.77581,955.60705 173.77581,955.64351 C 173.77581,956.31370 173.97864,956.81565 174.38431,957.14747 C 174.78437,957.47930 175.38633,957.64568 176.19300,957.64568 C 176.88749,957.64568 177.61938,957.54099 178.38959,957.33161 C 179.16447,957.12223 179.97581,956.81191 180.82453,956.39969 L 180.31792,958.96457 C 179.51125,959.25900 178.70833,959.48147 177.90914,959.62822 C 177.11557,959.77030 176.30703,959.84133 175.48261,959.84133 C 173.87115,959.84133 172.62517,959.47025 171.74560,958.72528 C 170.87164,957.98124 170.43512,956.92968 170.43512,955.57060 C 170.43512,954.78263 170.57626,954.02083 170.85948,953.28240 C 171.13616,952.53837 171.54183,951.85882 172.07742,951.24284 C 172.71116,950.50442 173.46735,949.94452 174.34692,949.56409 C 175.23304,949.18272 176.21356,948.99110 177.29036,948.99110 C 178.68683,948.99110 179.79728,949.36312 180.62170,950.10809 C 181.43958,950.85213 181.84805,951.85509 181.84805,953.11602 C 181.84805,953.36185 181.83216,953.62077 181.80225,953.89091 C 181.76486,954.16758 181.70878,954.46950 181.63587,954.79385 z M 178.51671,953.28147 C 178.53540,953.20108 178.54756,953.12163 178.55410,953.04125 C 178.56625,952.95525 178.57279,952.87206 178.57279,952.79074 C 178.57279,952.30001 178.42511,951.90930 178.12880,951.62047 C 177.83343,951.32977 177.43337,951.18583 176.92956,951.18583 C 176.28366,951.18583 175.73592,951.36155 175.28725,951.71207 C 174.83204,952.07007 174.48433,952.59165 174.24411,953.28147 L 178.51671,953.28147 z " />
        <path
           id="path1878"
           d="M 187.91532,956.00244 L 191.23638,956.00244 L 190.54375,959.57307 L 187.21335,959.57307 L 187.91532,956.00244 z " />
        <path
           id="path1880"
           d="M 219.54531,954.79385 L 219.43501,955.32009 L 211.70394,955.32009 C 211.70394,955.35748 211.70021,955.40983 211.69460,955.47713 C 211.68805,955.55190 211.68525,955.60705 211.68525,955.64351 C 211.68525,956.31370 211.88808,956.81565 212.29469,957.14747 C 212.69381,957.47930 213.29671,957.64568 214.10337,957.64568 C 214.79787,957.64568 215.52975,957.54099 216.29996,957.33161 C 217.07485,957.12223 217.88618,956.81191 218.73491,956.39969 L 218.22829,958.96457 C 217.42163,959.25900 216.61870,959.48147 215.81952,959.62822 C 215.02594,959.77030 214.21741,959.84133 213.39298,959.84133 C 211.78153,959.84133 210.53554,959.47025 209.65597,958.72528 C 208.78201,957.98124 208.34550,956.92968 208.34550,955.57060 C 208.34550,954.78263 208.48664,954.02083 208.76986,953.28240 C 209.04654,952.53837 209.45220,951.85882 209.98780,951.24284 C 210.62154,950.50442 211.37773,949.94452 212.25730,949.56409 C 213.14248,949.18272 214.12393,948.99110 215.19980,948.99110 C 216.59627,948.99110 217.70672,949.36312 218.53114,950.10809 C 219.34902,950.85213 219.75843,951.85509 219.75843,953.11602 C 219.75843,953.36185 219.74254,953.62077 219.71262,953.89091 C 219.67430,954.16758 219.61822,954.46950 219.54531,954.79385 z M 216.42615,953.28147 C 216.44484,953.20108 216.45700,953.12163 216.46354,953.04125 C 216.47569,952.95525 216.48223,952.87206 216.48223,952.79074 C 216.48223,952.30001 216.33455,951.90930 216.03918,951.62047 C 215.74380,951.32977 215.34374,951.18583 214.83993,951.18583 C 214.19404,951.18583 213.64629,951.36155 213.19763,951.71207 C 212.74242,952.07007 212.39377,952.59165 212.15448,953.28147 L 216.42615,953.28147 z " />
        <path
           id="path1882"
           d="M 235.63278,953.67872 L 234.47933,959.57400 L 231.17603,959.57400 L 231.45271,958.04200 C 230.91057,958.65704 230.33852,959.11319 229.73656,959.40762 C 229.13367,959.69645 228.47843,959.84133 227.77178,959.84133 C 226.79406,959.84133 226.01544,959.58616 225.43778,959.07580 C 224.86574,958.57198 224.57971,957.88870 224.57971,957.02783 C 224.57971,955.71174 225.08633,954.70411 226.10144,954.00214 C 227.12215,953.30764 228.59246,952.95993 230.51145,952.95993 L 232.45847,952.95993 L 232.49492,952.70194 C 232.51362,952.61595 232.52296,952.55426 232.52296,952.51780 C 232.52857,952.48135 232.53231,952.44676 232.53231,952.41592 C 232.53231,952.01025 232.33789,951.70273 231.95091,951.49428 C 231.56861,951.29145 231.00030,951.18957 230.24412,951.18957 C 229.56177,951.18957 228.89999,951.26060 228.26064,951.40268 C 227.62129,951.54476 227.00251,951.75601 226.40615,952.03923 L 226.90530,949.52016 C 227.59418,949.34817 228.29803,949.22011 229.01776,949.13318 C 229.74311,949.04158 230.49369,948.99484 231.26857,948.99484 C 232.80057,948.99484 233.93813,949.25656 234.68217,949.78001 C 235.42620,950.30906 235.79822,951.11105 235.79822,952.18785 C 235.79822,952.39722 235.78233,952.62810 235.75242,952.87954 C 235.72718,953.12163 235.68792,953.38803 235.63278,953.67872 z M 230.47499,954.92377 C 229.65057,954.92377 229.02898,955.05370 228.61116,955.31075 C 228.18680,955.56312 227.97462,955.93888 227.97462,956.43708 C 227.97462,956.81191 228.09987,957.10728 228.35224,957.32226 C 228.59901,957.53725 228.93925,957.64568 229.37670,957.64568 C 230.05343,957.64568 230.61894,957.43910 231.07415,957.02689 C 231.52842,956.62122 231.83314,956.04637 231.98737,955.30140 L 232.06121,954.92377 L 230.47499,954.92377 z " />
        <path
           id="path1884"
           d="M 251.36879,949.56409 L 250.88086,952.12802 C 250.23497,951.82050 249.59188,951.58682 248.95254,951.42698 C 248.31319,951.26715 247.70655,951.18676 247.13544,951.18676 C 246.48394,951.18676 245.97826,951.26995 245.62213,951.43633 C 245.27161,951.60925 245.09682,951.85135 245.09682,952.16541 C 245.09682,952.34955 245.19496,952.49724 245.39125,952.60754 C 245.58754,952.71877 245.97545,952.83561 246.55404,952.95899 L 247.15413,953.06929 C 248.48798,953.35251 249.42270,953.71892 249.95829,954.16758 C 250.49295,954.61064 250.76028,955.22849 250.76028,956.02113 C 250.76028,957.22131 250.28919,958.15790 249.34886,958.83090 C 248.40853,959.50483 247.09151,959.84133 245.39967,959.84133 C 244.69208,959.84133 243.96954,959.78525 243.23205,959.67495 C 242.49362,959.56466 241.74024,959.39828 240.97190,959.17768 L 241.47010,956.58570 C 242.06739,956.93622 242.70674,957.19982 243.39002,957.37835 C 244.06675,957.55688 244.76125,957.64661 245.47538,957.64661 C 246.16987,957.64661 246.69238,957.56342 247.04384,957.39611 C 247.39436,957.23066 247.57009,956.98670 247.57009,956.66796 C 247.57009,956.44737 247.47194,956.27351 247.27471,956.15106 C 247.07749,956.02861 246.67182,955.90242 246.05677,955.77343 L 245.45762,955.66220 C 244.27613,955.41543 243.43301,955.05370 242.92920,954.57419 C 242.42445,954.09374 242.17301,953.42915 242.17301,952.58043 C 242.17301,951.43072 242.60953,950.54461 243.48255,949.92302 C 244.34997,949.30237 245.59128,948.99110 247.21022,948.99110 C 247.91687,948.99110 248.61230,949.03877 249.29464,949.12944 C 249.98166,949.22759 250.67336,949.37154 251.36879,949.56409 z " />
        <path
           id="path1886"
           d="M 257.05843,949.24067 L 260.17665,949.24067 L 261.59836,956.39969 L 265.26153,949.24067 L 268.79477,949.24067 L 262.25360,960.55266 C 261.52172,961.82481 260.84404,962.66138 260.22339,963.06238 C 259.60180,963.45590 258.79981,963.65312 257.81555,963.65312 L 255.81245,963.65312 L 256.15455,961.48457 L 257.19677,961.48457 C 257.73797,961.48457 258.15579,961.39484 258.45116,961.21724 C 258.75308,961.03310 259.01947,960.71249 259.25409,960.25822 L 259.55787,959.70486 L 257.05843,949.24067 z " />
        <path
           id="path1888"
           d="M 271.74381,956.00244 L 275.06487,956.00244 L 274.37318,959.57307 L 271.04277,959.57307 L 271.74381,956.00244 z " />
        <path
           id="path1890"
           d="M 295.68667,958.07845 L 294.62576,963.50450 L 291.30376,963.50450 L 294.08175,949.24067 L 297.40375,949.24067 L 297.09903,950.75305 C 297.60378,950.14922 298.13189,949.70803 298.68618,949.42481 C 299.23954,949.13599 299.84524,948.99017 300.50328,948.99017 C 301.66514,948.99017 302.58583,949.36032 303.26164,950.09781 C 303.93837,950.83624 304.27674,951.84200 304.27674,953.11602 C 304.27674,953.90960 304.15990,954.68168 303.92622,955.43226 C 303.68507,956.18284 303.34483,956.86519 302.90177,957.48023 C 302.34094,958.25511 301.71187,958.84212 301.01083,959.24218 C 300.30325,959.64224 299.54706,959.84227 298.74040,959.84227 C 298.03281,959.84227 297.43085,959.69739 296.93171,959.40856 C 296.44005,959.12440 296.02504,958.68135 295.68667,958.07845 z M 299.15635,951.38960 C 298.30762,951.38960 297.61593,951.78031 297.08033,952.56173 C 296.53913,953.34970 296.26806,954.37135 296.26806,955.62481 C 296.26806,956.19032 296.42229,956.63337 296.72981,956.95305 C 297.03079,957.28020 297.45235,957.44284 297.99356,957.44284 C 298.82452,957.44284 299.50967,957.05774 300.05087,956.28940 C 300.59208,955.51451 300.86315,954.52371 300.86315,953.31792 C 300.86315,952.69073 300.71546,952.21028 300.42009,951.87845 C 300.13126,951.55224 299.70970,951.38960 299.15635,951.38960 z " />
        <path
           id="path1892"
           d="M 316.14769,948.99017 C 317.68530,948.99017 318.89389,949.38182 319.77347,950.16231 C 320.65210,950.94373 321.09236,952.00838 321.09236,953.35531 C 321.09236,954.13674 320.95402,954.89293 320.67734,955.62481 C 320.39973,956.36324 319.99686,957.03624 319.46875,957.64568 C 318.84062,958.37008 318.09938,958.91783 317.24505,959.28798 C 316.38978,959.65626 315.43637,959.84133 314.38481,959.84133 C 312.86495,959.84133 311.66570,959.45062 310.78613,958.67013 C 309.91124,957.88870 309.47566,956.82406 309.47566,955.47713 C 309.47566,954.70318 309.61680,953.94512 309.90002,953.20763 C 310.18324,952.46265 310.58891,951.78405 311.11796,951.16807 C 311.73394,950.45394 312.46583,949.91367 313.31455,949.54446 C 314.16889,949.17524 315.11389,948.99017 316.14769,948.99017 z M 315.87942,951.35314 C 315.02415,951.35314 314.32031,951.74012 313.76696,952.51593 C 313.21267,953.29082 312.93599,954.27788 312.93599,955.47713 C 312.93599,956.12863 313.08648,956.62683 313.38746,956.97268 C 313.68190,957.31011 314.11561,957.48023 314.68859,957.48023 C 315.54386,957.48023 316.24770,957.08952 316.80199,956.30809 C 317.35535,955.53321 317.63296,954.54241 317.63296,953.33755 C 317.63296,952.69166 317.48527,952.19813 317.18990,951.86069 C 316.88799,951.52233 316.45147,951.35314 315.87942,951.35314 z " />
        <path
           id="path1894"
           d="M 327.19795,949.24067 L 330.24233,949.24067 L 330.60220,956.34455 L 333.72042,949.24067 L 336.34138,949.24067 L 336.71994,956.32585 L 339.81947,949.24067 L 343.06762,949.24067 L 338.34355,959.57400 L 334.83741,959.57400 L 334.49624,952.47013 L 331.34063,959.57400 L 327.91768,959.57400 L 327.19795,949.24067 z " />
        <path
           id="path1896"
           d="M 358.67371,954.79385 L 358.56341,955.32009 L 350.83234,955.32009 C 350.83234,955.35748 350.82954,955.40983 350.82300,955.47713 C 350.81645,955.55190 350.81365,955.60705 350.81365,955.64351 C 350.81365,956.31370 351.01648,956.81565 351.42215,957.14747 C 351.82221,957.47930 352.42417,957.64568 353.23083,957.64568 C 353.92533,957.64568 354.65722,957.54099 355.42743,957.33161 C 356.20231,957.12223 357.01365,956.81191 357.86237,956.39969 L 357.35482,958.96457 C 356.54909,959.25900 355.74617,959.48147 354.94698,959.62822 C 354.15340,959.77030 353.34487,959.84133 352.52045,959.84133 C 350.90805,959.84133 349.66301,959.47025 348.78437,958.72528 C 347.90947,957.98124 347.47389,956.92968 347.47389,955.57060 C 347.47389,954.78263 347.61504,954.02083 347.89826,953.28240 C 348.17493,952.53837 348.58060,951.85882 349.11620,951.24284 C 349.74994,950.50442 350.50613,949.94452 351.38663,949.56409 C 352.27181,949.18272 353.25233,948.99110 354.32913,948.99110 C 355.72467,948.99110 356.83605,949.36312 357.65954,950.10809 C 358.47742,950.85213 358.88682,951.85509 358.88682,953.11602 C 358.88682,953.36185 358.87093,953.62077 358.84102,953.89091 C 358.80270,954.16758 358.74755,954.46950 358.67371,954.79385 z M 355.55548,953.28147 C 355.57418,953.20108 355.58539,953.12163 355.59287,953.04125 C 355.60502,952.95525 355.61157,952.87206 355.61157,952.79074 C 355.61157,952.30001 355.46388,951.90930 355.16757,951.62047 C 354.87314,951.32977 354.47308,951.18583 353.96926,951.18583 C 353.32337,951.18583 352.77563,951.36155 352.32696,951.71207 C 351.87175,952.07007 351.52404,952.59165 351.28475,953.28147 L 355.55548,953.28147 z " />
        <path
           id="path1898"
           d="M 373.10018,952.05418 C 372.87304,951.92612 372.61973,951.82704 372.34305,951.75881 C 372.06638,951.69244 371.76820,951.65879 371.44853,951.65879 C 370.60541,951.65879 369.90530,951.92893 369.34541,952.47107 C 368.79112,953.01227 368.41536,953.79276 368.21907,954.81347 L 367.27781,959.57494 L 363.96609,959.57494 L 365.97668,949.24161 L 369.29867,949.24161 L 368.93880,951.01290 C 369.37532,950.36140 369.92306,949.86320 370.58111,949.51735 C 371.23261,949.16683 371.95888,948.99110 372.75807,948.99110 C 372.87491,948.99110 373.00764,948.99858 373.15533,949.01073 C 373.30208,949.02288 373.47780,949.04158 373.68157,949.06588 L 373.10018,952.05418 z " />
        <path
           id="path1900"
           d="M 386.68727,945.21670 L 386.25356,947.38526 L 384.43553,947.38526 C 383.97471,947.38526 383.63728,947.46845 383.42136,947.63389 C 383.21198,947.80775 383.06710,948.09938 382.98671,948.51066 L 382.83061,949.23974 L 385.62542,949.23974 L 385.17396,951.59991 L 382.37821,951.59991 L 380.82844,959.57213 L 377.50738,959.57213 L 379.05715,951.59991 L 377.42419,951.59991 L 377.88501,949.23974 L 379.50862,949.23974 L 379.65630,948.51907 C 379.88344,947.37497 380.35734,946.53840 381.07708,946.00935 C 381.79681,945.48030 382.82033,945.21484 384.14950,945.21484 L 386.68727,945.21484 L 386.68727,945.21670 z " />
        <path
           id="path1902"
           d="M 389.76437,955.55190 L 390.97296,949.24067 L 394.28561,949.24067 L 393.24339,954.61905 C 393.16955,954.96957 393.11347,955.26868 393.07701,955.51358 C 393.04056,955.76035 393.02093,955.95383 393.02093,956.09498 C 393.02093,956.48288 393.12842,956.78386 393.34434,956.99978 C 393.55839,957.21477 393.86685,957.32320 394.26691,957.32320 C 394.94926,957.32320 395.53626,957.05867 396.02886,956.52869 C 396.52146,955.99870 396.85982,955.26494 397.04396,954.32462 L 398.04038,949.24161 L 401.35302,949.24161 L 399.35085,959.57494 L 396.01951,959.57494 L 396.32423,958.06163 C 395.75872,958.65891 395.16424,959.10384 394.54359,959.40015 C 393.92293,959.69458 393.26770,959.84320 392.57787,959.84320 C 391.63661,959.84320 390.90753,959.59363 390.39156,959.09543 C 389.87373,958.59816 389.61574,957.89431 389.61574,956.98296 C 389.61574,956.76797 389.62883,956.53990 389.65313,956.30061 C 389.67744,956.06133 389.71576,955.80895 389.76437,955.55190 z " />
        <path
           id="path1904"
           d="M 409.08129,945.21670 L 412.40235,945.21670 L 409.60754,959.57307 L 406.29582,959.57307 L 409.08129,945.21670 z " />
      </g>
      <g
         id="g2404">
        <path
           style="fill:#ffffff"
           id="path1860"
           d="M 150.97575,849.85533 L 150.98395,849.80613 C 152.53765,840.27421 161.88783,832.22629 171.40335,832.22629 L 350.11649,832.22629 C 354.53229,832.22629 358.40560,833.92073 361.02173,836.99464 C 363.14594,839.49258 364.25689,842.67034 364.25689,846.13644 C 364.25689,847.03627 364.18242,847.95591 364.03074,848.88854 C 364.01502,848.97258 355.96027,894.03314 355.96027,894.03314 C 354.40657,903.56438 345.05503,911.61776 335.54019,911.61776 L 156.82841,911.61776 C 152.41193,911.61776 148.53931,909.92332 145.92249,906.84531 C 143.79829,904.34737 142.68733,901.16961 142.68733,897.70352 C 142.68733,896.80437 142.76249,895.88336 142.91417,894.95210 C 142.92920,894.86669 150.97575,849.85533 150.97575,849.85533 z " />
        <path
           id="path1862"
           d="M 171.40404,826.56631 C 159.07150,826.56631 147.40513,836.58060 145.39844,848.89605 L 145.40732,848.84549 L 137.32934,894.03245 C 136.32019,900.22469 137.84041,906.07598 141.61123,910.51023 C 145.32055,914.87410 150.72500,917.27706 156.82841,917.27706 L 335.54019,917.27706 C 347.87272,917.27706 359.53841,907.25799 361.54578,894.94253 L 361.53690,894.99309 L 369.61351,849.80545 C 370.62403,843.61322 369.10381,837.76193 365.33300,833.33178 C 361.62367,828.96927 356.21785,826.56631 350.11581,826.56631 L 171.40404,826.56631 L 171.40404,826.56631 z M 150.97575,849.85533 L 150.98395,849.80613 C 152.53765,840.27421 161.88783,832.22629 171.40335,832.22629 L 350.11649,832.22629 C 354.53229,832.22629 358.40560,833.92073 361.02173,836.99464 C 363.14594,839.49258 364.25689,842.67034 364.25689,846.13644 C 364.25689,847.03627 364.18242,847.95591 364.03074,848.88854 C 364.01502,848.97258 355.96027,894.03314 355.96027,894.03314 C 354.40657,903.56438 345.05503,911.61776 335.54019,911.61776 L 156.82841,911.61776 C 152.41193,911.61776 148.53931,909.92332 145.92249,906.84531 C 143.79829,904.34737 142.68733,901.16961 142.68733,897.70352 C 142.68733,896.80437 142.76249,895.88336 142.91417,894.95210 C 142.92920,894.86669 150.97575,849.85533 150.97575,849.85533 z " />
        <path
           id="path1908"
           d="M 169.47046,849.57452 C 168.81181,849.57452 168.24609,850.04254 168.12310,850.68957 L 161.24490,886.81672 C 161.16906,887.21779 161.27428,887.63252 161.53596,887.94749 C 161.79627,888.26247 162.18367,888.44489 162.59225,888.44489 L 168.38274,888.44489 C 169.03933,888.44489 169.60369,887.97960 169.72941,887.33531 C 169.72941,887.33531 170.21519,884.83600 170.65589,882.57242 C 172.38722,884.87631 174.65764,887.89693 174.65764,887.89693 C 174.91659,888.24265 175.32243,888.44489 175.75356,888.44489 L 182.35164,888.44489 C 182.87637,888.44489 183.35601,888.14495 183.58489,887.67283 C 183.67781,887.48220 183.72291,887.27655 183.72291,887.07362 C 183.72291,886.77231 183.62315,886.47169 183.42980,886.22640 C 183.42980,886.22640 177.97547,879.28602 176.64178,877.58816 C 178.36355,876.21826 186.07531,870.08205 186.07531,870.08205 C 186.40874,869.81627 186.59321,869.41862 186.59321,869.00936 C 186.59321,868.85837 186.56793,868.70532 186.51669,868.55706 C 186.32401,868.00636 185.80475,867.63809 185.22126,867.63809 L 178.41548,867.63809 C 178.09162,867.63809 177.77869,867.75220 177.53204,867.96058 C 177.53204,867.96058 174.96647,870.12237 172.68785,872.04228 C 173.71271,866.61938 176.62606,851.20132 176.62606,851.20132 C 176.64178,851.11659 176.64998,851.03119 176.64998,850.94647 C 176.64998,850.62944 176.53997,850.31925 176.33500,850.07123 C 176.07400,849.75762 175.68660,849.57520 175.27871,849.57520 L 169.47046,849.57520 L 169.47046,849.57452 z M 173.62253,852.31705 C 173.08686,855.15388 169.27642,875.31843 169.27642,875.31843 C 169.26070,875.40383 169.25250,875.48856 169.25250,875.57259 C 169.25250,876.05428 169.50599,876.50795 169.93233,876.75665 C 170.43315,877.04977 171.06446,876.99511 171.50789,876.62206 C 171.50789,876.62206 178.22348,870.96412 178.91561,870.37995 C 179.24015,870.37995 180.13315,870.37995 181.29466,870.37995 C 178.21939,872.82664 173.86644,876.29000 173.86644,876.29000 C 173.52619,876.56056 173.34923,876.96026 173.34923,877.36406 C 173.34923,877.66059 173.44488,877.95916 173.64234,878.21060 C 173.64234,878.21060 177.45279,883.05889 179.52848,885.70031 C 178.01578,885.70031 177.01278,885.70031 176.43749,885.70031 C 175.72623,884.75265 170.99409,878.45725 170.99409,878.45725 C 170.66818,878.02407 170.11817,877.82320 169.59003,877.94481 C 169.06188,878.06643 168.65535,878.48731 168.55150,879.01956 C 168.55150,879.01956 167.56899,884.06804 167.25129,885.69962 C 166.30773,885.69962 165.47554,885.69962 164.24843,885.69962 C 164.79571,882.82659 170.22408,854.31281 170.60464,852.31569 C 171.55367,852.31705 172.39269,852.31705 173.62253,852.31705 z " />
        <path
           id="path1910"
           d="M 197.64398,868.27761 C 197.52920,868.33773 197.42398,868.41357 197.31193,868.47917 C 197.26068,868.35277 197.19919,868.23115 197.11174,868.12320 C 196.85142,867.80549 196.46129,867.62033 196.04998,867.62033 L 190.24310,867.62033 C 189.58718,867.62033 189.02282,868.08493 188.89711,868.72855 L 184.32075,892.13987 C 184.24217,892.54298 184.34876,892.95703 184.60771,893.27474 C 184.86802,893.59108 185.25679,893.77419 185.66673,893.77419 L 191.45722,893.77419 C 192.11177,893.77419 192.67544,893.31095 192.80252,892.66938 L 195.50817,879.00316 C 195.79718,877.49729 196.32942,876.35969 197.09056,875.61359 C 197.80455,874.92215 198.69481,874.58326 199.80850,874.58326 C 200.25534,874.58326 200.67143,874.62972 201.04585,874.72196 C 201.40319,874.80873 201.73114,874.93650 202.02152,875.10116 C 202.40550,875.31638 202.87011,875.33619 203.27049,875.15172 C 203.67019,874.96656 203.95715,874.60034 204.04187,874.16853 L 205.05785,868.95675 C 205.13369,868.57072 205.04487,868.16966 204.80437,867.85810 C 204.56319,867.54586 204.20653,867.35250 203.81367,867.32722 L 202.86396,867.26368 C 202.87216,867.26436 202.99104,867.27734 202.99993,867.27802 L 202.09873,867.20013 C 200.47808,867.20013 198.97904,867.56225 197.64398,868.27761 z M 194.37193,870.36355 C 194.22504,871.08642 194.07677,871.81544 194.07677,871.81544 C 194.05832,871.90768 194.04876,871.99855 194.04876,872.08942 C 194.04876,872.63192 194.37398,873.13615 194.89120,873.35410 C 195.06133,873.42516 195.23829,873.45796 195.41388,873.45864 C 195.33667,873.52628 195.25058,873.57616 195.17611,873.64858 C 194.00298,874.79780 193.21110,876.42050 192.81551,878.47774 C 192.81551,878.47774 190.69950,889.16366 190.32987,891.03097 C 189.39041,891.03097 188.56027,891.03097 187.33180,891.03097 C 187.85653,888.34582 191.00696,872.22744 191.37181,870.36287 C 192.31264,870.36355 193.13936,870.36355 194.37193,870.36355 z M 198.92575,870.70244 C 199.87614,870.19411 200.90237,869.95087 202.07003,869.94609 C 201.90059,870.81449 201.83363,871.15816 201.66009,872.05116 C 201.08343,871.91246 200.46168,871.84072 199.80850,871.84072 C 198.72009,871.84072 197.74237,872.08122 196.85757,872.50552 C 197.43969,871.74712 198.10586,871.13083 198.92575,870.70244 z " />
        <path
           id="path1912"
           d="M 220.69592,867.62784 C 220.04001,867.62784 219.47565,868.09245 219.34925,868.73606 L 217.60766,877.64555 C 217.33573,879.03322 216.85404,880.10864 216.17353,880.84176 C 215.57091,881.49153 214.91158,881.79489 214.09852,881.79489 C 213.91883,881.79489 213.59771,881.77371 213.45764,881.63296 C 213.34627,881.52227 213.29230,881.31525 213.29230,881.01599 L 213.37429,880.20020 C 213.37429,880.19883 213.65032,878.71278 213.65032,878.71278 L 215.47799,869.26011 C 215.55588,868.85837 215.44930,868.44432 215.18966,868.12730 C 214.92935,867.81164 214.54127,867.62921 214.13132,867.62921 L 208.34015,867.62921 C 207.68151,867.62921 207.11646,868.09655 206.99280,868.74221 C 206.99280,868.74221 204.87953,879.79367 204.87953,879.79435 L 204.66909,881.22370 C 204.66977,881.21686 204.59735,882.55534 204.59735,882.55534 C 204.59735,884.52923 205.19450,886.10615 206.37173,887.24170 C 207.53598,888.36564 209.14228,888.93409 211.14692,888.93409 C 212.55030,888.93409 213.90448,888.62937 215.17053,888.02948 C 215.41513,887.91333 215.64880,887.73159 215.88999,887.59152 C 215.94191,887.72475 216.00887,887.85457 216.10179,887.96799 C 216.36211,888.28706 216.75224,888.47086 217.16355,888.47086 L 222.98615,888.47086 C 223.64275,888.47086 224.20847,888.00420 224.33282,887.35990 L 227.83376,869.26148 C 227.91165,868.85905 227.80506,868.44364 227.54475,868.12798 C 227.28443,867.81232 226.89635,867.62989 226.48709,867.62989 L 220.69592,867.62989 L 220.69592,867.62784 z M 212.46967,870.37038 C 212.03786,872.60117 210.96176,878.16618 210.96176,878.16618 C 210.96654,878.14295 210.66181,879.79367 210.66181,879.79367 C 210.66181,879.79504 210.54976,881.01462 210.54976,881.01462 C 210.54976,882.32782 211.07517,883.12858 211.51655,883.56859 C 212.15402,884.21015 213.02447,884.53674 214.09921,884.53674 C 214.74966,884.53674 215.35569,884.40624 215.93303,884.19990 C 215.29898,884.75538 214.65468,885.23707 213.99604,885.54931 C 213.08664,885.97975 212.15538,886.18951 211.14760,886.18951 C 209.86037,886.18951 208.92159,885.88751 208.27729,885.26645 C 207.64803,884.65836 207.34193,883.77151 207.34193,882.55329 L 207.39864,881.50041 C 207.39933,881.49426 207.57424,880.30747 207.57492,880.30474 C 207.57492,880.30610 207.57492,880.30474 207.57492,880.30610 L 207.57492,880.30474 L 207.57492,880.30474 C 207.57492,880.30132 209.13066,872.17141 209.47502,870.37038 C 210.41789,870.37038 211.24394,870.37038 212.46967,870.37038 z M 224.82476,870.37038 C 224.33760,872.88950 222.19700,883.95599 221.85470,885.72627 C 220.91046,885.72627 220.07485,885.72627 218.83886,885.72627 C 218.93384,885.25415 219.04042,884.72258 219.04042,884.72258 C 219.05887,884.63240 219.06775,884.54153 219.06775,884.45202 C 219.06775,883.94779 218.78899,883.47430 218.32848,883.23516 C 218.14606,883.14019 217.94860,883.10330 217.75251,883.09442 C 217.89667,882.96460 218.04835,882.85392 218.18568,882.70702 C 219.21738,881.59401 219.92932,880.06833 220.30032,878.17233 C 220.30032,878.17233 221.49326,872.06961 221.82464,870.37038 C 222.76683,870.37038 223.59697,870.37038 224.82476,870.37038 z M 204.88021,879.79162 C 204.88021,879.78820 204.88021,879.78684 204.88021,879.78684 C 204.88021,879.78615 204.87816,879.80324 204.88021,879.79162 z M 207.57492,880.30474 C 207.57492,880.30747 207.57424,880.31020 207.57424,880.31020 C 207.57355,880.31088 207.57697,880.29449 207.57492,880.30474 z M 207.57492,880.30474 L 207.57492,880.30474 L 207.57492,880.30474 L 207.57492,880.30474 z " />
        <path
           id="path1914"
           d="M 231.91409,869.08725 C 230.01535,870.43939 229.05130,872.37912 229.05130,874.85109 L 229.05130,874.85109 C 229.05130,876.71908 229.63957,878.22699 230.79903,879.33180 C 231.87992,880.36076 233.54294,881.09798 235.88509,881.58650 L 236.96530,881.78601 C 237.56724,881.91309 237.94371,882.01899 238.19446,882.09893 C 237.88973,882.20962 237.30829,882.34285 236.19802,882.34285 L 236.19802,882.34285 C 235.07340,882.34285 233.96450,882.20142 232.90206,881.92061 C 231.83415,881.64321 230.82363,881.22438 229.89374,880.67847 C 229.50907,880.45232 229.03900,880.42704 228.63315,880.61083 C 228.22662,880.79462 227.93556,881.16357 227.85084,881.60153 L 226.97971,886.13895 C 226.84647,886.83654 227.26462,887.51978 227.94581,887.71587 C 229.33553,888.11694 230.72388,888.42371 232.07396,888.62664 C 233.42679,888.83024 234.77073,888.93273 236.06889,888.93273 C 239.30609,888.93273 241.89695,888.25222 243.77040,886.90828 C 245.78734,885.46322 246.80947,883.43467 246.80947,880.87798 C 246.80947,879.06875 246.16995,877.62164 244.90937,876.57696 C 243.79773,875.64297 241.99875,874.91805 239.41814,874.37009 L 238.33315,874.16990 C 237.95259,874.08859 237.68134,874.01958 237.45450,873.95741 C 237.80091,873.86790 238.31539,873.78933 239.10044,873.78933 C 239.98114,873.78933 240.93836,873.91710 241.94683,874.16853 C 242.96691,874.42475 244.01500,874.80668 245.05900,875.30203 C 245.44298,875.48446 245.88914,875.47899 246.26902,875.28700 C 246.64754,875.09432 246.91605,874.73767 246.99531,874.32089 L 247.85005,869.83062 C 247.98328,869.12893 247.55557,868.44159 246.86618,868.25165 C 245.60559,867.90524 244.32793,867.63809 243.06939,867.45635 C 241.80881,867.28691 240.52021,867.20082 239.22889,867.20082 C 236.12218,867.20013 233.66046,867.83487 231.91409,869.08725 z M 239.52815,884.51625 C 241.00942,883.81592 241.23079,882.64006 241.23079,882.00191 C 241.23079,881.13898 240.81879,880.40586 240.07201,879.93783 C 239.57187,879.62423 238.77726,879.36391 237.49618,879.09471 L 236.41392,878.89452 C 234.20090,878.43265 233.16510,877.79655 232.69093,877.34493 C 232.08763,876.77032 231.79452,875.95453 231.79452,874.85109 C 231.79452,873.27348 232.33906,872.15160 233.50878,871.31872 C 234.78371,870.40454 236.70704,869.94267 239.22957,869.94267 C 240.39791,869.94267 241.56284,870.01988 242.69088,870.17224 C 243.42263,870.27746 244.16668,870.42777 244.91142,870.59790 C 244.79185,871.22990 244.75495,871.42326 244.61694,872.14476 C 243.94600,871.89265 243.27642,871.67333 242.61162,871.50662 C 241.38452,871.20052 240.20387,871.04543 239.10044,871.04543 C 237.74625,871.04543 236.69132,871.23059 235.87621,871.61047 C 234.38333,872.34290 234.16469,873.50305 234.16469,874.13027 C 234.16469,874.94674 234.60743,875.66483 235.37949,876.10006 C 235.85981,876.37062 236.60592,876.60497 237.79886,876.85846 L 238.88453,877.05933 C 241.46377,877.60934 242.63280,878.24544 243.15207,878.68203 C 243.77860,879.20130 244.06625,879.89616 244.06625,880.87729 C 244.06625,882.54441 243.46431,883.75170 242.17230,884.67817 C 240.77438,885.68117 238.72124,886.18882 236.06889,886.18882 C 234.90669,886.18882 233.70008,886.09590 232.48186,885.91348 C 231.64216,885.78639 230.78195,885.59987 229.91697,885.38738 C 230.03312,884.78408 230.06796,884.60233 230.20461,883.88903 C 230.85233,884.16233 231.51917,884.39463 232.20651,884.57364 C 233.49306,884.91253 234.83700,885.08539 236.19802,885.08539 C 237.63215,885.08539 238.72124,884.90023 239.52815,884.51625 z " />
        <path
           id="path1916"
           d="M 264.80814,874.89003 L 264.80609,874.92625 C 264.80677,874.91531 264.80745,874.90302 264.80814,874.89003 z M 264.80609,874.92556 C 264.80472,874.94401 264.80335,874.95494 264.80404,874.94948 L 264.80609,874.92556 z M 270.54396,874.15828 C 270.54396,871.81407 269.69332,870.01988 268.01665,868.82694 C 266.45749,867.73033 264.24651,867.19945 261.25254,867.19945 C 259.84711,867.19945 258.46491,867.28486 257.14352,867.45225 C 255.85834,867.60735 254.56154,867.84580 253.30574,868.16214 C 252.79263,868.29059 252.40044,868.70532 252.29796,869.22595 L 251.42682,873.63492 C 251.32639,874.14325 251.52043,874.66456 251.92901,874.98296 C 252.33759,875.30135 252.88760,875.36216 253.35357,875.14010 C 254.29644,874.69189 255.28510,874.35164 256.29425,874.12822 C 257.30750,873.90343 258.37472,873.78865 259.46313,873.78865 C 260.81458,873.78865 261.47664,873.99157 261.79572,874.16101 C 260.87129,874.16101 259.93115,874.16101 259.93115,874.16101 C 256.31474,874.16101 253.47040,874.85451 251.46918,876.22168 C 249.30262,877.71661 248.20738,879.87566 248.20738,882.64279 C 248.20738,884.55314 248.86876,886.10274 250.17376,887.25127 C 251.43571,888.36632 253.10965,888.93204 255.14571,888.93204 C 256.58052,888.93204 257.93266,888.63210 259.16933,888.03973 C 259.40164,887.92563 259.62984,887.78966 259.85668,887.65233 C 259.90655,887.76438 259.95984,887.87643 260.04047,887.97209 C 260.30078,888.28365 260.68613,888.46402 261.09266,888.46402 L 266.86811,888.46402 C 267.52403,888.46402 268.08770,887.99942 268.21410,887.35649 L 270.22899,877.03678 C 270.23104,877.03132 270.44284,875.60334 270.45514,875.52203 C 270.45582,875.49880 270.54396,874.15828 270.54396,874.15828 z M 260.00084,881.60495 C 259.45356,882.10098 258.78467,882.33807 257.94496,882.33807 C 257.65732,882.33807 257.27128,882.29844 257.06016,882.11465 C 256.98295,882.04769 256.86680,881.94793 256.86680,881.59606 C 256.86680,881.20798 256.98227,881.00164 257.30818,880.80829 C 257.67713,880.58008 258.40137,880.32387 259.86556,880.32387 C 259.86556,880.32387 260.40327,880.32387 260.86241,880.32387 C 260.64787,880.84518 260.36774,881.27699 260.00084,881.60495 z M 267.73037,875.20433 C 267.73310,875.16743 267.72149,875.26787 267.72763,875.23097 L 267.53428,876.51820 C 267.53428,876.51820 266.08239,883.95667 265.73666,885.72149 L 262.73244,885.72149 C 262.82537,885.21247 262.92512,884.65631 262.92512,884.65631 C 262.93947,884.57569 262.94630,884.49438 262.94630,884.41308 C 262.94630,883.92524 262.68325,883.47088 262.25349,883.22560 C 263.03307,882.36745 263.57420,881.24898 263.85433,879.89069 L 263.98551,879.21496 C 264.06409,878.81253 263.95887,878.39712 263.69787,878.08010 C 263.43755,877.76375 263.04879,877.58133 262.63952,877.58133 L 259.86487,877.58133 C 258.14857,877.58133 256.84836,877.86966 255.89113,878.46271 C 254.76310,879.13434 254.13315,880.25213 254.13315,881.59743 C 254.13315,882.65646 254.52670,883.55219 255.27075,884.18966 C 255.93964,884.77656 256.84289,885.08265 257.94496,885.08265 C 258.27702,885.08265 258.59609,885.05532 258.90697,885.00955 C 258.59814,885.22955 258.28590,885.41949 257.97024,885.57322 C 257.10731,885.98727 256.18219,886.19087 255.14435,886.19087 C 253.77445,886.19087 252.74138,885.86497 251.98640,885.19607 C 251.27788,884.57295 250.94855,883.76195 250.94855,882.64484 C 250.94855,880.80760 251.62565,879.44590 253.01468,878.48526 C 254.54378,877.43921 256.87159,876.90492 259.92978,876.90492 L 263.33233,876.90492 C 264.01489,876.90492 264.59428,876.40342 264.68994,875.72769 L 264.75484,875.27265 C 264.75553,875.26650 264.73845,875.37035 264.73913,875.36489 L 264.81702,874.75475 C 264.81975,874.74040 264.81292,874.82649 264.80745,874.89072 L 264.83205,874.57643 C 264.83205,873.36025 264.21713,872.35657 263.10071,871.74917 C 262.21523,871.27568 261.02844,871.04679 259.46176,871.04679 C 258.17453,871.04679 256.90985,871.18344 255.70256,871.45127 C 255.32336,871.53463 254.95167,871.65693 254.57931,871.76830 C 254.68931,871.21009 254.73030,871.00375 254.80068,870.64300 C 255.68479,870.45032 256.57848,870.28498 257.47831,870.17702 C 258.69448,870.02261 259.96121,869.94404 261.25049,869.94404 C 263.62749,869.94404 265.37045,870.32187 266.43016,871.06797 C 267.36142,871.73072 267.79937,872.71459 267.79937,874.15965 L 267.73037,875.20433 z M 270.45309,875.54253 C 270.45309,875.55346 270.46129,875.47421 270.45651,875.50700 C 270.45651,875.50700 270.45309,875.54117 270.45309,875.54253 z " />
        <path
           id="path1918"
           d="M 286.12805,868.14506 C 286.12942,868.14574 286.12942,868.14643 286.12942,868.14643 C 286.13078,868.14711 286.13147,868.14711 286.13147,868.14779 C 286.13078,868.14711 286.12942,868.14643 286.12805,868.14506 z M 298.38816,850.07123 C 298.12717,849.75694 297.74045,849.57383 297.33119,849.57383 L 291.50927,849.57383 C 290.84789,849.57383 290.28080,850.04390 290.15919,850.69298 C 290.15919,850.69298 287.59292,864.42070 286.81061,868.61171 C 286.59061,868.44227 286.36582,868.28376 286.12942,868.14643 C 285.05126,867.51784 283.75515,867.19945 282.27934,867.19945 C 280.63751,867.19945 279.07562,867.61281 277.63534,868.42656 C 276.23811,869.22595 274.98026,870.39498 273.89185,871.90290 C 273.03438,873.09379 272.36822,874.42885 271.90772,875.87390 C 271.45677,877.32306 271.22994,878.82346 271.22994,880.34231 C 271.22994,882.91541 271.94871,885.00476 273.36439,886.54889 C 274.81150,888.13060 276.77445,888.93204 279.19792,888.93204 C 280.56714,888.93204 281.85027,888.62390 283.01315,888.01445 C 283.16004,887.93929 283.30421,887.84296 283.44974,887.75618 C 283.48595,887.81973 283.50918,887.88873 283.55632,887.94544 C 283.81664,888.26452 284.20677,888.44968 284.61808,888.44968 L 290.44000,888.44968 C 291.09933,888.44968 291.66505,887.98097 291.78804,887.33462 L 298.67786,851.20200 C 298.75507,850.80025 298.64848,850.38621 298.38816,850.07123 z M 281.75051,885.58005 C 280.96410,885.99205 280.13259,886.18951 279.19860,886.18951 C 277.55335,886.18951 276.30712,885.70167 275.38815,884.69799 C 274.43708,883.65878 273.97384,882.23421 273.97384,880.34231 C 273.97384,879.10018 274.15968,877.87376 274.52522,876.69653 C 274.89485,875.53843 275.43188,874.46164 276.11922,873.50715 C 276.97533,872.31831 277.94348,871.41164 278.99226,870.81176 C 280.02396,870.22827 281.10075,869.94336 282.28071,869.94336 C 283.26458,869.94336 284.09677,870.13671 284.75132,870.51865 C 284.75268,870.51865 284.75268,870.51933 284.75473,870.52001 C 285.39630,870.89238 285.96476,871.50593 286.44439,872.34495 C 285.69009,871.72594 284.74585,871.41369 283.62055,871.41369 C 281.71908,871.41369 280.08135,872.31079 278.88568,874.00865 C 277.77609,875.59446 277.21583,877.60319 277.21583,879.98293 C 277.21583,881.42047 277.59298,882.57174 278.33703,883.40598 C 279.11183,884.27848 280.19955,884.72053 281.57219,884.72053 C 282.17276,884.72053 282.74805,884.63103 283.28986,884.45612 C 282.78221,884.93576 282.26841,885.31359 281.75051,885.58005 z M 284.06329,880.53157 C 283.38961,881.51476 282.59705,881.97595 281.57150,881.97595 C 280.73453,881.97595 280.47353,881.68010 280.38813,881.58377 C 280.38539,881.58308 280.38539,881.58172 280.38471,881.58035 C 280.10117,881.26333 279.95837,880.72561 279.95837,879.98156 C 279.95837,878.17507 280.35260,876.69448 281.13013,875.58284 C 281.81611,874.61059 282.60798,874.15555 283.62055,874.15555 C 284.34684,874.15555 284.65156,874.38922 284.81759,874.56549 C 285.07791,874.84699 285.21524,875.31979 285.21524,875.95658 C 285.21387,877.86829 284.82647,879.40695 284.06329,880.53157 z M 289.30718,885.70714 L 286.29955,885.70714 C 286.39042,885.25620 286.49564,884.74035 286.49564,884.74035 C 286.51340,884.64879 286.52365,884.55724 286.52365,884.46637 C 286.52365,883.94710 286.22712,883.46268 285.74544,883.23038 C 285.64910,883.18392 285.54934,883.15454 285.44686,883.13131 C 285.76388,882.82249 286.05904,882.47267 286.32961,882.07843 C 287.41050,880.48511 287.95709,878.42718 287.95709,875.95658 C 287.95709,874.69258 287.61684,873.65132 286.95273,872.85192 C 287.22261,873.00702 287.54100,873.07261 287.86212,873.01863 C 288.42921,872.92229 288.87742,872.48365 288.98332,871.91861 C 288.98332,871.91861 292.27246,854.32032 292.64756,852.31774 L 295.67364,852.31774 C 295.12500,855.19077 289.68706,883.71070 289.30718,885.70714 z " />
        <path
           id="path1920"
           d="M 310.64144,872.18713 C 309.85435,871.43078 308.82470,871.04543 307.58120,871.04543 C 306.14366,871.04543 304.89264,871.45332 303.86504,872.25682 C 302.86067,873.04460 302.09612,874.17946 301.59189,875.63067 C 301.44568,876.05018 301.51263,876.51342 301.76953,876.87622 C 302.02712,877.23697 302.44389,877.45220 302.88800,877.45220 L 310.35585,877.45220 C 311.03089,877.45220 311.58637,877.06138 311.69091,876.39317 L 311.78793,875.77483 C 311.78861,875.76527 311.74556,876.02012 311.74693,876.01055 L 311.85215,875.22551 C 311.85147,873.99977 311.43264,872.94894 310.64144,872.18713 z M 305.29370,874.70966 C 305.38389,874.61879 305.45768,874.49444 305.55538,874.41723 C 306.09515,873.99567 306.75857,873.78865 307.58120,873.78865 C 308.26991,873.78865 308.57327,874.00319 308.73998,874.16511 C 308.84451,874.26623 308.96750,874.43295 309.04129,874.70966 L 305.29370,874.70966 L 305.29370,874.70966 z M 317.59139,875.77278 C 317.59139,873.17851 316.71684,871.06934 314.99165,869.50403 C 313.29584,867.97493 311.02679,867.20013 308.24736,867.20013 C 306.18533,867.20013 304.27225,867.57455 302.55868,868.31245 C 300.83144,869.06334 299.33036,870.17497 298.09232,871.61935 C 297.05926,872.80819 296.25781,874.15213 295.71805,875.60266 C 295.17077,877.03200 294.89064,878.54402 294.89064,880.08541 C 294.89064,882.87305 295.82395,885.08197 297.66256,886.65070 C 299.45197,888.16681 301.94718,888.93273 305.08531,888.93273 C 306.59938,888.93273 308.10798,888.80086 309.56944,888.54055 C 311.04319,888.26793 312.53471,887.85594 314.00983,887.31413 C 314.45941,887.14878 314.79010,886.76138 314.88233,886.29268 L 315.77123,881.80377 C 315.78763,881.71495 315.79651,881.62544 315.79651,881.53731 C 315.79651,881.34805 315.74595,881.16562 315.67080,880.99413 C 316.31646,880.99344 316.87467,880.54182 317.00927,879.91050 L 317.20468,878.99018 C 317.20058,879.01204 317.51692,877.31008 317.51692,877.31008 C 317.52853,877.24791 317.52170,877.30667 317.52512,877.24312 L 317.59139,875.77278 z M 314.79898,876.94250 C 314.79898,876.94250 314.79283,876.97256 314.79283,876.97393 C 314.79283,876.97529 314.79146,877.01014 314.79146,877.01014 C 314.79215,876.99716 314.79215,876.98076 314.79215,876.97939 C 314.78053,877.04225 314.59742,878.02407 314.55438,878.25159 C 312.67887,878.25159 302.13302,878.25159 302.13302,878.25159 C 301.40946,878.25159 300.80821,878.89930 300.76175,879.62149 L 300.75082,879.79094 C 300.75150,879.77659 300.72964,880.19200 300.72964,880.19200 C 300.72964,881.79625 301.25642,883.04317 302.29426,883.89723 C 303.23304,884.68296 304.59338,885.08539 306.32745,885.08539 C 307.65909,885.08539 309.07272,884.88451 310.52598,884.48823 C 311.19145,884.30922 311.87811,884.07897 312.57502,883.81865 C 312.46365,884.38301 312.41446,884.63513 312.34818,884.96924 C 311.25295,885.33545 310.15702,885.64155 309.07887,885.84037 C 307.78344,886.07199 306.43813,886.18951 305.08463,886.18951 C 302.61402,886.18951 300.71461,885.64155 299.43899,884.56066 C 298.22555,883.52486 297.63386,882.06067 297.63386,880.08473 C 297.63386,878.88017 297.85113,877.69748 298.28431,876.56945 C 298.71202,875.41613 299.34470,874.35847 300.16733,873.41081 C 301.13958,872.27731 302.30793,871.41096 303.64640,870.83020 C 305.01152,870.24193 306.56043,869.94267 308.24599,869.94267 C 310.35585,869.94267 311.96010,870.46467 313.15031,871.53873 C 314.29133,872.57384 314.84749,873.95946 314.84749,875.77210 C 314.84749,875.77210 314.79624,876.89262 314.79146,876.96983 C 314.79419,876.96778 314.79419,876.96778 314.79898,876.94250 z M 312.23750,880.99481 C 311.40463,881.33370 310.58747,881.63228 309.80994,881.84067 C 308.58762,882.17409 307.41585,882.34217 306.32813,882.34217 C 305.27047,882.34217 304.48133,882.14949 304.04678,881.78601 C 303.94361,881.70060 303.70926,881.48675 303.57603,880.99481 L 312.23750,880.99481 L 312.23750,880.99481 z M 314.79215,876.97939 C 314.79215,876.97871 314.79283,876.96983 314.79283,876.96983 L 314.79215,876.97598 L 314.79215,876.97939 z " />
        <path
           id="path1922"
           d="M 329.47504,868.27761 C 329.36094,868.33773 329.25572,868.41357 329.14366,868.47917 C 329.09242,868.35277 329.03093,868.23115 328.94347,868.12320 C 328.68248,867.80549 328.29234,867.62033 327.88035,867.62033 L 322.07483,867.62033 C 321.41892,867.62033 320.85524,868.08493 320.72748,868.72855 L 316.15248,892.13987 C 316.07391,892.54298 316.17981,892.95703 316.43944,893.27474 C 316.70044,893.59108 317.08852,893.77419 317.49915,893.77419 L 323.28896,893.77419 C 323.94419,893.77419 324.50718,893.31095 324.63426,892.66938 L 327.34059,879.00316 C 327.62960,877.49729 328.16116,876.35969 328.92298,875.61359 C 329.63628,874.92215 330.52655,874.58326 331.64092,874.58326 C 332.08776,874.58326 332.50454,874.62972 332.87827,874.72196 C 333.23424,874.80873 333.56356,874.93650 333.85531,875.10116 C 334.23929,875.31706 334.70390,875.33619 335.10291,875.15172 C 335.50397,874.96656 335.79094,874.60034 335.87497,874.16853 L 336.89027,868.95675 C 336.96543,868.57072 336.87729,868.17034 336.63679,867.85810 C 336.39629,867.54586 336.03964,867.35250 335.64677,867.32722 L 334.69638,867.26368 C 334.70526,867.26436 334.82483,867.27734 334.83303,867.27802 L 333.93115,867.20150 C 332.30981,867.20013 330.81009,867.56225 329.47504,868.27761 z M 326.20299,870.36355 C 326.05609,871.08642 325.90783,871.81544 325.90783,871.81544 C 325.89006,871.90768 325.88050,871.99855 325.88050,872.08942 C 325.88050,872.63192 326.20504,873.13615 326.72225,873.35410 C 326.89238,873.42516 327.07002,873.45796 327.24562,873.45864 C 327.16841,873.52628 327.08164,873.57616 327.00853,873.64858 C 325.83472,874.79711 325.04147,876.42050 324.64656,878.47774 C 324.64656,878.47774 322.53124,889.16366 322.16160,891.03097 C 321.22146,891.03097 320.39200,891.03097 319.16353,891.03097 C 319.68826,888.34582 322.83801,872.22744 323.20287,870.36287 C 324.14369,870.36355 324.96973,870.36355 326.20299,870.36355 z M 330.75748,870.70244 C 331.70856,870.19411 332.73479,869.95087 333.90177,869.94609 C 333.73301,870.81449 333.66605,871.15816 333.49114,872.05048 C 332.91448,871.91246 332.29205,871.84072 331.64023,871.84072 C 330.55114,871.84072 329.57411,872.08122 328.68862,872.50552 C 329.27143,871.74712 329.93623,871.13083 330.75748,870.70244 z " />
        <path
           id="path1924"
           d="M 340.84420,849.26227 C 340.51761,849.33880 340.00654,849.60048 339.71412,849.83961 C 339.44150,850.08968 339.26318,850.44292 339.26318,850.84330 L 339.25088,858.07337 L 339.26318,861.52170 L 339.26318,864.81903 C 339.26318,865.21258 339.42306,865.56923 339.68200,865.82682 C 339.75579,865.90881 339.88014,866.01266 339.97238,866.07483 C 340.25251,866.24223 340.49028,866.33378 340.84420,866.34676 C 341.06899,866.35496 341.27464,866.28391 341.46322,866.19030 C 341.75770,866.02086 343.95296,864.36468 344.16886,864.20206 C 345.06733,865.86644 346.29990,868.16077 346.48096,868.51948 C 346.51717,868.59327 346.55953,868.66227 346.60941,868.72855 C 347.16488,869.47055 348.04217,869.69124 348.84498,869.29018 C 348.84498,869.28881 351.88267,867.82394 351.88267,867.82394 C 351.93938,867.79729 351.97696,867.77474 352.02821,867.73921 C 352.44772,867.46045 352.76611,866.97330 352.76611,866.38093 C 352.76611,866.11036 352.70052,865.81725 352.54884,865.51252 C 352.53312,865.48246 350.46836,861.63580 350.27090,861.26890 C 350.37134,861.24226 352.23113,860.77150 352.53927,860.69361 C 352.55225,860.69361 353.51563,860.40392 353.88868,859.85664 C 354.06905,859.53551 354.21048,859.03470 353.91396,858.40338 C 353.77867,858.11505 353.56072,857.83902 353.32637,857.63200 L 342.22845,849.62917 C 342.19497,849.60526 342.10752,849.55470 341.97497,849.48706 C 341.64974,849.29165 341.14824,849.18985 340.84420,849.26227 z M 342.00640,861.52102 L 341.99410,858.05971 C 341.99410,858.05971 341.99956,854.76580 342.00366,852.84862 C 343.72885,854.09348 347.71148,856.96515 349.88965,858.53525 C 349.73866,858.57351 347.87614,859.04426 347.87614,859.04426 C 347.46551,859.14743 347.13550,859.42893 346.96537,859.81564 C 346.88953,859.98782 346.85196,860.17093 346.85196,860.35199 C 346.85196,860.57951 346.90935,860.80635 347.02003,861.01269 C 347.02003,861.01269 349.10529,864.89624 349.62592,865.86713 C 349.10802,866.11719 348.93448,866.20055 348.47466,866.42260 C 347.72036,865.00556 346.29580,862.36346 345.81958,861.49164 C 345.62895,861.14114 345.30031,860.88834 344.91018,860.80430 C 344.52141,860.71957 344.11830,860.80566 343.80059,861.04548 C 343.80059,861.04548 342.04398,862.36892 342.00571,862.39762 C 342.00640,862.04438 342.00640,861.52102 342.00640,861.52102 z " />
        <path
           style="fill:#ffffff"
           id="path1928"
           d="M 169.51897,850.97106 L 175.32517,850.97106 L 170.67297,875.58899 L 178.46125,869.02713 L 185.26567,869.02713 L 174.76901,877.37977 L 182.39673,887.08524 L 175.80070,887.08524 L 169.94736,879.29832 L 168.43193,887.08524 L 162.64349,887.08524 L 169.51897,850.97106 z " />
        <path
           style="fill:#ffffff"
           id="path1930"
           d="M 202.73551,873.92256 C 202.33718,873.69709 201.89580,873.52560 201.41275,873.40603 C 200.92902,873.28715 200.40838,873.22839 199.84949,873.22839 C 198.37574,873.22839 197.15000,873.70324 196.17228,874.64953 C 195.20412,875.59856 194.54821,876.96504 194.20522,878.75172 L 191.50026,892.41248 L 185.71183,892.41248 L 190.28614,869.00868 L 196.09097,869.00868 L 195.46307,872.10445 C 196.22557,870.97027 197.18279,870.10392 198.33269,869.50335 C 199.47166,868.89389 200.73976,868.58917 202.13836,868.58917 C 202.34196,868.58917 202.57290,868.60967 202.83185,868.65066 C 203.08943,868.66364 203.39689,868.68482 203.75081,868.71078 L 202.73551,873.92256 z " />
        <path
           style="fill:#ffffff"
           id="path1932"
           d="M 206.26651,880.06355 L 208.37910,869.01688 L 214.16890,869.01688 L 212.34669,878.44222 C 212.21687,879.05577 212.12054,879.57913 212.05631,880.01026 C 211.99140,880.44138 211.95861,880.78164 211.95861,881.02897 C 211.95861,881.70743 212.14650,882.23763 212.52365,882.61273 C 212.89943,882.99056 213.43715,883.17846 214.13679,883.17846 C 215.32836,883.17846 216.35596,882.71453 217.21616,881.78874 C 218.07500,880.86158 218.66669,879.57435 218.98986,877.92363 L 220.73076,869.01688 L 226.52057,869.01688 L 223.02100,887.10984 L 217.19976,887.10984 L 217.73133,884.46569 C 216.74131,885.50763 215.70483,886.28584 214.61916,886.80033 C 213.53280,887.31618 212.38837,887.57307 211.18449,887.57307 C 209.53924,887.57307 208.26500,887.13580 207.36312,886.26603 C 206.45987,885.39421 206.00824,884.16164 206.00824,882.56695 C 206.00824,882.19049 206.02942,881.79147 206.07315,881.37196 C 206.11620,880.95245 206.18110,880.51586 206.26651,880.06355 z " />
        <path
           style="fill:#ffffff"
           id="path1934"
           d="M 246.53002,869.59149 L 245.67528,874.07903 C 244.54588,873.54200 243.42400,873.13342 242.30690,872.85329 C 241.18843,872.57589 240.12940,872.43514 239.12982,872.43514 C 237.99017,872.43514 237.10878,872.58136 236.48498,872.87173 C 235.87280,873.17236 235.56670,873.59802 235.56670,874.14667 C 235.56670,874.46847 235.73820,874.72742 236.08255,874.92078 C 236.42554,875.11414 237.10332,875.31843 238.11383,875.53433 L 239.16261,875.72632 C 241.49452,876.22304 243.12747,876.86256 244.06215,877.64829 C 244.99751,878.42172 245.46484,879.50397 245.46484,880.89164 C 245.46484,882.98988 244.64154,884.62830 242.99834,885.80552 C 241.35514,886.98480 239.05398,887.57239 236.09827,887.57239 C 234.86091,887.57239 233.59828,887.47605 232.30900,887.28201 C 231.01904,887.08729 229.70175,886.79759 228.35849,886.40951 L 229.22894,881.87346 C 230.27020,882.48565 231.38867,882.94889 232.58298,883.25976 C 233.76567,883.57064 234.97980,883.72710 236.22740,883.72710 C 237.44152,883.72710 238.35502,883.58225 238.96857,883.29119 C 239.58076,883.00081 239.88822,882.57584 239.88822,882.01626 C 239.88822,881.62954 239.71535,881.32755 239.37168,881.11301 C 239.02733,880.89711 238.31812,880.67642 237.24270,880.45095 L 236.19460,880.25759 C 234.13053,879.82647 232.65745,879.19242 231.77607,878.35339 C 230.89469,877.51369 230.45400,876.35149 230.45400,874.86612 C 230.45400,872.85534 231.21718,871.30574 232.74423,870.21802 C 234.25966,869.13166 236.43169,868.58848 239.25827,868.58848 C 240.49493,868.58848 241.70837,868.66911 242.90200,868.83104 C 244.10587,869.00390 245.31453,869.25670 246.53002,869.59149 z " />
        <path
           style="fill:#ffffff"
           id="path1936"
           d="M 262.66207,878.96558 L 262.53362,879.62764 C 262.26442,880.92785 261.73218,881.93427 260.93688,882.64279 C 260.14159,883.36361 259.15225,883.72232 257.96956,883.72232 C 257.20706,883.72232 256.61264,883.53579 256.18493,883.15796 C 255.74492,882.78149 255.52491,882.26564 255.52491,881.60973 C 255.52491,880.74133 255.89523,880.08473 256.63382,879.64267 C 257.36215,879.19310 258.44851,878.96558 259.88947,878.96558 L 262.66207,878.96558 L 262.66207,878.96558 z M 269.11188,875.38470 C 269.16586,874.94401 269.19182,874.54158 269.19182,874.17468 C 269.19182,872.29234 268.54206,870.88623 267.24185,869.96180 C 265.94095,869.04762 263.95067,868.58985 261.27509,868.58985 C 259.92090,868.58985 258.60976,868.67047 257.34029,868.83240 C 256.08722,868.98203 254.85875,869.21024 253.66103,869.51018 L 252.79399,873.91778 C 253.83184,873.42380 254.90726,873.05279 256.02368,872.80614 C 257.13600,872.55813 258.29068,872.43446 259.48567,872.43446 C 260.80707,872.43446 261.80118,872.61279 262.46735,872.96944 C 263.14444,873.33702 263.48265,873.87747 263.48265,874.59077 C 263.48265,874.64475 263.47718,874.70488 263.46830,874.77047 C 263.46830,874.83469 263.45190,874.94264 263.41979,875.09296 L 263.35488,875.54800 L 259.95301,875.54800 C 256.60102,875.54800 254.04023,876.15540 252.26516,877.37021 C 250.49078,878.59389 249.60325,880.35666 249.60325,882.65577 C 249.60325,884.16233 250.10338,885.35390 251.10433,886.23460 C 252.11417,887.12760 253.46835,887.57239 255.16894,887.57239 C 256.40356,887.57239 257.54458,887.32027 258.59882,886.81536 C 259.65170,886.29814 260.65197,885.50148 261.59758,884.42606 L 261.11453,887.10505 L 266.88725,887.10505 L 268.90213,876.78945 C 268.99915,876.28453 269.06884,875.81583 269.11188,875.38470 z " />
        <path
           style="fill:#ffffff"
           id="path1938"
           d="M 279.37693,882.50819 C 278.85971,881.92880 278.60350,881.09183 278.60350,879.99523 C 278.60350,877.89357 279.07698,876.16633 280.02259,874.81283 C 280.96752,873.47231 282.17139,872.80136 283.63490,872.80136 C 284.56889,872.80136 285.29996,873.08149 285.82742,873.63902 C 286.34191,874.19723 286.60086,874.97544 286.60086,875.97297 C 286.60086,878.17370 286.13830,879.95492 285.21387,881.31662 C 284.27920,882.68037 283.06986,883.36156 281.58722,883.36156 C 280.62043,883.36156 279.88321,883.07734 279.37693,882.50819 z M 285.45642,869.35030 C 284.58666,868.84333 283.53173,868.58985 282.29642,868.58985 C 280.88826,868.58985 279.56482,868.93899 278.32815,869.63863 C 277.10309,870.33827 276.00239,871.36518 275.02399,872.72210 C 274.24919,873.79890 273.65135,874.99252 273.23389,876.30571 C 272.82599,877.61891 272.62170,878.96968 272.62170,880.35735 C 272.62170,882.58540 273.21203,884.34543 274.39540,885.63676 C 275.57741,886.92878 277.18508,887.57376 279.21637,887.57376 C 280.36763,887.57376 281.42597,887.32027 282.39413,886.81331 C 283.36092,886.31591 284.28535,885.53906 285.16810,884.48003 L 284.63585,887.09139 L 290.45640,887.09139 L 297.34485,850.97175 L 291.52294,850.97175 L 287.65032,871.68358 C 287.04701,870.62523 286.31663,869.84838 285.45642,869.35030 z " />
        <path
           style="fill:#ffffff"
           id="path1940"
           d="M 302.89688,876.09733 C 303.31503,874.89345 303.92312,873.97791 304.71841,873.35479 C 305.50277,872.74192 306.46068,872.43446 307.58940,872.43446 C 308.47146,872.43446 309.17315,872.68726 309.69925,873.19218 C 310.22603,873.69778 310.48771,874.38034 310.48771,875.24122 C 310.48771,875.38129 310.46722,875.52682 310.42759,875.67713 C 310.41529,875.81651 310.39411,875.95794 310.36131,876.09664 L 302.89688,876.09664 L 302.89688,876.09733 z M 316.16546,877.14200 C 316.20577,876.67057 316.22696,876.21826 316.22696,875.78850 C 316.22696,873.58709 315.50955,871.83662 314.07747,870.53778 C 312.63788,869.23893 310.69679,868.58917 308.25556,868.58917 C 306.37391,868.58917 304.65897,868.92191 303.11074,869.58875 C 301.57413,870.25765 300.25137,871.23673 299.14451,872.52738 C 298.20984,873.60417 297.49926,874.79301 297.01690,876.09528 C 296.52154,877.38660 296.27558,878.72234 296.27558,880.09908 C 296.27558,882.47813 297.03876,884.31742 298.56444,885.62037 C 300.10174,886.92194 302.27855,887.57239 305.09556,887.57239 C 306.53515,887.57239 307.95152,887.44872 309.33713,887.20071 C 310.73368,886.94312 312.13706,886.55504 313.54454,886.03851 L 314.43276,881.55097 C 312.94876,882.27111 311.52966,882.81360 310.17616,883.17914 C 308.83085,883.54536 307.55114,883.72778 306.33838,883.72778 C 304.92885,883.72778 303.87529,883.43535 303.17701,882.85118 C 302.46781,882.26769 302.11252,881.38494 302.11252,880.20635 C 302.11252,880.14144 302.11799,880.04374 302.12960,879.91255 C 302.13848,879.79572 302.14395,879.70280 302.14395,879.63789 L 315.67558,879.63789 L 315.87167,878.71961 C 316.00149,878.15115 316.09987,877.62506 316.16546,877.14200 z " />
        <path
           style="fill:#ffffff"
           id="path1942"
           d="M 334.52830,873.92256 C 334.12997,873.69709 333.68860,873.52560 333.20554,873.40603 C 332.72112,873.28715 332.19981,873.22839 331.64160,873.22839 C 330.16921,873.22839 328.94279,873.70324 327.96439,874.64953 C 326.99691,875.59856 326.34032,876.96504 325.99665,878.75172 L 323.29237,892.41248 L 317.50394,892.41248 L 322.07825,869.00868 L 327.88308,869.00868 L 327.25518,872.10445 C 328.01768,870.97027 328.97422,870.10392 330.12412,869.50335 C 331.26240,868.89389 332.53187,868.58917 333.92910,868.58917 C 334.13407,868.58917 334.36501,868.60967 334.62259,868.65066 C 334.88086,868.66364 335.18832,868.68482 335.54292,868.71078 L 334.52830,873.92256 z " />
        <path
           style="fill:#ffffff"
           id="path1944"
           d="M 340.89613,850.62739 C 340.74786,850.69503 340.64059,850.86311 340.63445,851.18150 C 340.62010,851.94742 340.61668,852.71333 340.61395,853.47857 C 340.60848,854.84232 340.61395,856.20471 340.62078,857.56777 C 340.62693,858.89258 340.63513,860.21739 340.63513,861.54220 C 340.63513,862.38532 340.63513,863.22913 340.63513,864.07088 C 340.63513,864.27449 340.63581,864.46990 340.63513,864.68102 C 340.63445,864.89214 340.84420,865.01581 341.00135,864.89009 C 341.15849,864.76437 341.33750,864.64139 341.50626,864.51431 C 341.99410,864.15014 342.48193,863.77914 342.96977,863.40814 C 343.51841,862.99204 344.06637,862.57526 344.61434,862.17078 C 344.90198,862.69688 345.51622,863.83380 346.12499,864.96388 C 346.84922,866.30714 347.56253,867.64014 347.70533,867.92369 C 347.86247,868.13481 348.01962,868.18674 348.22937,868.08083 C 349.22486,867.61008 350.21898,867.14001 351.26639,866.61528 C 351.42422,866.51143 351.42422,866.35360 351.31832,866.14521 C 350.69315,864.97003 350.16295,863.98548 349.68195,863.09521 C 349.15790,862.12364 348.69330,861.26412 348.22869,860.39025 C 348.89759,860.21124 349.57741,860.04385 350.25861,859.87714 C 350.72663,859.76235 351.19397,859.64757 351.65857,859.52868 C 351.89566,859.46787 352.13411,859.41731 352.36573,859.34352 C 352.62536,859.26153 352.77431,858.94861 352.46480,858.73065 C 352.21746,858.55643 352.03299,858.41568 351.78770,858.23940 C 350.21420,857.11000 348.64069,855.97992 347.07196,854.85052 C 345.73280,853.88646 344.39775,852.92241 343.06816,851.95903 C 342.51815,851.56070 341.96882,851.16374 341.42222,850.76267 C 341.22477,850.62056 341.04302,850.55975 340.89613,850.62739 z " />
      </g>
    </g>
  </g>
</svg>
