<?xml version="1.0" encoding="UTF-8" standalone="no"?>
<!-- Created with Inkscape (http://www.inkscape.org/) -->
<svg
   xmlns:dc="http://purl.org/dc/elements/1.1/"
   xmlns:cc="http://web.resource.org/cc/"
   xmlns:rdf="http://www.w3.org/1999/02/22-rdf-syntax-ns#"
   xmlns:svg="http://www.w3.org/2000/svg"
   xmlns="http://www.w3.org/2000/svg"
   xmlns:sodipodi="http://inkscape.sourceforge.net/DTD/sodipodi-0.dtd"
   xmlns:inkscape="http://www.inkscape.org/namespaces/inkscape"
   sodipodi:docname="krusader_logo_full_color.svg"
   sodipodi:docbase="/home/kwaigon/work/krusader_signs/ready/krusader_logo_png_and_svg"
   inkscape:version="0.41"
   sodipodi:version="0.32"
   id="svg2470"
   height="297mm"
   width="210mm">
  <defs
     id="defs3" />
  <sodipodi:namedview
     inkscape:window-y="0"
     inkscape:window-x="85"
     inkscape:window-height="541"
     inkscape:window-width="640"
     inkscape:current-layer="layer1"
     inkscape:document-units="px"
     inkscape:cy="520.00000"
     inkscape:cx="375.00000"
     inkscape:zoom="0.35000000"
     inkscape:pageshadow="2"
     inkscape:pageopacity="0.0"
     borderopacity="1.0"
     bordercolor="#666666"
     pagecolor="#ffffff"
     id="base" />
  <metadata
     id="metadata4">
    <rdf:RDF
       id="RDF5">
      <cc:Work
         id="Work6"
         rdf:about="">
        <dc:format
           id="format7">image/svg+xml</dc:format>
        <dc:type
           rdf:resource="http://purl.org/dc/dcmitype/StillImage"
           id="type9" />
      </cc:Work>
    </rdf:RDF>
  </metadata>
  <g
     id="layer1"
     inkscape:groupmode="layer"
     inkscape:label="Layer 1">
    <g
       transform="matrix(1.254800,0.000000,0.000000,1.254756,73.94619,113.0689)"
       id="g2128">
      <g
         id="g2084">
        <path
           style="fill:#232380"
           id="path1694"
           d="M 104.02327,326.07307 L 103.53441,328.63794 C 102.88852,328.33042 102.24543,328.09674 101.60608,327.93690 C 100.96673,327.77707 100.36010,327.69668 99.788984,327.69668 C 99.136549,327.69668 98.631800,327.77987 98.275672,327.94625 C 97.925152,328.11917 97.749425,328.36127 97.749425,328.67533 C 97.749425,328.86041 97.847570,329.00716 98.044796,329.11839 C 98.241087,329.22962 98.628996,329.34646 99.207588,329.46891 L 99.807678,329.58014 C 101.14152,329.86336 102.07718,330.22884 102.61184,330.67750 C 103.14650,331.12056 103.41476,331.73841 103.41476,332.53199 C 103.41476,333.73217 102.94366,334.66876 102.00334,335.34176 C 101.06301,336.01569 99.745987,336.35219 98.054143,336.35219 C 97.346560,336.35219 96.624022,336.29611 95.886528,336.18581 C 95.148099,336.07551 94.393780,335.91007 93.626375,335.68760 L 94.124580,333.09562 C 94.721867,333.44614 95.361215,333.71067 96.044495,333.88827 C 96.720298,334.06680 97.414795,334.15653 98.128921,334.15653 C 98.823418,334.15653 99.346861,334.07428 99.697381,333.90696 C 100.04790,333.74152 100.22363,333.49849 100.22363,333.17881 C 100.22363,332.95729 100.12455,332.78530 99.928257,332.66191 C 99.731966,332.53947 99.325363,332.41328 98.710317,332.28429 L 98.111161,332.17306 C 96.929675,331.92722 96.086558,331.56455 95.582744,331.08504 C 95.077995,330.60553 94.826555,329.94001 94.826555,329.09128 C 94.826555,327.94158 95.263069,327.05546 96.136098,326.43387 C 97.003518,325.81322 98.245761,325.50196 99.863761,325.50196 C 100.57134,325.50196 101.26584,325.54869 101.94912,325.64030 C 102.63614,325.73751 103.32783,325.88146 104.02327,326.07307 z " />
        <path
           style="fill:#232380"
           id="path1696"
           d="M 111.05984,325.74966 L 114.38090,325.74966 L 112.36003,336.08299 L 109.04832,336.08299 L 111.05984,325.74966 z M 111.83379,321.72756 L 115.15578,321.72756 L 114.62953,324.42142 L 111.29913,324.42142 L 111.83379,321.72756 z " />
        <path
           style="fill:#232380"
           id="path1698"
           d="M 130.56931,327.46581 C 131.07967,326.83300 131.65826,326.34695 132.30415,326.00764 C 132.95565,325.67021 133.63146,325.50102 134.33343,325.50102 C 135.25506,325.50102 135.98228,325.75620 136.51133,326.26656 C 137.04599,326.77131 137.31425,327.46674 137.31425,328.35192 C 137.31425,328.53606 137.29836,328.74544 137.26845,328.97912 C 137.24321,329.21841 137.20396,329.48947 137.14881,329.79139 L 135.92152,336.08299 L 132.59111,336.08299 L 133.63426,330.69433 L 133.66137,330.55599 C 133.82120,329.79326 133.90159,329.30440 133.90159,329.08848 C 133.90159,328.75105 133.80438,328.48372 133.61089,328.28649 C 133.41741,328.08926 133.15475,327.99112 132.82199,327.99112 C 132.18825,327.99112 131.65359,328.25284 131.21614,328.77535 C 130.77308,329.29131 130.45621,330.03255 130.26553,330.99811 L 129.26912,336.08205 L 125.93871,336.08205 L 126.99962,330.69339 C 127.09122,330.23258 127.15665,329.88206 127.19310,329.64183 C 127.23049,329.40815 127.24825,329.22401 127.24825,329.08754 C 127.24825,328.74357 127.15291,328.47343 126.96223,328.27621 C 126.77155,328.08552 126.50702,327.99018 126.16865,327.99018 C 125.55921,327.99018 125.02736,328.25845 124.57215,328.79311 C 124.11040,329.33525 123.79166,330.06994 123.61313,330.99811 L 122.61672,336.08205 L 119.30500,336.08205 L 121.31652,325.74872 L 124.63758,325.74872 L 124.33286,327.26204 C 124.84976,326.67784 125.40031,326.23852 125.98451,325.94221 C 126.56871,325.64778 127.17721,325.49915 127.81189,325.49915 C 128.52508,325.49915 129.13732,325.68049 129.64768,326.04410 C 130.15710,326.41425 130.46556,326.88815 130.56931,327.46581 z " />
        <path
           style="fill:#232380"
           id="path1700"
           d="M 146.38945,334.58837 L 145.32854,340.01349 L 142.00655,340.01349 L 144.78454,325.74966 L 148.10560,325.74966 L 147.80088,327.26297 C 148.30563,326.66008 148.83374,326.21702 149.38803,325.93473 C 149.94139,325.64591 150.54708,325.50102 151.20513,325.50102 C 152.36792,325.50102 153.28675,325.87024 153.96349,326.60773 C 154.64022,327.34616 154.97859,328.35192 154.97859,329.62594 C 154.97859,330.41952 154.86175,331.19160 154.62807,331.94124 C 154.38785,332.69182 154.04668,333.37417 153.60362,333.98922 C 153.04279,334.76503 152.41372,335.35204 151.71268,335.75116 C 151.00510,336.15029 150.24891,336.35125 149.44318,336.35125 C 148.73560,336.35125 148.13270,336.20637 147.63450,335.91754 C 147.14283,335.63432 146.72782,335.19127 146.38945,334.58837 z M 149.85820,327.89952 C 149.00947,327.89952 148.31778,328.29023 147.78218,329.07165 C 147.24004,329.85962 146.96991,330.88034 146.96991,332.13473 C 146.96991,332.70024 147.12320,333.14329 147.43073,333.46297 C 147.73264,333.79012 148.15327,333.95276 148.69540,333.95276 C 149.52543,333.95276 150.21152,333.56859 150.75272,332.79932 C 151.29393,332.02443 151.56499,331.03457 151.56499,329.82878 C 151.56499,329.20158 151.41731,328.72207 151.12194,328.38931 C 150.83311,328.06216 150.41155,327.89952 149.85820,327.89952 z " />
        <path
           style="fill:#232380"
           id="path1702"
           d="M 162.86389,321.72756 L 166.18588,321.72756 L 163.39014,336.08392 L 160.07842,336.08392 L 162.86389,321.72756 z " />
        <path
           style="fill:#232380"
           id="path1704"
           d="M 181.63587,331.30377 L 181.52557,331.83001 L 173.79450,331.83001 C 173.79450,331.86740 173.79170,331.91975 173.78516,331.98705 C 173.77861,332.06182 173.77581,332.11697 173.77581,332.15343 C 173.77581,332.82362 173.97864,333.32557 174.38431,333.65739 C 174.78437,333.98922 175.38633,334.15560 176.19300,334.15560 C 176.88749,334.15560 177.61938,334.05091 178.38959,333.84247 C 179.16447,333.63309 179.97581,333.32276 180.82453,332.91055 L 180.31792,335.47542 C 179.51125,335.77079 178.70833,335.99232 177.90914,336.13907 C 177.11557,336.28022 176.30703,336.35125 175.48261,336.35125 C 173.87115,336.35125 172.62517,335.97924 171.74560,335.23520 C 170.87164,334.49116 170.43512,333.43960 170.43512,332.08052 C 170.43512,331.29348 170.57626,330.53075 170.85948,329.79232 C 171.13616,329.04829 171.54183,328.36874 172.07742,327.75276 C 172.71116,327.01434 173.46735,326.45444 174.34692,326.07401 C 175.23304,325.69264 176.21356,325.50196 177.29036,325.50196 C 178.68683,325.50196 179.79728,325.87398 180.62170,326.61801 C 181.43958,327.36205 181.84805,328.36594 181.84805,329.62594 C 181.84805,329.87177 181.83216,330.13069 181.80225,330.40083 C 181.76486,330.67750 181.70878,330.97848 181.63587,331.30377 z M 178.51671,329.79139 C 178.53540,329.71100 178.54756,329.63155 178.55410,329.55117 C 178.56625,329.46517 178.57279,329.38292 178.57279,329.30160 C 178.57279,328.80993 178.42511,328.42015 178.12880,328.13039 C 177.83343,327.84063 177.43337,327.69668 176.92956,327.69668 C 176.28366,327.69668 175.73592,327.87241 175.28725,328.22293 C 174.83204,328.57999 174.48433,329.10250 174.24411,329.79232 L 178.51671,329.79232 L 178.51671,329.79139 z " />
        <path
           style="fill:#232380"
           id="path1706"
           d="M 187.91532,332.51329 L 191.23638,332.51329 L 190.54375,336.08392 L 187.21335,336.08392 L 187.91532,332.51329 z " />
        <path
           style="fill:#232380"
           id="path1708"
           d="M 219.54531,331.30377 L 219.43501,331.83001 L 211.70394,331.83001 C 211.70394,331.86740 211.70021,331.91975 211.69460,331.98705 C 211.68805,332.06182 211.68525,332.11697 211.68525,332.15343 C 211.68525,332.82362 211.88808,333.32557 212.29469,333.65739 C 212.69381,333.98922 213.29671,334.15560 214.10337,334.15560 C 214.79787,334.15560 215.52975,334.05091 216.29996,333.84247 C 217.07485,333.63309 217.88618,333.32276 218.73491,332.91055 L 218.22829,335.47542 C 217.42163,335.77079 216.61870,335.99232 215.81952,336.13907 C 215.02594,336.28022 214.21741,336.35125 213.39298,336.35125 C 211.78153,336.35125 210.53554,335.97924 209.65597,335.23520 C 208.78201,334.49116 208.34550,333.43960 208.34550,332.08052 C 208.34550,331.29348 208.48664,330.53075 208.76986,329.79232 C 209.04654,329.04829 209.45220,328.36874 209.98780,327.75276 C 210.62154,327.01434 211.37773,326.45444 212.25730,326.07401 C 213.14248,325.69264 214.12393,325.50196 215.19980,325.50196 C 216.59627,325.50196 217.70672,325.87398 218.53114,326.61801 C 219.34902,327.36205 219.75843,328.36594 219.75843,329.62594 C 219.75843,329.87177 219.74254,330.13069 219.71262,330.40083 C 219.67430,330.67750 219.61822,330.97848 219.54531,331.30377 z M 216.42615,329.79139 C 216.44484,329.71100 216.45700,329.63155 216.46354,329.55117 C 216.47569,329.46517 216.48223,329.38292 216.48223,329.30160 C 216.48223,328.80993 216.33455,328.42015 216.03918,328.13039 C 215.74380,327.84063 215.34374,327.69668 214.83993,327.69668 C 214.19404,327.69668 213.64629,327.87241 213.19763,328.22293 C 212.74242,328.57999 212.39377,329.10250 212.15448,329.79232 L 216.42615,329.79232 L 216.42615,329.79139 z " />
        <path
           style="fill:#232380"
           id="path1710"
           d="M 235.63278,330.18771 L 234.47933,336.08299 L 231.17603,336.08299 L 231.45271,334.55192 C 230.91057,335.16696 230.33852,335.62217 229.73656,335.91661 C 229.13367,336.20544 228.47843,336.35032 227.77178,336.35032 C 226.79406,336.35032 226.01544,336.09514 225.43778,335.58478 C 224.86574,335.08003 224.57971,334.39769 224.57971,333.53681 C 224.57971,332.22073 225.08633,331.21216 226.10144,330.51019 C 227.12215,329.81569 228.59246,329.46798 230.51145,329.46798 L 232.45847,329.46798 L 232.49492,329.20999 C 232.51362,329.12400 232.52296,329.06231 232.52296,329.02492 C 232.52857,328.98846 232.53231,328.95388 232.53231,328.92303 C 232.53231,328.51737 232.33789,328.20984 231.95091,328.00047 C 231.56861,327.79763 231.00030,327.69575 230.24412,327.69575 C 229.56177,327.69575 228.89999,327.76679 228.26064,327.90886 C 227.62129,328.05094 227.00251,328.26219 226.40615,328.54541 L 226.90530,326.02634 C 227.59418,325.85435 228.29803,325.72536 229.01776,325.63936 C 229.74311,325.54683 230.49369,325.50102 231.26857,325.50102 C 232.80057,325.50102 233.93813,325.76275 234.68217,326.28525 C 235.42620,326.81431 235.79822,327.61630 235.79822,328.69309 C 235.79822,328.90247 235.78233,329.13335 235.75242,329.38572 C 235.72718,329.63155 235.68792,329.89888 235.63278,330.18771 z M 230.47499,331.43369 C 229.65057,331.43369 229.02898,331.56362 228.61116,331.82067 C 228.18680,332.07304 227.97462,332.44880 227.97462,332.94700 C 227.97462,333.32276 228.09987,333.61720 228.35224,333.83218 C 228.59901,334.04810 228.93925,334.15560 229.37670,334.15560 C 230.05343,334.15560 230.61894,333.94996 231.07415,333.53775 C 231.52842,333.13114 231.83314,332.55723 231.98737,331.81225 L 232.06121,331.43463 L 230.47499,331.43463 L 230.47499,331.43369 z " />
        <path
           style="fill:#232380"
           id="path1712"
           d="M 251.36879,326.07307 L 250.88086,328.63794 C 250.23497,328.33042 249.59188,328.09674 248.95254,327.93690 C 248.31319,327.77707 247.70655,327.69668 247.13544,327.69668 C 246.48394,327.69668 245.97826,327.77987 245.62213,327.94625 C 245.27161,328.11917 245.09682,328.36127 245.09682,328.67533 C 245.09682,328.86041 245.19496,329.00716 245.39125,329.11839 C 245.58754,329.22962 245.97545,329.34646 246.55404,329.46891 L 247.15413,329.58014 C 248.48798,329.86336 249.42270,330.22884 249.95829,330.67750 C 250.49295,331.12056 250.76028,331.73841 250.76028,332.53199 C 250.76028,333.73217 250.28919,334.66876 249.34886,335.34176 C 248.40853,336.01569 247.09151,336.35219 245.39967,336.35219 C 244.69208,336.35219 243.96954,336.29611 243.23205,336.18581 C 242.49362,336.07551 241.74024,335.91007 240.97190,335.68760 L 241.47010,333.09562 C 242.06739,333.44614 242.70674,333.71067 243.39002,333.88827 C 244.06675,334.06680 244.76125,334.15653 245.47538,334.15653 C 246.16987,334.15653 246.69238,334.07428 247.04384,333.90696 C 247.39436,333.74152 247.57009,333.49849 247.57009,333.17881 C 247.57009,332.95729 247.47194,332.78530 247.27471,332.66191 C 247.07749,332.53853 246.67182,332.41328 246.05677,332.28429 L 245.45762,332.17306 C 244.27613,331.92722 243.43301,331.56455 242.92920,331.08504 C 242.42445,330.60553 242.17301,329.94001 242.17301,329.09128 C 242.17301,327.94158 242.60953,327.05546 243.48255,326.43387 C 244.34997,325.81322 245.59128,325.50196 247.21022,325.50196 C 247.91687,325.50196 248.61230,325.54869 249.29464,325.64030 C 249.98166,325.73751 250.67336,325.88146 251.36879,326.07307 z " />
        <path
           style="fill:#232380"
           id="path1714"
           d="M 257.05843,325.74966 L 260.17665,325.74966 L 261.59836,332.90961 L 265.26153,325.74966 L 268.79477,325.74966 L 262.25360,337.06164 C 261.52172,338.33473 260.84404,339.17130 260.22339,339.57136 C 259.60180,339.96395 258.79981,340.16211 257.81555,340.16211 L 255.81245,340.16211 L 256.15455,337.99356 L 257.19677,337.99356 C 257.73797,337.99356 258.15579,337.90476 258.45116,337.72623 C 258.75308,337.54209 259.01947,337.22148 259.25409,336.76720 L 259.55787,336.21385 L 257.05843,325.74966 z " />
        <path
           style="fill:#232380"
           id="path1716"
           d="M 271.74381,332.51329 L 275.06487,332.51329 L 274.37318,336.08392 L 271.04277,336.08392 L 271.74381,332.51329 z " />
        <path
           style="fill:#232380"
           id="path1718"
           d="M 295.68667,334.58837 L 294.62576,340.01349 L 291.30376,340.01349 L 294.08175,325.74966 L 297.40375,325.74966 L 297.09903,327.26297 C 297.60378,326.66008 298.13189,326.21702 298.68618,325.93473 C 299.23954,325.64591 299.84524,325.50102 300.50328,325.50102 C 301.66514,325.50102 302.58583,325.87024 303.26164,326.60773 C 303.93837,327.34616 304.27674,328.35192 304.27674,329.62594 C 304.27674,330.41952 304.15990,331.19160 303.92622,331.94124 C 303.68507,332.69182 303.34483,333.37417 302.90177,333.98922 C 302.34094,334.76503 301.71187,335.35204 301.01083,335.75116 C 300.30325,336.15029 299.54706,336.35125 298.74040,336.35125 C 298.03281,336.35125 297.43085,336.20637 296.93171,335.91754 C 296.44005,335.63432 296.02504,335.19127 295.68667,334.58837 z M 299.15635,327.89952 C 298.30762,327.89952 297.61593,328.29023 297.08033,329.07165 C 296.53913,329.85962 296.26806,330.88034 296.26806,332.13473 C 296.26806,332.70024 296.42229,333.14329 296.72981,333.46297 C 297.03079,333.79012 297.45235,333.95276 297.99356,333.95276 C 298.82452,333.95276 299.50967,333.56859 300.05087,332.79932 C 300.59208,332.02443 300.86315,331.03457 300.86315,329.82878 C 300.86315,329.20158 300.71546,328.72207 300.42009,328.38931 C 300.13126,328.06216 299.70970,327.89952 299.15635,327.89952 z " />
        <path
           style="fill:#232380"
           id="path1720"
           d="M 316.14769,325.50102 C 317.68530,325.50102 318.89389,325.89174 319.77347,326.67316 C 320.65210,327.45365 321.09236,328.51830 321.09236,329.86523 C 321.09236,330.64666 320.95402,331.40378 320.67734,332.13473 C 320.39973,332.87316 319.99686,333.54616 319.46875,334.15560 C 318.84062,334.88094 318.09938,335.42869 317.24505,335.79790 C 316.38978,336.16618 315.43637,336.35125 314.38481,336.35125 C 312.86495,336.35125 311.66570,335.96054 310.78613,335.18005 C 309.91124,334.39956 309.47566,333.33491 309.47566,331.98705 C 309.47566,331.21216 309.61680,330.45597 309.90002,329.71755 C 310.18324,328.97351 310.58891,328.29397 311.11796,327.67799 C 311.73394,326.96480 312.46583,326.42359 313.31455,326.05438 C 314.16889,325.68516 315.11389,325.50102 316.14769,325.50102 z M 315.87942,327.86306 C 315.02415,327.86306 314.32031,328.25097 313.76696,329.02585 C 313.21267,329.80167 312.93599,330.78874 312.93599,331.98705 C 312.93599,332.63948 313.08648,333.13769 313.38746,333.48166 C 313.68190,333.82003 314.11561,333.98922 314.68859,333.98922 C 315.54386,333.98922 316.24770,333.59944 316.80199,332.81801 C 317.35535,332.04313 317.63296,331.05326 317.63296,329.84747 C 317.63296,329.20158 317.48527,328.70898 317.18990,328.37061 C 316.88799,328.03225 316.45147,327.86306 315.87942,327.86306 z " />
        <path
           style="fill:#232380"
           id="path1722"
           d="M 327.19795,325.74966 L 330.24233,325.74966 L 330.60220,332.85353 L 333.72042,325.74966 L 336.34138,325.74966 L 336.71994,332.83577 L 339.81947,325.74966 L 343.06762,325.74966 L 338.34355,336.08299 L 334.83741,336.08299 L 334.49624,328.97912 L 331.34063,336.08299 L 327.91768,336.08299 L 327.19795,325.74966 z " />
        <path
           style="fill:#232380"
           id="path1724"
           d="M 358.67371,331.30377 L 358.56341,331.83001 L 350.83234,331.83001 C 350.83234,331.86740 350.82954,331.91975 350.82300,331.98705 C 350.81645,332.06182 350.81365,332.11697 350.81365,332.15343 C 350.81365,332.82362 351.01648,333.32557 351.42215,333.65739 C 351.82221,333.98922 352.42417,334.15560 353.23083,334.15560 C 353.92533,334.15560 354.65722,334.05091 355.42743,333.84247 C 356.20231,333.63309 357.01365,333.32276 357.86237,332.91055 L 357.35482,335.47542 C 356.54909,335.77079 355.74617,335.99232 354.94698,336.13907 C 354.15340,336.28022 353.34487,336.35125 352.52045,336.35125 C 350.90805,336.35125 349.66301,335.97924 348.78437,335.23520 C 347.90947,334.49116 347.47389,333.43960 347.47389,332.08052 C 347.47389,331.29348 347.61504,330.53075 347.89826,329.79232 C 348.17493,329.04829 348.58060,328.36874 349.11620,327.75276 C 349.74994,327.01434 350.50613,326.45444 351.38663,326.07401 C 352.27181,325.69264 353.25233,325.50196 354.32913,325.50196 C 355.72467,325.50196 356.83605,325.87398 357.65954,326.61801 C 358.47742,327.36205 358.88682,328.36594 358.88682,329.62594 C 358.88682,329.87177 358.87093,330.13069 358.84102,330.40083 C 358.80270,330.67750 358.74755,330.97848 358.67371,331.30377 z M 355.55548,329.79139 C 355.57418,329.71100 355.58539,329.63155 355.59287,329.55117 C 355.60502,329.46517 355.61157,329.38292 355.61157,329.30160 C 355.61157,328.80993 355.46388,328.42015 355.16757,328.13039 C 354.87314,327.84063 354.47308,327.69668 353.96926,327.69668 C 353.32337,327.69668 352.77563,327.87241 352.32696,328.22293 C 351.87175,328.57999 351.52404,329.10250 351.28475,329.79232 L 355.55548,329.79232 L 355.55548,329.79139 z " />
        <path
           style="fill:#232380"
           id="path1726"
           d="M 373.10018,328.56410 C 372.87304,328.43511 372.61973,328.33603 372.34305,328.26873 C 372.06638,328.20143 371.76820,328.16778 371.44853,328.16778 C 370.60541,328.16778 369.90530,328.43885 369.34541,328.98005 C 368.79112,329.52219 368.41536,330.30268 368.21907,331.32339 L 367.27781,336.08392 L 363.96609,336.08392 L 365.97668,325.75059 L 369.29867,325.75059 L 368.93880,327.52282 C 369.37532,326.87039 369.92306,326.37312 370.58111,326.02727 C 371.23261,325.67675 371.95888,325.50102 372.75807,325.50102 C 372.87491,325.50102 373.00764,325.50757 373.15533,325.51972 C 373.30208,325.53187 373.47780,325.55056 373.68157,325.57487 L 373.10018,328.56410 z " />
        <path
           style="fill:#232380"
           id="path1728"
           d="M 386.68727,321.72756 L 386.25356,323.89518 L 384.43553,323.89518 C 383.97471,323.89518 383.63728,323.97837 383.42136,324.14475 C 383.21198,324.31767 383.06710,324.61024 382.98671,325.02151 L 382.83061,325.75059 L 385.62542,325.75059 L 385.17396,328.11170 L 382.37821,328.11170 L 380.82844,336.08392 L 377.50738,336.08392 L 379.05715,328.11170 L 377.42419,328.11170 L 377.88501,325.75059 L 379.50862,325.75059 L 379.65630,325.03086 C 379.88344,323.88676 380.35734,323.05019 381.07708,322.52114 C 381.79681,321.99302 382.82033,321.72756 384.14950,321.72756 L 386.68727,321.72756 L 386.68727,321.72756 z " />
        <path
           style="fill:#232380"
           id="path1730"
           d="M 389.76437,332.06089 L 390.97296,325.74966 L 394.28561,325.74966 L 393.24339,331.12804 C 393.16955,331.47856 393.11347,331.77767 393.07701,332.02350 C 393.04056,332.26933 393.02093,332.46375 393.02093,332.60490 C 393.02093,332.99280 393.12842,333.29472 393.34434,333.50970 C 393.55839,333.72469 393.86685,333.83218 394.26691,333.83218 C 394.94926,333.83218 395.53626,333.56766 396.02886,333.03861 C 396.52052,332.50955 396.85982,331.77486 397.04396,330.83454 L 398.04038,325.75059 L 401.35302,325.75059 L 399.35085,336.08392 L 396.01951,336.08392 L 396.32423,334.57061 C 395.75872,335.16790 395.16424,335.61282 394.54359,335.90820 C 393.92293,336.20263 393.26770,336.35125 392.57787,336.35125 C 391.63661,336.35125 390.90753,336.10168 390.39156,335.60441 C 389.87373,335.10621 389.61574,334.40236 389.61574,333.49101 C 389.61574,333.27602 389.62883,333.04889 389.65313,332.80866 C 389.67837,332.56844 389.71576,332.31887 389.76437,332.06089 z " />
        <path
           style="fill:#232380"
           id="path1732"
           d="M 409.08129,321.72756 L 412.40235,321.72756 L 409.60754,336.08392 L 406.29582,336.08392 L 409.08129,321.72756 z " />
      </g>
      <g
         id="g2106">
        <path
           style="fill:#37aaff"
           id="path1688"
           d="M 150.97575,233.04662 L 150.98395,232.99674 C 152.53765,223.46414 161.88783,215.41690 171.40335,215.41690 L 350.11649,215.41690 C 354.53229,215.41690 358.40560,217.11134 361.02173,220.18457 C 363.14594,222.68319 364.25689,225.86027 364.25689,229.32636 C 364.25689,230.22619 364.18242,231.14584 364.03074,232.07847 C 364.01502,232.16319 355.96027,277.22375 355.96027,277.22375 C 354.40657,286.75499 345.05503,294.80837 335.54019,294.80837 L 156.82841,294.80837 C 152.41193,294.80837 148.53931,293.11393 145.92249,290.03524 C 143.79829,287.53730 142.68733,284.36022 142.68733,280.89413 C 142.68733,279.99498 142.76249,279.07397 142.91417,278.14271 C 142.92920,278.05799 150.97575,233.04662 150.97575,233.04662 z " />
        <path
           style="fill:#232380"
           id="path1690"
           d="M 171.40404,209.75760 C 159.07082,209.75760 147.40513,219.77189 145.39844,232.08735 L 145.40732,232.03679 L 137.32934,277.22443 C 136.32019,283.41598 137.84041,289.26727 141.61123,293.70152 C 145.32055,298.06539 150.72500,300.46836 156.82841,300.46836 L 335.54019,300.46836 C 347.87272,300.46836 359.53841,290.44928 361.54578,278.13383 L 361.53690,278.18439 L 369.61351,232.99743 C 370.62403,226.80520 369.10381,220.95390 365.33300,216.52376 C 361.62435,212.16057 356.21853,209.75760 350.11649,209.75760 L 171.40404,209.75760 z M 150.97575,233.04662 L 150.98395,232.99674 C 152.53765,223.46414 161.88783,215.41690 171.40335,215.41690 L 350.11649,215.41690 C 354.53229,215.41690 358.40560,217.11134 361.02173,220.18457 C 363.14594,222.68319 364.25689,225.86027 364.25689,229.32636 C 364.25689,230.22619 364.18242,231.14584 364.03074,232.07847 C 364.01502,232.16319 355.96027,277.22375 355.96027,277.22375 C 354.40657,286.75499 345.05503,294.80837 335.54019,294.80837 L 156.82841,294.80837 C 152.41193,294.80837 148.53931,293.11393 145.92249,290.03524 C 143.79829,287.53730 142.68733,284.36022 142.68733,280.89413 C 142.68733,279.99498 142.76249,279.07397 142.91417,278.14271 C 142.92920,278.05799 150.97575,233.04662 150.97575,233.04662 z " />
        <path
           style="fill:#232380"
           id="path1736"
           d="M 169.47046,232.76581 C 168.81181,232.76581 168.24609,233.23383 168.12310,233.88018 L 161.24421,270.00802 C 161.16837,270.40908 161.27359,270.82381 161.53527,271.13878 C 161.79559,271.45376 162.18299,271.63619 162.59157,271.63619 L 168.38205,271.63619 C 169.03865,271.63619 169.60301,271.17090 169.72872,270.52660 C 169.72872,270.52660 170.21451,268.02661 170.65520,265.76371 C 172.38654,268.06761 174.65696,271.08754 174.65696,271.08754 C 174.91591,271.43258 175.32175,271.63550 175.75288,271.63550 L 182.35096,271.63550 C 182.87569,271.63550 183.35532,271.33556 183.58421,270.86344 C 183.67713,270.67281 183.72222,270.46716 183.72222,270.26423 C 183.72222,269.96292 183.62247,269.66298 183.42911,269.41701 C 183.42911,269.41701 177.97478,262.47663 176.64109,260.77945 C 178.36287,259.40955 186.07463,253.27335 186.07463,253.27335 C 186.40805,253.00757 186.59253,252.60992 186.59253,252.20066 C 186.59253,252.04898 186.56725,251.89593 186.51600,251.74835 C 186.32333,251.19765 185.80407,250.82939 185.22058,250.82939 L 178.41479,250.82939 C 178.09094,250.82939 177.77801,250.94349 177.53136,251.15188 C 177.53136,251.15188 174.96578,253.31366 172.68717,255.23357 C 173.71203,249.81067 176.62538,234.39261 176.62538,234.39261 C 176.64109,234.30789 176.64929,234.22248 176.64929,234.13776 C 176.64929,233.82074 176.53929,233.51054 176.33432,233.26184 C 176.07332,232.94823 175.68592,232.76581 175.27802,232.76581 L 169.47046,232.76581 L 169.47046,232.76581 z M 173.62253,235.50835 C 173.08686,238.34585 169.27642,258.51040 169.27642,258.51040 C 169.26070,258.59581 169.25250,258.68122 169.25250,258.76525 C 169.25250,259.24694 169.50599,259.70061 169.93233,259.94931 C 170.43315,260.24243 171.06446,260.18777 171.50789,259.81472 C 171.50789,259.81472 178.22348,254.15678 178.91561,253.57261 C 179.24015,253.57261 180.13315,253.57261 181.29466,253.57261 C 178.21939,256.01930 173.86644,259.48266 173.86644,259.48266 C 173.52619,259.75322 173.34923,260.15360 173.34923,260.55672 C 173.34923,260.85393 173.44488,261.15250 173.64234,261.40394 C 173.64234,261.40394 177.45279,266.25223 179.52848,268.89365 C 178.01578,268.89365 177.01278,268.89365 176.43749,268.89365 C 175.72623,267.94667 170.99409,261.65059 170.99409,261.65059 C 170.66818,261.21741 170.11817,261.01654 169.59003,261.13816 C 169.06188,261.25977 168.65535,261.67997 168.55150,262.21290 C 168.55150,262.21290 167.56899,267.26138 167.25129,268.89365 C 166.30773,268.89365 165.47554,268.89365 164.24843,268.89365 C 164.79571,266.02061 170.22408,237.50683 170.60464,235.50903 C 171.55367,235.50835 172.39269,235.50835 173.62253,235.50835 z " />
        <path
           style="fill:#232380"
           id="path1738"
           d="M 197.64398,251.46890 C 197.52920,251.52834 197.42398,251.60555 197.31193,251.66978 C 197.26068,251.54406 197.19919,251.42176 197.11174,251.31381 C 196.85142,250.99541 196.46129,250.81026 196.04998,250.81026 L 190.24310,250.81026 C 189.58718,250.81026 189.02282,251.27554 188.89711,251.91916 L 184.32075,275.33048 C 184.24217,275.73291 184.34876,276.14764 184.60771,276.46535 C 184.86802,276.78169 185.25679,276.96480 185.66673,276.96480 L 191.45722,276.96480 C 192.11177,276.96480 192.67544,276.50224 192.80252,275.85999 L 195.50817,262.19377 C 195.79718,260.68722 196.32942,259.54962 197.09056,258.80420 C 197.80455,258.11207 198.69481,257.77387 199.80850,257.77387 C 200.25534,257.77387 200.67143,257.81965 201.04585,257.91188 C 201.40319,257.99866 201.73114,258.12710 202.02152,258.29108 C 202.40550,258.50699 202.87011,258.52612 203.27049,258.34164 C 203.67019,258.15648 203.95715,257.79095 204.04187,257.35846 L 205.05785,252.14668 C 205.13369,251.75996 205.04487,251.35958 204.80437,251.04734 C 204.56319,250.73510 204.20653,250.54174 203.81367,250.51646 L 202.86396,250.45292 C 202.87216,250.45292 202.99104,250.46658 202.99993,250.46727 L 202.09873,250.39143 C 200.47808,250.39143 198.97904,250.75355 197.64398,251.46890 z M 194.37193,253.55416 C 194.22504,254.27703 194.07677,255.00605 194.07677,255.00605 C 194.05832,255.09829 194.04876,255.18916 194.04876,255.28003 C 194.04876,255.82253 194.37398,256.32744 194.89120,256.54471 C 195.06133,256.61577 195.23829,256.64857 195.41388,256.64925 C 195.33667,256.71689 195.25058,256.76677 195.17611,256.83919 C 194.00298,257.98909 193.21110,259.61179 192.81551,261.66904 C 192.81551,261.66904 190.69950,272.35496 190.32987,274.22226 C 189.39041,274.22226 188.56027,274.22226 187.33180,274.22226 C 187.85653,271.53712 191.00696,255.41873 191.37181,253.55416 C 192.31264,253.55416 193.13936,253.55416 194.37193,253.55416 z M 198.92575,253.89373 C 199.87614,253.38472 200.90237,253.14148 202.07003,253.13670 C 201.90059,254.00510 201.83363,254.34877 201.66009,255.24177 C 201.08343,255.10307 200.46168,255.03133 199.80850,255.03133 C 198.72009,255.03133 197.74237,255.27115 196.85757,255.69613 C 197.43969,254.93773 198.10586,254.32212 198.92575,253.89373 z " />
        <path
           style="fill:#232380"
           id="path1740"
           d="M 220.69592,250.81845 C 220.04001,250.81845 219.47565,251.28374 219.34925,251.92736 L 217.60834,260.83685 C 217.33641,262.22451 216.85473,263.29994 216.17422,264.03306 C 215.57160,264.68282 214.91227,264.98550 214.09921,264.98550 C 213.91952,264.98550 213.59839,264.96432 213.45833,264.82357 C 213.34696,264.71288 213.29298,264.50586 213.29298,264.20592 L 213.37497,263.39013 C 213.37497,263.38876 213.65100,261.90271 213.65100,261.90271 L 215.47868,252.45072 C 215.55657,252.04898 215.44998,251.63493 215.19035,251.31791 C 214.93003,251.00225 214.54195,250.81914 214.13200,250.81914 L 208.34084,250.81914 C 207.68219,250.81914 207.11715,251.28648 206.99348,251.93282 C 206.99348,251.93282 204.88021,262.98360 204.88021,262.98496 L 204.66977,264.41362 C 204.67045,264.40679 204.59803,265.74526 204.59803,265.74526 C 204.59803,267.71847 205.19519,269.29608 206.37241,270.43163 C 207.53666,271.55488 209.14296,272.12402 211.14760,272.12402 C 212.55098,272.12402 213.90517,271.81861 215.17122,271.21872 C 215.41582,271.10257 215.64949,270.92151 215.89067,270.78145 C 215.94260,270.91468 216.00956,271.04450 216.10248,271.15723 C 216.36279,271.47562 216.75292,271.66010 217.16424,271.66010 L 222.98683,271.66010 C 223.64343,271.66010 224.20915,271.19413 224.33350,270.54983 L 227.83444,252.45141 C 227.91233,252.04898 227.80575,251.63356 227.54543,251.31791 C 227.28511,251.00225 226.89703,250.81914 226.48777,250.81914 L 220.69592,250.81914 L 220.69592,250.81845 z M 212.46967,253.56168 C 212.03786,255.79246 210.96176,261.35748 210.96176,261.35748 C 210.96654,261.33356 210.66181,262.98496 210.66181,262.98496 C 210.66181,262.98565 210.54976,264.20592 210.54976,264.20592 C 210.54976,265.51911 211.07517,266.31987 211.51655,266.76056 C 212.15402,267.40213 213.02447,267.72872 214.09921,267.72872 C 214.74966,267.72872 215.35569,267.59822 215.93303,267.39188 C 215.29898,267.94736 214.65468,268.42904 213.99604,268.74128 C 213.08664,269.17173 212.15538,269.38148 211.14760,269.38148 C 209.86037,269.38148 208.92159,269.07949 208.27729,268.45842 C 207.64803,267.85034 207.34193,266.96349 207.34193,265.74526 L 207.39864,264.69239 C 207.39933,264.68624 207.57424,263.49876 207.57492,263.49671 C 207.57492,263.49739 207.57492,263.49671 207.57492,263.49808 L 207.57492,263.49671 L 207.57492,263.49671 C 207.57492,263.49398 209.13066,255.36339 209.47502,253.56236 C 210.41789,253.56168 211.24394,253.56168 212.46967,253.56168 z M 224.82476,253.56168 C 224.33760,256.08079 222.19700,267.14728 221.85470,268.91756 C 220.91046,268.91756 220.07485,268.91756 218.83886,268.91756 C 218.93384,268.44544 219.04042,267.91388 219.04042,267.91388 C 219.05887,267.82437 219.06775,267.73282 219.06775,267.64331 C 219.06775,267.13908 218.78899,266.66628 218.32848,266.42714 C 218.14606,266.33217 217.94860,266.29459 217.75251,266.28571 C 217.89667,266.15589 218.04835,266.04521 218.18568,265.89831 C 219.21738,264.78599 219.92932,263.25963 220.30032,261.36431 C 220.30032,261.36431 221.49326,255.26158 221.82464,253.56236 C 222.76683,253.56168 223.59697,253.56168 224.82476,253.56168 z M 204.88021,262.98291 C 204.88021,262.98018 204.88021,262.97813 204.88021,262.97813 C 204.88021,262.97745 204.87816,262.99453 204.88021,262.98291 z M 207.57492,263.49603 C 207.57492,263.49876 207.57424,263.50149 207.57424,263.50149 C 207.57355,263.50218 207.57697,263.48578 207.57492,263.49603 z M 207.57492,263.49603 L 207.57492,263.49603 C 207.57492,263.49603 207.57492,263.49603 207.57492,263.49603 L 207.57492,263.49603 z " />
        <path
           style="fill:#232380"
           id="path1742"
           d="M 231.91409,252.27854 C 230.01535,253.63068 229.05130,255.57041 229.05130,258.04307 L 229.05130,258.04307 C 229.05130,259.91105 229.63957,261.41829 230.79903,262.52309 C 231.87992,263.55205 233.54294,264.28927 235.88509,264.77779 L 236.96530,264.97730 C 237.56724,265.10438 237.94371,265.20960 238.19446,265.29022 C 237.88973,265.40091 237.30829,265.53414 236.19802,265.53414 L 236.19802,265.53414 C 235.07340,265.53414 233.96450,265.39203 232.90206,265.11190 C 231.83415,264.83450 230.82363,264.41636 229.89374,263.86976 C 229.50907,263.64361 229.03900,263.61765 228.63315,263.80212 C 228.22662,263.98591 227.93556,264.35555 227.85084,264.79351 L 226.97971,269.33092 C 226.84647,270.02783 227.26462,270.71176 227.94581,270.90717 C 229.33553,271.30823 230.72388,271.61569 232.07396,271.81793 C 233.42679,272.02153 234.77073,272.12470 236.06889,272.12470 C 239.30609,272.12470 241.89695,271.44351 243.77040,270.10026 C 245.78734,268.65520 246.80947,266.62665 246.80947,264.06995 C 246.80947,262.26073 246.16995,260.81362 244.90937,259.76962 C 243.79773,258.83494 241.99875,258.11071 239.41814,257.56275 L 238.33315,257.36256 C 237.95259,257.28125 237.68134,257.21224 237.45450,257.15007 C 237.80091,257.06056 238.31539,256.98199 239.10044,256.98199 C 239.98114,256.98199 240.93836,257.10907 241.94683,257.36051 C 242.96691,257.61672 244.01500,257.99797 245.05900,258.49401 C 245.44298,258.67643 245.88914,258.67028 246.26902,258.47898 C 246.64754,258.28630 246.91605,257.92965 246.99531,257.51219 L 247.85005,253.02191 C 247.98328,252.32022 247.55557,251.63288 246.86618,251.44362 C 245.60559,251.09722 244.32793,250.82939 243.06939,250.64833 C 241.80881,250.47820 240.52021,250.39211 239.22889,250.39211 C 236.12218,250.39143 233.66046,251.02616 231.91409,252.27854 z M 239.52815,267.70822 C 241.00942,267.00721 241.23079,265.83204 241.23079,265.19389 C 241.23079,264.33095 240.81879,263.59783 240.07201,263.12913 C 239.57187,262.81552 238.77726,262.55589 237.49618,262.28601 L 236.41392,262.08581 C 234.20090,261.62394 233.16510,260.98784 232.69093,260.53622 C 232.08763,259.96161 231.79452,259.14582 231.79452,258.04238 C 231.79452,256.46477 232.33906,255.34289 233.50878,254.51002 C 234.78371,253.59584 236.70704,253.13328 239.22957,253.13328 C 240.39791,253.13328 241.56284,253.21117 242.69088,253.36285 C 243.42263,253.46807 244.16668,253.61838 244.91142,253.78851 C 244.79185,254.42051 244.75495,254.61387 244.61694,255.33537 C 243.94600,255.08326 243.27642,254.86394 242.61162,254.69723 C 241.38452,254.39113 240.20387,254.23672 239.10044,254.23672 C 237.74625,254.23672 236.69132,254.42188 235.87621,254.80244 C 234.38333,255.53488 234.16469,256.69503 234.16469,257.32156 C 234.16469,258.13872 234.60743,258.85681 235.37949,259.29135 C 235.85981,259.56192 236.60592,259.79695 237.79886,260.05043 L 238.88453,260.25131 C 241.46377,260.80063 242.63280,261.43742 243.15207,261.87401 C 243.77860,262.39327 244.06625,263.08813 244.06625,264.06859 C 244.06625,265.73570 243.46431,266.94367 242.17230,267.86947 C 240.77438,268.87247 238.72124,269.38012 236.06889,269.38012 C 234.90669,269.38012 233.70008,269.28720 232.48186,269.10477 C 231.64216,268.97769 230.78195,268.79116 229.91697,268.57867 C 230.03312,267.97537 230.06796,267.79294 230.20461,267.07964 C 230.85233,267.35294 231.51917,267.58592 232.20651,267.76425 C 233.49306,268.10382 234.83700,268.27600 236.19802,268.27600 C 237.63215,268.27668 238.72124,268.09152 239.52815,267.70822 z " />
        <path
           style="fill:#232380"
           id="path1744"
           d="M 264.80814,258.08064 L 264.80609,258.11686 C 264.80677,258.10661 264.80745,258.09499 264.80814,258.08064 z M 264.80609,258.11686 C 264.80472,258.13530 264.80335,258.14555 264.80404,258.14077 L 264.80609,258.11686 z M 270.54396,257.34957 C 270.54396,255.00537 269.69332,253.21117 268.01665,252.01823 C 266.45749,250.92231 264.24651,250.39143 261.25254,250.39143 C 259.84711,250.39143 258.46491,250.47683 257.14352,250.64423 C 255.85834,250.79932 254.56154,251.03846 253.30574,251.35412 C 252.79263,251.48257 252.40044,251.89730 252.29796,252.41861 L 251.42682,256.82758 C 251.32639,257.33591 251.52043,257.85722 251.92901,258.17562 C 252.33759,258.49401 252.88760,258.55482 253.35357,258.33344 C 254.29644,257.88455 255.28510,257.54498 256.29425,257.32088 C 257.30750,257.09609 258.37472,256.98131 259.46313,256.98131 C 260.81458,256.98131 261.47664,257.18355 261.79572,257.35299 C 260.87129,257.35299 259.93115,257.35299 259.93115,257.35299 C 256.31474,257.35299 253.47040,258.04648 251.46918,259.41365 C 249.30262,260.90859 248.20738,263.06764 248.20738,265.83545 C 248.20738,267.74580 248.86876,269.29540 250.17376,270.44393 C 251.43571,271.55898 253.10965,272.12470 255.14571,272.12470 C 256.58052,272.12470 257.93266,271.82476 259.16933,271.23239 C 259.40164,271.11829 259.62984,270.98164 259.85668,270.84499 C 259.90655,270.95773 259.95984,271.06909 260.04047,271.16475 C 260.30078,271.47699 260.68613,271.65668 261.09266,271.65668 L 266.86811,271.65668 C 267.52403,271.65668 268.08770,271.19208 268.21410,270.54846 L 270.22899,260.22944 C 270.23104,260.22466 270.44284,258.79600 270.45514,258.71538 C 270.45582,258.69010 270.54396,257.34957 270.54396,257.34957 z M 260.00084,264.79624 C 259.45356,265.29227 258.78467,265.52936 257.94496,265.52936 C 257.65732,265.52936 257.27128,265.48973 257.06016,265.30526 C 256.98295,265.23830 256.86680,265.13854 256.86680,264.78736 C 256.86680,264.39928 256.98227,264.19294 257.30818,263.99890 C 257.67713,263.77138 258.40137,263.51448 259.86556,263.51448 C 259.86556,263.51448 260.40327,263.51448 260.86241,263.51448 C 260.64787,264.03647 260.36774,264.46828 260.00084,264.79624 z M 267.73037,258.39562 C 267.73310,258.35872 267.72149,258.45916 267.72763,258.42227 L 267.53428,259.70950 C 267.53428,259.70950 266.08239,267.14728 265.73666,268.91278 L 262.73244,268.91278 C 262.82537,268.40308 262.92512,267.84760 262.92512,267.84760 C 262.93947,267.76630 262.94630,267.68567 262.94630,267.60437 C 262.94630,267.11653 262.68325,266.66218 262.25349,266.41621 C 263.03307,265.55806 263.57420,264.43959 263.85433,263.08130 L 263.98551,262.40557 C 264.06409,262.00383 263.95887,261.58773 263.69787,261.27071 C 263.43755,260.95436 263.04879,260.77194 262.63952,260.77194 L 259.86487,260.77194 C 258.14857,260.77194 256.84836,261.06027 255.89113,261.65332 C 254.76310,262.32495 254.13315,263.44274 254.13315,264.78804 C 254.13315,265.84707 254.52670,266.74280 255.27075,267.38026 C 255.93964,267.96717 256.84289,268.27258 257.94496,268.27258 C 258.27702,268.27258 258.59609,268.24525 258.90697,268.19947 C 258.59814,268.41948 258.28590,268.60874 257.97024,268.76315 C 257.10731,269.17719 256.18219,269.38080 255.14435,269.38080 C 253.77445,269.38080 252.74138,269.05489 251.98640,268.38600 C 251.27788,267.76288 250.94855,266.95187 250.94855,265.83477 C 250.94855,263.99685 251.62565,262.63651 253.01468,261.67587 C 254.54378,260.62914 256.87159,260.09553 259.92978,260.09553 L 263.33233,260.09553 C 264.01489,260.09553 264.59428,259.59403 264.68994,258.91762 L 264.75484,258.46258 C 264.75553,258.45711 264.73845,258.56096 264.73913,258.55482 L 264.81702,257.94468 C 264.81975,257.93033 264.81292,258.01710 264.80745,258.08064 L 264.83205,257.76704 C 264.83205,256.55086 264.21713,255.54718 263.10071,254.93978 C 262.21523,254.46629 261.02844,254.23740 259.46176,254.23740 C 258.17453,254.23740 256.90985,254.37405 255.70256,254.64188 C 255.32336,254.72592 254.95167,254.84754 254.57931,254.95822 C 254.68931,254.40001 254.73030,254.19367 254.80068,253.83292 C 255.68479,253.63956 256.57848,253.47490 257.47831,253.36695 C 258.69448,253.21254 259.96121,253.13397 261.25049,253.13397 C 263.62749,253.13397 265.37045,253.51248 266.43016,254.25790 C 267.36142,254.92065 267.79937,255.90452 267.79937,257.35026 L 267.73037,258.39562 z M 270.45309,258.73314 C 270.45309,258.74407 270.46129,258.66482 270.45651,258.69830 C 270.45651,258.69830 270.45309,258.73246 270.45309,258.73314 z " />
        <path
           style="fill:#232380"
           id="path1746"
           d="M 286.12805,251.33704 C 286.12942,251.33704 286.12942,251.33772 286.12942,251.33772 C 286.13078,251.33840 286.13147,251.33840 286.13147,251.33909 C 286.13078,251.33840 286.12942,251.33772 286.12805,251.33704 z M 298.38816,233.26253 C 298.12717,232.94892 297.74045,232.76581 297.33119,232.76581 L 291.50927,232.76581 C 290.84789,232.76581 290.28080,233.23656 290.15919,233.88496 C 290.15919,233.88496 287.59292,247.61268 286.81061,251.80369 C 286.59061,251.63425 286.36582,251.47573 286.12942,251.33840 C 285.05126,250.71050 283.75515,250.39211 282.27934,250.39211 C 280.63751,250.39211 279.07562,250.80547 277.63534,251.61922 C 276.23811,252.41861 274.98026,253.58696 273.89185,255.09487 C 273.03438,256.28645 272.36822,257.62151 271.90772,259.06588 C 271.45677,260.51504 271.22994,262.01544 271.22994,263.53497 C 271.22994,266.10807 271.94871,268.19674 273.36439,269.74155 C 274.81150,271.32326 276.77445,272.12470 279.19792,272.12470 C 280.56714,272.12470 281.85027,271.81588 283.01315,271.20711 C 283.16004,271.13195 283.30421,271.03561 283.44974,270.94884 C 283.48595,271.01238 283.50918,271.08139 283.55632,271.13810 C 283.81664,271.45718 284.20677,271.64233 284.61808,271.64233 L 290.44000,271.64233 C 291.09933,271.64233 291.66505,271.17363 291.78804,270.52728 L 298.67786,234.39466 C 298.75507,233.99155 298.64848,233.57750 298.38816,233.26253 z M 281.75051,268.77135 C 280.96410,269.18334 280.13259,269.38080 279.19860,269.38080 C 277.55335,269.38080 276.30712,268.89296 275.38815,267.88928 C 274.43708,266.85007 273.97384,265.42551 273.97384,263.53429 C 273.97384,262.29147 274.15968,261.06505 274.52522,259.88851 C 274.89485,258.72973 275.43188,257.65362 276.11922,256.69844 C 276.97533,255.50960 277.94348,254.60294 278.99226,254.00305 C 280.02396,253.41956 281.10075,253.13465 282.28071,253.13465 C 283.26458,253.13465 284.09677,253.32801 284.75132,253.70994 C 284.75268,253.70994 284.75268,253.71062 284.75473,253.71131 C 285.39630,254.08299 285.96476,254.69723 286.44439,255.53625 C 285.69009,254.91723 284.74585,254.60499 283.62055,254.60499 C 281.71908,254.60499 280.08135,255.50209 278.88568,257.19926 C 277.77609,258.78575 277.21583,260.79380 277.21583,263.17422 C 277.21583,264.61176 277.59298,265.76371 278.33703,266.59727 C 279.11183,267.46909 280.19955,267.91114 281.57219,267.91114 C 282.17276,267.91114 282.74805,267.82164 283.28986,267.64673 C 282.78221,268.12705 282.26841,268.50488 281.75051,268.77135 z M 284.06329,263.72355 C 283.38961,264.70674 282.59705,265.16792 281.57150,265.16792 C 280.73453,265.16792 280.47353,264.87208 280.38813,264.77574 C 280.38539,264.77506 280.38539,264.77369 280.38471,264.77233 C 280.10117,264.45598 279.95837,263.91827 279.95837,263.17422 C 279.95837,261.36773 280.35260,259.88714 281.13013,258.77550 C 281.81611,257.80325 282.60798,257.34889 283.62055,257.34889 C 284.34684,257.34889 284.65156,257.58188 284.81759,257.75815 C 285.07791,258.04033 285.21524,258.51245 285.21524,259.14992 C 285.21387,261.05890 284.82647,262.59825 284.06329,263.72355 z M 289.30718,268.89843 L 286.29955,268.89843 C 286.39042,268.44749 286.49564,267.93096 286.49564,267.93096 C 286.51340,267.83940 286.52365,267.74785 286.52365,267.65698 C 286.52365,267.13771 286.22712,266.65329 285.74544,266.42099 C 285.64910,266.37453 285.54934,266.34447 285.44686,266.32192 C 285.76388,266.01310 286.05904,265.66328 286.32961,265.26836 C 287.41050,263.67504 287.95709,261.61779 287.95709,259.14719 C 287.95709,257.88319 287.61684,256.84192 286.95273,256.04253 C 287.22261,256.19763 287.54100,256.26390 287.86212,256.20993 C 288.42921,256.11359 288.87742,255.67495 288.98332,255.10990 C 288.98332,255.10990 292.27246,237.51161 292.64756,235.50835 L 295.67364,235.50835 C 295.12500,238.38207 289.68706,266.90131 289.30718,268.89843 z " />
        <path
           style="fill:#232380"
           id="path1748"
           d="M 310.64144,255.37842 C 309.85435,254.62139 308.82470,254.23672 307.58120,254.23672 C 306.14366,254.23672 304.89264,254.64462 303.86504,255.44811 C 302.86067,256.23589 302.09612,257.37075 301.59189,258.82196 C 301.44568,259.24216 301.51263,259.70471 301.76953,260.06820 C 302.02712,260.42895 302.44389,260.64417 302.88800,260.64417 L 310.35585,260.64417 C 311.03089,260.64417 311.58637,260.25336 311.69091,259.58515 L 311.78793,258.96613 C 311.78861,258.95725 311.74556,259.21141 311.74693,259.20185 L 311.85215,258.41680 C 311.85147,257.19106 311.43264,256.14023 310.64144,255.37842 z M 305.29370,257.90095 C 305.38389,257.81008 305.45768,257.68505 305.55538,257.60852 C 306.09515,257.18628 306.75857,256.98062 307.58120,256.98062 C 308.26991,256.98062 308.57327,257.19516 308.73998,257.35641 C 308.84451,257.45753 308.96750,257.62424 309.04129,257.90163 L 305.29370,257.90163 L 305.29370,257.90095 z M 317.59139,258.96408 C 317.59139,256.36980 316.71684,254.26063 314.99165,252.69601 C 313.29584,251.16623 311.02679,250.39143 308.24736,250.39143 C 306.18533,250.39143 304.27225,250.76584 302.55868,251.50375 C 300.83144,252.25395 299.33036,253.36558 298.09232,254.81064 C 297.05926,255.99949 296.25781,257.34274 295.71805,258.79395 C 295.17077,260.22329 294.89064,261.73531 294.89064,263.27671 C 294.89064,266.06434 295.82395,268.27326 297.66256,269.84267 C 299.45197,271.35811 301.94718,272.12470 305.08531,272.12470 C 306.59938,272.12470 308.10798,271.99284 309.56944,271.73184 C 311.04319,271.45923 312.53471,271.04723 314.00983,270.50610 C 314.45941,270.34007 314.79010,269.95336 314.88233,269.48397 L 315.77123,264.99506 C 315.78763,264.90624 315.79651,264.81742 315.79651,264.72860 C 315.79651,264.53934 315.74595,264.35691 315.67080,264.18542 C 316.31646,264.18474 316.87467,263.73243 317.00927,263.10180 L 317.20468,262.18215 C 317.20058,262.20470 317.51692,260.50206 317.51692,260.50206 C 317.52853,260.43988 317.52170,260.49864 317.52512,260.43510 L 317.59139,258.96408 z M 314.79898,260.13379 C 314.79898,260.13379 314.79283,260.16385 314.79283,260.16454 C 314.79283,260.16590 314.79146,260.20075 314.79146,260.20075 C 314.79215,260.18777 314.79215,260.17137 314.79215,260.17068 C 314.78053,260.23286 314.59742,261.21468 314.55438,261.44288 C 312.67887,261.44288 302.13302,261.44288 302.13302,261.44288 C 301.40946,261.44288 300.80821,262.09060 300.76175,262.81210 L 300.75218,262.98223 C 300.75287,262.96788 300.73100,263.38329 300.73100,263.38329 C 300.73100,264.98755 301.25778,266.23447 302.29563,267.08784 C 303.23441,267.87425 304.59474,268.27668 306.32881,268.27668 C 307.66045,268.27668 309.07408,268.07581 310.52734,267.67953 C 311.19282,267.50052 311.87948,267.27026 312.57639,267.00926 C 312.46502,267.57362 312.41583,267.82642 312.34955,268.15985 C 311.25431,268.52606 310.15839,268.83216 309.08023,269.03166 C 307.78480,269.26260 306.43950,269.38012 305.08600,269.38012 C 302.61539,269.38012 300.71597,268.83216 299.44036,267.75127 C 298.22692,266.71615 297.63523,265.25128 297.63523,263.27534 C 297.63523,262.07078 297.85250,260.88809 298.28568,259.76074 C 298.71339,258.60742 299.34607,257.54908 300.16870,256.60142 C 301.14095,255.46792 302.30930,254.60157 303.64777,254.02081 C 305.01289,253.43254 306.56180,253.13328 308.24736,253.13328 C 310.35721,253.13328 311.96147,253.65528 313.15168,254.72934 C 314.29269,255.76445 314.84885,257.14938 314.84885,258.96271 C 314.84885,258.96271 314.79761,260.08255 314.79283,260.15975 C 314.79419,260.15839 314.79419,260.15907 314.79898,260.13379 z M 312.23750,264.18610 C 311.40463,264.52568 310.58747,264.82357 309.80994,265.03196 C 308.58762,265.36606 307.41585,265.53346 306.32813,265.53346 C 305.27047,265.53346 304.48133,265.34078 304.04678,264.97662 C 303.94361,264.89121 303.70926,264.67736 303.57603,264.18542 L 312.23750,264.18542 L 312.23750,264.18610 z M 314.79215,260.17137 C 314.79215,260.17068 314.79283,260.16112 314.79283,260.16112 L 314.79215,260.16727 L 314.79215,260.17137 z " />
        <path
           style="fill:#232380"
           id="path1750"
           d="M 329.47504,251.46890 C 329.36094,251.52834 329.25572,251.60555 329.14366,251.66978 C 329.09242,251.54406 329.03093,251.42176 328.94347,251.31381 C 328.68248,250.99541 328.29234,250.81026 327.88035,250.81026 L 322.07483,250.81026 C 321.41892,250.81026 320.85524,251.27554 320.72748,251.91916 L 316.15248,275.33048 C 316.07391,275.73291 316.17981,276.14764 316.43944,276.46535 C 316.70044,276.78169 317.08852,276.96480 317.49915,276.96480 L 323.28896,276.96480 C 323.94419,276.96480 324.50718,276.50224 324.63426,275.85999 L 327.34059,262.19377 C 327.62960,260.68722 328.16116,259.54962 328.92298,258.80420 C 329.63628,258.11207 330.52655,257.77387 331.64092,257.77387 C 332.08776,257.77387 332.50454,257.81965 332.87827,257.91188 C 333.23424,257.99866 333.56356,258.12710 333.85531,258.29108 C 334.23929,258.50767 334.70390,258.52544 335.10291,258.34164 C 335.50397,258.15648 335.79094,257.79095 335.87497,257.35846 L 336.89027,252.14668 C 336.96543,251.75996 336.87729,251.35958 336.63679,251.04734 C 336.39561,250.73510 336.03964,250.54174 335.64677,250.51646 L 334.69638,250.45292 C 334.70526,250.45292 334.82483,250.46658 334.83303,250.46727 L 333.93115,250.39074 C 332.30981,250.39143 330.81009,250.75355 329.47504,251.46890 z M 326.20299,253.55416 C 326.05609,254.27703 325.90783,255.00605 325.90783,255.00605 C 325.89006,255.09829 325.88050,255.18916 325.88050,255.28003 C 325.88050,255.82253 326.20504,256.32744 326.72225,256.54471 C 326.89238,256.61577 327.07002,256.64857 327.24562,256.64925 C 327.16841,256.71689 327.08164,256.76677 327.00853,256.83919 C 325.83472,257.98772 325.04147,259.61111 324.64656,261.66904 C 324.64656,261.66904 322.53124,272.35496 322.16160,274.22226 C 321.22146,274.22226 320.39200,274.22226 319.16353,274.22226 C 319.68826,271.53712 322.83801,255.41873 323.20287,253.55416 C 324.14369,253.55416 324.96973,253.55416 326.20299,253.55416 z M 330.75748,253.89373 C 331.70856,253.38472 332.73479,253.14148 333.90177,253.13670 C 333.73301,254.00510 333.66605,254.34877 333.49114,255.24109 C 332.91448,255.10307 332.29205,255.03133 331.64023,255.03133 C 330.55114,255.03133 329.57411,255.27183 328.68862,255.69613 C 329.27143,254.93773 329.93623,254.32212 330.75748,253.89373 z " />
        <path
           style="fill:#232380"
           id="path1752"
           d="M 340.84420,232.45357 C 340.51761,232.53009 340.00654,232.79245 339.71412,233.03091 C 339.44150,233.28097 339.26318,233.63421 339.26318,234.03391 L 339.25088,241.26467 L 339.26318,244.71231 L 339.26318,248.01033 C 339.26318,248.40387 339.42306,248.75984 339.68200,249.01743 C 339.75579,249.10010 339.88014,249.20395 339.97238,249.26613 C 340.25251,249.43352 340.49028,249.52508 340.84420,249.53806 C 341.06899,249.54626 341.27464,249.47520 341.46322,249.38159 C 341.75770,249.21215 343.95296,247.55665 344.16886,247.39336 C 345.06733,249.05705 346.29990,251.35207 346.48096,251.71077 C 346.51717,251.78456 346.55953,251.85357 346.60941,251.91916 C 347.16488,252.66184 348.04217,252.88253 348.84498,252.48147 C 348.84498,252.48078 351.88267,251.01523 351.88267,251.01523 C 351.93938,250.98858 351.97696,250.96604 352.02821,250.93051 C 352.44772,250.65106 352.76611,250.16459 352.76611,249.57154 C 352.76611,249.30097 352.70052,249.00786 352.54884,248.70245 C 352.53312,248.67307 350.46836,244.82641 350.27090,244.45883 C 350.37134,244.43218 352.23113,243.96211 352.53927,243.88422 C 352.55225,243.88422 353.51563,243.59453 353.88868,243.04793 C 354.06905,242.72681 354.21048,242.22531 353.91396,241.59467 C 353.77867,241.30566 353.56072,241.02963 353.32637,240.82261 L 342.22845,232.81978 C 342.19497,232.79587 342.10752,232.74599 341.97497,232.67767 C 341.64974,232.48295 341.14824,232.38114 340.84420,232.45357 z M 342.00640,244.71231 L 341.99410,241.25100 C 341.99410,241.25100 341.99956,237.95709 342.00366,236.04059 C 343.72885,237.28478 347.71148,240.15713 349.88965,241.72722 C 349.73866,241.76548 347.87614,242.23624 347.87614,242.23624 C 347.46551,242.33941 347.13550,242.62091 346.96537,243.00762 C 346.88953,243.17980 346.85196,243.36291 346.85196,243.54465 C 346.85196,243.77217 346.90935,243.99901 347.02003,244.20535 C 347.02003,244.20535 349.10529,248.08822 349.62592,249.05979 C 349.10802,249.30985 348.93448,249.39321 348.47466,249.61458 C 347.72036,248.19753 346.29580,245.55543 345.81958,244.68362 C 345.62895,244.33311 345.30031,244.08100 344.91018,243.99627 C 344.52141,243.91155 344.11830,243.99764 343.80059,244.23746 C 343.80059,244.23746 342.04398,245.56090 342.00571,245.58960 C 342.00640,245.23568 342.00640,244.71231 342.00640,244.71231 z " />
        <path
           style="fill:#ffffff"
           id="path1756"
           d="M 169.51897,234.16236 L 175.32517,234.16236 L 170.67297,258.78029 L 178.46125,252.21774 L 185.26567,252.21774 L 174.76901,260.57107 L 182.39673,270.27722 L 175.80070,270.27722 L 169.94736,262.48961 L 168.43193,270.27722 L 162.64349,270.27722 L 169.51897,234.16236 z " />
        <path
           style="fill:#ffffff"
           id="path1758"
           d="M 202.73551,257.11317 C 202.33718,256.88770 201.89580,256.71621 201.41275,256.59732 C 200.92902,256.47844 200.40838,256.41968 199.84949,256.41968 C 198.37574,256.41968 197.15000,256.89522 196.17228,257.84151 C 195.20412,258.79053 194.54821,260.15702 194.20522,261.94370 L 191.50026,275.60446 L 185.71183,275.60446 L 190.28614,252.20066 L 196.09097,252.20066 L 195.46307,255.29643 C 196.22557,254.16225 197.18279,253.29521 198.33269,252.69532 C 199.47166,252.08587 200.73976,251.78114 202.13836,251.78114 C 202.34196,251.78114 202.57290,251.80164 202.83185,251.84195 C 203.08943,251.85493 203.39689,251.87611 203.75081,251.90276 L 202.73551,257.11317 z " />
        <path
           style="fill:#ffffff"
           id="path1760"
           d="M 206.26651,263.25416 L 208.37910,252.20749 L 214.16890,252.20749 L 212.34669,261.63282 C 212.21687,262.24638 212.12054,262.76974 212.05631,263.20087 C 211.99140,263.63199 211.95861,263.97157 211.95861,264.21958 C 211.95861,264.89873 212.14650,265.42756 212.52365,265.80334 C 212.89943,266.18117 213.43715,266.36907 214.13679,266.36907 C 215.32836,266.36907 216.35596,265.90583 217.21616,264.97867 C 218.07500,264.05150 218.66669,262.76428 218.98986,261.11356 L 220.73076,252.20612 L 226.52057,252.20612 L 223.02100,270.29976 L 217.19976,270.29976 L 217.73133,267.65561 C 216.74131,268.69756 215.70483,269.47577 214.61916,269.99025 C 213.53280,270.50542 212.38837,270.76300 211.18449,270.76300 C 209.53924,270.76300 208.26500,270.32641 207.36312,269.45596 C 206.45987,268.58414 206.00824,267.35089 206.00824,265.75688 C 206.00824,265.38041 206.02942,264.98140 206.07315,264.56189 C 206.11620,264.14374 206.18110,263.70715 206.26651,263.25416 z " />
        <path
           style="fill:#ffffff"
           id="path1762"
           d="M 246.53002,252.78278 L 245.67528,257.27032 C 244.54588,256.73329 243.42400,256.32471 242.30690,256.04458 C 241.18843,255.76650 240.12940,255.62644 239.12982,255.62644 C 237.99017,255.62644 237.10878,255.77265 236.48498,256.06303 C 235.87280,256.36365 235.56670,256.78932 235.56670,257.33796 C 235.56670,257.65977 235.73820,257.91872 236.08255,258.11207 C 236.42554,258.30543 237.10332,258.50972 238.11383,258.72494 L 239.16261,258.91762 C 241.49452,259.41365 243.12747,260.05385 244.06215,260.83958 C 244.99751,261.61301 245.46484,262.69458 245.46484,264.08362 C 245.46484,266.18186 244.64154,267.81959 242.99834,268.99750 C 241.35514,270.17678 239.05398,270.76437 236.09827,270.76437 C 234.86091,270.76437 233.59828,270.66803 232.30900,270.47467 C 231.01904,270.27926 229.70175,269.98957 228.35849,269.60149 L 229.22894,265.06544 C 230.27020,265.67831 231.38867,266.14155 232.58298,266.45174 C 233.76567,266.76330 234.97980,266.91908 236.22740,266.91908 C 237.44152,266.91908 238.35502,266.77423 238.96857,266.48317 C 239.58076,266.19279 239.88822,265.76781 239.88822,265.20824 C 239.88822,264.82084 239.71535,264.51953 239.37168,264.30430 C 239.02733,264.08908 238.31812,263.86840 237.24270,263.64293 L 236.19460,263.44888 C 234.13053,263.01844 232.65745,262.38371 231.77607,261.54469 C 230.89469,260.70498 230.45400,259.54347 230.45400,258.05741 C 230.45400,256.04663 231.21718,254.49772 232.74423,253.41000 C 234.25966,252.32296 236.43169,251.78046 239.25827,251.78046 C 240.49493,251.78046 241.70837,251.86108 242.90200,252.02301 C 244.10587,252.19519 245.31453,252.44799 246.53002,252.78278 z " />
        <path
           style="fill:#ffffff"
           id="path1764"
           d="M 262.66207,262.15687 L 262.53362,262.81893 C 262.26442,264.11983 261.73218,265.12556 260.93688,265.83409 C 260.14159,266.55422 259.15225,266.91429 257.96956,266.91429 C 257.20706,266.91429 256.61264,266.72708 256.18493,266.34993 C 255.74492,265.97347 255.52491,265.45762 255.52491,264.80171 C 255.52491,263.93262 255.89523,263.27602 256.63382,262.83465 C 257.36215,262.38439 258.44851,262.15687 259.88947,262.15687 L 262.66207,262.15687 L 262.66207,262.15687 z M 269.11188,258.57668 C 269.16586,258.13599 269.19182,257.73287 269.19182,257.36597 C 269.19182,255.48364 268.54206,254.07821 267.24185,253.15310 C 265.94095,252.23823 263.95067,251.78114 261.27509,251.78114 C 259.92090,251.78114 258.60976,251.86177 257.34029,252.02370 C 256.08722,252.17264 254.85875,252.40085 253.66103,252.70216 L 252.79399,257.10976 C 253.83184,256.61577 254.90726,256.24409 256.02368,255.99744 C 257.13600,255.74942 258.29068,255.62644 259.48567,255.62644 C 260.80707,255.62644 261.80118,255.80476 262.46735,256.16141 C 263.14444,256.52900 263.48265,257.06944 263.48265,257.78275 C 263.48265,257.83673 263.47718,257.89685 263.46830,257.96176 C 263.46830,258.02667 263.45190,258.13394 263.41979,258.28425 L 263.35488,258.73929 L 259.95301,258.73929 C 256.60102,258.73929 254.04023,259.34669 252.26516,260.56150 C 250.49078,261.78519 249.60325,263.54795 249.60325,265.84775 C 249.60325,267.35362 250.10338,268.54519 251.10433,269.42658 C 252.11417,270.31889 253.46835,270.76437 255.16894,270.76437 C 256.40356,270.76437 257.54458,270.51225 258.59882,270.00733 C 259.65170,269.49012 260.65197,268.69346 261.59758,267.61735 L 261.11453,270.29635 L 266.88725,270.29635 L 268.90213,259.98143 C 268.99915,259.47583 269.06884,259.00712 269.11188,258.57668 z " />
        <path
           style="fill:#ffffff"
           id="path1766"
           d="M 279.37693,265.69880 C 278.85971,265.12010 278.60350,264.28244 278.60350,263.18652 C 278.60350,261.08418 279.07698,259.35763 280.02259,258.00412 C 280.96752,256.66428 282.17139,255.99197 283.63490,255.99197 C 284.56889,255.99197 285.29996,256.27210 285.82742,256.82963 C 286.34191,257.38784 286.60086,258.16605 286.60086,259.16358 C 286.60086,261.36431 286.13830,263.14552 285.21387,264.50791 C 284.27920,265.87166 283.06986,266.55286 281.58722,266.55286 C 280.62043,266.55286 279.88321,266.26863 279.37693,265.69880 z M 285.45642,252.54228 C 284.58666,252.03463 283.53173,251.78114 282.29642,251.78114 C 280.88826,251.78114 279.56482,252.13028 278.32815,252.82992 C 277.10309,253.52956 276.00239,254.55648 275.02399,255.91340 C 274.24919,256.99019 273.65135,258.18450 273.23389,259.49769 C 272.82599,260.81088 272.62170,262.16165 272.62170,263.54864 C 272.62170,265.77669 273.21203,267.53673 274.39540,268.82806 C 275.57741,270.12007 277.18508,270.76505 279.21637,270.76505 C 280.36763,270.76505 281.42597,270.51157 282.39413,270.00460 C 283.36092,269.50720 284.28535,268.73035 285.16810,267.67133 L 284.63585,270.28268 L 290.45640,270.28268 L 297.34485,234.16236 L 291.52294,234.16236 L 287.65032,254.87419 C 287.04701,253.81652 286.31663,253.03968 285.45642,252.54228 z " />
        <path
           style="fill:#ffffff"
           id="path1768"
           d="M 302.89688,259.28862 C 303.31503,258.08474 303.92312,257.16988 304.71841,256.54608 C 305.50277,255.93321 306.46068,255.62644 307.58940,255.62644 C 308.47146,255.62644 309.17315,255.87924 309.69925,256.38415 C 310.22603,256.88975 310.48771,257.57231 310.48771,258.43320 C 310.48771,258.57395 310.46722,258.71879 310.42759,258.86911 C 310.41529,259.00917 310.39411,259.15060 310.36131,259.28862 L 302.89688,259.28862 z M 316.16546,260.33330 C 316.20577,259.86186 316.22696,259.40955 316.22696,258.97979 C 316.22696,256.77838 315.50955,255.02791 314.07747,253.72907 C 312.63788,252.43022 310.69679,251.78114 308.25556,251.78114 C 306.37391,251.78114 304.65897,252.11388 303.11074,252.78073 C 301.57413,253.44894 300.25137,254.42871 299.14451,255.71936 C 298.20984,256.79615 297.49926,257.98499 297.01690,259.28657 C 296.52154,260.57790 296.27558,261.91364 296.27558,263.29037 C 296.27558,265.66942 297.03876,267.50871 298.56444,268.81166 C 300.10174,270.11324 302.27855,270.76368 305.09556,270.76368 C 306.53515,270.76368 307.95152,270.64002 309.33713,270.39200 C 310.73368,270.13442 312.13706,269.74634 313.54454,269.22980 L 314.43276,264.74226 C 312.94876,265.46240 311.52966,266.00490 310.17616,266.37043 C 308.83085,266.73665 307.55114,266.91908 306.33838,266.91908 C 304.92885,266.91908 303.87529,266.62733 303.17701,266.04248 C 302.46781,265.45830 302.11252,264.57624 302.11252,263.39696 C 302.11252,263.33205 302.11799,263.23435 302.12960,263.10385 C 302.13848,262.98701 302.14395,262.89341 302.14395,262.82918 L 315.67558,262.82918 L 315.87167,261.91090 C 316.00149,261.34245 316.09987,260.81635 316.16546,260.33330 z " />
        <path
           style="fill:#ffffff"
           id="path1770"
           d="M 334.52830,257.11317 C 334.12997,256.88770 333.68860,256.71621 333.20554,256.59732 C 332.72112,256.47844 332.19981,256.41968 331.64160,256.41968 C 330.16921,256.41968 328.94279,256.89522 327.96439,257.84151 C 326.99691,258.79053 326.34032,260.15702 325.99665,261.94370 L 323.29237,275.60446 L 317.50394,275.60446 L 322.07825,252.20066 L 327.88308,252.20066 L 327.25518,255.29643 C 328.01768,254.16225 328.97422,253.29521 330.12412,252.69532 C 331.26240,252.08587 332.53187,251.78114 333.92910,251.78114 C 334.13407,251.78114 334.36501,251.80164 334.62259,251.84195 C 334.88086,251.85493 335.18832,251.87611 335.54292,251.90276 L 334.52830,257.11317 z " />
        <path
           style="fill:#ffffff"
           id="path1772"
           d="M 340.89613,233.81869 C 340.74786,233.88633 340.64059,234.05372 340.63445,234.37280 C 340.62010,235.13871 340.61668,235.90463 340.61395,236.67054 C 340.60848,238.03361 340.61395,239.39668 340.62078,240.75975 C 340.62693,242.08456 340.63513,243.40937 340.63513,244.73418 C 340.63513,245.57798 340.63513,246.42042 340.63513,247.26286 C 340.63513,247.46646 340.63581,247.66187 340.63513,247.87299 C 340.63445,248.08412 340.84420,248.20778 341.00135,248.08207 C 341.15849,247.95635 341.33750,247.83268 341.50626,247.70697 C 341.99410,247.34211 342.48193,246.97111 342.96977,246.60011 C 343.51841,246.18333 344.06637,245.76792 344.61434,245.36276 C 344.90198,245.88886 345.51622,247.02577 346.12499,248.15517 C 346.84922,249.49843 347.56253,250.83144 347.70533,251.11567 C 347.86247,251.32610 348.01962,251.37803 348.22937,251.27281 C 349.22486,250.80206 350.21898,250.33199 351.26639,249.80794 C 351.42422,249.70409 351.42422,249.54626 351.31832,249.33718 C 350.69315,248.16201 350.16295,247.17745 349.68195,246.28719 C 349.15790,245.31562 348.69330,244.45610 348.22869,243.58291 C 348.89759,243.40322 349.57741,243.23651 350.25861,243.06980 C 350.72663,242.95501 351.19397,242.84023 351.65857,242.72134 C 351.89566,242.66122 352.13411,242.60929 352.36573,242.53618 C 352.62536,242.45419 352.77431,242.14127 352.46480,241.92331 C 352.21746,241.74977 352.03299,241.60834 351.78770,241.43206 C 350.21420,240.30266 348.64069,239.17258 347.07196,238.04318 C 345.73280,237.07912 344.39775,236.11575 343.06816,235.15169 C 342.51815,234.75336 341.96882,234.35571 341.42222,233.95533 C 341.22477,233.81185 341.04302,233.75104 340.89613,233.81869 z " />
      </g>
    </g>
  </g>
</svg>
