<?xml version="1.0" encoding="UTF-8" standalone="no"?>
<!-- Created with Inkscape (http://www.inkscape.org/) -->
<svg
   xmlns:dc="http://purl.org/dc/elements/1.1/"
   xmlns:cc="http://web.resource.org/cc/"
   xmlns:rdf="http://www.w3.org/1999/02/22-rdf-syntax-ns#"
   xmlns:svg="http://www.w3.org/2000/svg"
   xmlns="http://www.w3.org/2000/svg"
   xmlns:sodipodi="http://inkscape.sourceforge.net/DTD/sodipodi-0.dtd"
   xmlns:inkscape="http://www.inkscape.org/namespaces/inkscape"
   sodipodi:docname="krusader_logo_gray.svg"
   sodipodi:docbase="/home/kwaigon/work/krusader_signs/ready/krusader_logo_png_and_svg"
   inkscape:version="0.41"
   sodipodi:version="0.32"
   id="svg2523"
   height="297mm"
   width="210mm">
  <defs
     id="defs3" />
  <sodipodi:namedview
     inkscape:window-y="0"
     inkscape:window-x="85"
     inkscape:window-height="541"
     inkscape:window-width="640"
     inkscape:current-layer="layer1"
     inkscape:document-units="px"
     inkscape:cy="520.00000"
     inkscape:cx="375.00000"
     inkscape:zoom="0.35000000"
     inkscape:pageshadow="2"
     inkscape:pageopacity="0.0"
     borderopacity="1.0"
     bordercolor="#666666"
     pagecolor="#ffffff"
     id="base" />
  <metadata
     id="metadata4">
    <rdf:RDF
       id="RDF5">
      <cc:Work
         id="Work6"
         rdf:about="">
        <dc:format
           id="format7">image/svg+xml</dc:format>
        <dc:type
           rdf:resource="http://purl.org/dc/dcmitype/StillImage"
           id="type9" />
      </cc:Work>
    </rdf:RDF>
  </metadata>
  <g
     id="layer1"
     inkscape:groupmode="layer"
     inkscape:label="Layer 1">
    <g
       transform="matrix(1.254800,0.000000,0.000000,1.254800,45.37475,-269.2067)"
       id="g2277">
      <g
         id="g2233">
        <path
           style="fill:#323232"
           id="path1780"
           d="M 104.02327,627.22697 L 103.53441,629.79090 C 102.88852,629.48338 102.24543,629.24970 101.60608,629.08986 C 100.96673,628.93003 100.36010,628.84964 99.788984,628.84964 C 99.136549,628.84964 98.631800,628.93283 98.275672,629.09921 C 97.925152,629.27213 97.749425,629.51423 97.749425,629.82829 C 97.749425,630.01243 97.847570,630.16012 98.044796,630.27042 C 98.241087,630.38165 98.628996,630.49849 99.207588,630.62187 L 99.807678,630.73217 C 101.14152,631.01539 102.07718,631.38180 102.61184,631.83046 C 103.14650,632.27352 103.41476,632.89137 103.41476,633.68401 C 103.41476,634.88419 102.94366,635.82078 102.00334,636.49378 C 101.06301,637.16771 99.745987,637.50421 98.054143,637.50421 C 97.346560,637.50421 96.624022,637.44813 95.886528,637.33783 C 95.148099,637.22754 94.393780,637.06116 93.626375,636.84056 L 94.124580,634.24858 C 94.721867,634.59910 95.361215,634.86270 96.044495,635.04123 C 96.720298,635.21976 97.414795,635.30949 98.128921,635.30949 C 98.823418,635.30949 99.346861,635.22630 99.697381,635.05899 C 100.04790,634.89354 100.22363,634.64958 100.22363,634.33084 C 100.22363,634.11025 100.12455,633.93639 99.928257,633.81394 C 99.731966,633.69149 99.325363,633.56530 98.710317,633.43631 L 98.111161,633.32508 C 96.929675,633.07831 96.086558,632.71658 95.582744,632.23707 C 95.077995,631.75662 94.826555,631.09203 94.826555,630.24331 C 94.826555,629.09360 95.263069,628.20749 96.136098,627.58590 C 97.003518,626.96525 98.245761,626.65398 99.863761,626.65398 C 100.57134,626.65398 101.26584,626.70165 101.94912,626.79232 C 102.63614,626.89047 103.32783,627.03442 104.02327,627.22697 z " />
        <path
           style="fill:#323232"
           id="path1782"
           d="M 111.05984,626.90355 L 114.38090,626.90355 L 112.36003,637.23688 L 109.04832,637.23688 L 111.05984,626.90355 z M 111.83379,622.87958 L 115.15578,622.87958 L 114.62953,625.57438 L 111.29913,625.57438 L 111.83379,622.87958 z " />
        <path
           style="fill:#323232"
           id="path1784"
           d="M 130.56931,628.61877 C 131.07967,627.98596 131.65826,627.49991 132.30415,627.16060 C 132.95565,626.82317 133.63146,626.65305 134.33343,626.65305 C 135.25506,626.65305 135.98228,626.90823 136.51133,627.41952 C 137.04599,627.92333 137.31425,628.61877 137.31425,629.50395 C 137.31425,629.68809 137.29836,629.89840 137.26845,630.13208 C 137.24321,630.37137 137.20396,630.64150 137.14881,630.94341 L 135.92152,637.23501 L 132.59111,637.23501 L 133.63426,631.84635 L 133.66137,631.70895 C 133.82120,630.94622 133.90159,630.45642 133.90159,630.24144 C 133.90159,629.90401 133.80438,629.63668 133.61089,629.44038 C 133.41741,629.24316 133.15475,629.14501 132.82199,629.14501 C 132.18825,629.14501 131.65359,629.40580 131.21614,629.92924 C 130.77308,630.44521 130.45621,631.18644 130.26553,632.15201 L 129.26912,637.23595 L 125.93871,637.23595 L 126.99962,631.84729 C 127.09122,631.38647 127.15665,631.03595 127.19310,630.79573 C 127.23049,630.56205 127.24825,630.37791 127.24825,630.24144 C 127.24825,629.89840 127.15291,629.62733 126.96223,629.43010 C 126.77155,629.23942 126.50702,629.14408 126.16865,629.14408 C 125.55921,629.14408 125.02736,629.41141 124.57215,629.94607 C 124.11040,630.48727 123.79166,631.22290 123.61313,632.15014 L 122.61672,637.23408 L 119.30500,637.23408 L 121.31652,626.90075 L 124.63758,626.90075 L 124.33286,628.41313 C 124.84976,627.82893 125.40031,627.38961 125.98451,627.09424 C 126.56871,626.79887 127.17721,626.65025 127.81189,626.65025 C 128.52508,626.65025 129.13732,626.83252 129.64768,627.19519 C 130.15710,627.56814 130.46556,628.04111 130.56931,628.61877 z " />
        <path
           style="fill:#323232"
           id="path1786"
           d="M 146.38945,635.74133 L 145.32854,641.16738 L 142.00655,641.16738 L 144.78454,626.90355 L 148.10560,626.90355 L 147.80088,628.41593 C 148.30563,627.81210 148.83374,627.37091 149.38803,627.08769 C 149.94139,626.79887 150.54708,626.65305 151.20513,626.65305 C 152.36792,626.65305 153.28675,627.02320 153.96349,627.76069 C 154.64022,628.49912 154.97859,629.50488 154.97859,630.77890 C 154.97859,631.57248 154.86175,632.34456 154.62807,633.09514 C 154.38785,633.84572 154.04668,634.52807 153.60362,635.14311 C 153.04279,635.91799 152.41372,636.50500 151.71268,636.90506 C 151.00510,637.30512 150.24891,637.50515 149.44318,637.50515 C 148.73560,637.50515 148.13270,637.36027 147.63450,637.07144 C 147.14283,636.78728 146.72782,636.34423 146.38945,635.74133 z M 149.85820,629.05248 C 149.00947,629.05248 148.31778,629.44319 147.78218,630.22461 C 147.24004,631.01258 146.96991,632.03423 146.96991,633.28769 C 146.96991,633.85320 147.12320,634.29625 147.43073,634.61593 C 147.73264,634.94308 148.15327,635.10572 148.69540,635.10572 C 149.52543,635.10572 150.21152,634.72062 150.75272,633.95228 C 151.29393,633.17739 151.56499,632.18659 151.56499,630.98080 C 151.56499,630.35361 151.41731,629.87316 151.12194,629.54133 C 150.83311,629.21512 150.41155,629.05248 149.85820,629.05248 z " />
        <path
           style="fill:#323232"
           id="path1788"
           d="M 162.86389,622.87958 L 166.18588,622.87958 L 163.39014,637.23595 L 160.07842,637.23595 L 162.86389,622.87958 z " />
        <path
           style="fill:#323232"
           id="path1790"
           d="M 181.63587,632.45673 L 181.52557,632.98297 L 173.79450,632.98297 C 173.79450,633.02036 173.79170,633.07271 173.78516,633.14001 C 173.77861,633.21478 173.77581,633.26993 173.77581,633.30639 C 173.77581,633.97658 173.97864,634.47853 174.38431,634.81035 C 174.78437,635.14218 175.38633,635.30856 176.19300,635.30856 C 176.88749,635.30856 177.61938,635.20387 178.38959,634.99449 C 179.16447,634.78511 179.97581,634.47479 180.82453,634.06257 L 180.31792,636.62745 C 179.51125,636.92188 178.70833,637.14435 177.90914,637.29110 C 177.11557,637.43318 176.30703,637.50421 175.48261,637.50421 C 173.87115,637.50421 172.62517,637.13313 171.74560,636.38816 C 170.87164,635.64412 170.43512,634.59256 170.43512,633.23348 C 170.43512,632.44551 170.57626,631.68371 170.85948,630.94528 C 171.13616,630.20125 171.54183,629.52170 172.07742,628.90572 C 172.71116,628.16730 173.46735,627.60740 174.34692,627.22697 C 175.23304,626.84560 176.21356,626.65398 177.29036,626.65398 C 178.68683,626.65398 179.79728,627.02600 180.62170,627.77097 C 181.43958,628.51501 181.84805,629.51797 181.84805,630.77890 C 181.84805,631.02473 181.83216,631.28365 181.80225,631.55379 C 181.76486,631.83046 181.70878,632.13238 181.63587,632.45673 z M 178.51671,630.94435 C 178.53540,630.86396 178.54756,630.78451 178.55410,630.70413 C 178.56625,630.61813 178.57279,630.53494 178.57279,630.45362 C 178.57279,629.96289 178.42511,629.57218 178.12880,629.28335 C 177.83343,628.99265 177.43337,628.84871 176.92956,628.84871 C 176.28366,628.84871 175.73592,629.02443 175.28725,629.37495 C 174.83204,629.73295 174.48433,630.25453 174.24411,630.94435 L 178.51671,630.94435 z " />
        <path
           style="fill:#323232"
           id="path1792"
           d="M 187.91532,633.66532 L 191.23638,633.66532 L 190.54375,637.23595 L 187.21335,637.23595 L 187.91532,633.66532 z " />
        <path
           style="fill:#323232"
           id="path1794"
           d="M 219.54531,632.45673 L 219.43501,632.98297 L 211.70394,632.98297 C 211.70394,633.02036 211.70021,633.07271 211.69460,633.14001 C 211.68805,633.21478 211.68525,633.26993 211.68525,633.30639 C 211.68525,633.97658 211.88808,634.47853 212.29469,634.81035 C 212.69381,635.14218 213.29671,635.30856 214.10337,635.30856 C 214.79787,635.30856 215.52975,635.20387 216.29996,634.99449 C 217.07485,634.78511 217.88618,634.47479 218.73491,634.06257 L 218.22829,636.62745 C 217.42163,636.92188 216.61870,637.14435 215.81952,637.29110 C 215.02594,637.43318 214.21741,637.50421 213.39298,637.50421 C 211.78153,637.50421 210.53554,637.13313 209.65597,636.38816 C 208.78201,635.64412 208.34550,634.59256 208.34550,633.23348 C 208.34550,632.44551 208.48664,631.68371 208.76986,630.94528 C 209.04654,630.20125 209.45220,629.52170 209.98780,628.90572 C 210.62154,628.16730 211.37773,627.60740 212.25730,627.22697 C 213.14248,626.84560 214.12393,626.65398 215.19980,626.65398 C 216.59627,626.65398 217.70672,627.02600 218.53114,627.77097 C 219.34902,628.51501 219.75843,629.51797 219.75843,630.77890 C 219.75843,631.02473 219.74254,631.28365 219.71262,631.55379 C 219.67430,631.83046 219.61822,632.13238 219.54531,632.45673 z M 216.42615,630.94435 C 216.44484,630.86396 216.45700,630.78451 216.46354,630.70413 C 216.47569,630.61813 216.48223,630.53494 216.48223,630.45362 C 216.48223,629.96289 216.33455,629.57218 216.03918,629.28335 C 215.74380,628.99265 215.34374,628.84871 214.83993,628.84871 C 214.19404,628.84871 213.64629,629.02443 213.19763,629.37495 C 212.74242,629.73295 212.39377,630.25453 212.15448,630.94435 L 216.42615,630.94435 z " />
        <path
           style="fill:#323232"
           id="path1796"
           d="M 235.63278,631.34160 L 234.47933,637.23688 L 231.17603,637.23688 L 231.45271,635.70488 C 230.91057,636.31992 230.33852,636.77607 229.73656,637.07050 C 229.13367,637.35933 228.47843,637.50421 227.77178,637.50421 C 226.79406,637.50421 226.01544,637.24904 225.43778,636.73868 C 224.86574,636.23486 224.57971,635.55158 224.57971,634.69071 C 224.57971,633.37462 225.08633,632.36699 226.10144,631.66502 C 227.12215,630.97052 228.59246,630.62281 230.51145,630.62281 L 232.45847,630.62281 L 232.49492,630.36482 C 232.51362,630.27883 232.52296,630.21714 232.52296,630.18068 C 232.52857,630.14423 232.53231,630.10964 232.53231,630.07880 C 232.53231,629.67313 232.33789,629.36561 231.95091,629.15716 C 231.56861,628.95433 231.00030,628.85245 230.24412,628.85245 C 229.56177,628.85245 228.89999,628.92348 228.26064,629.06556 C 227.62129,629.20764 227.00251,629.41889 226.40615,629.70211 L 226.90530,627.18304 C 227.59418,627.01105 228.29803,626.88299 229.01776,626.79606 C 229.74311,626.70446 230.49369,626.65772 231.26857,626.65772 C 232.80057,626.65772 233.93813,626.91944 234.68217,627.44289 C 235.42620,627.97194 235.79822,628.77393 235.79822,629.85073 C 235.79822,630.06010 235.78233,630.29098 235.75242,630.54242 C 235.72718,630.78451 235.68792,631.05091 235.63278,631.34160 z M 230.47499,632.58665 C 229.65057,632.58665 229.02898,632.71658 228.61116,632.97363 C 228.18680,633.22600 227.97462,633.60176 227.97462,634.09996 C 227.97462,634.47479 228.09987,634.77016 228.35224,634.98514 C 228.59901,635.20013 228.93925,635.30856 229.37670,635.30856 C 230.05343,635.30856 230.61894,635.10198 231.07415,634.68977 C 231.52842,634.28410 231.83314,633.70925 231.98737,632.96428 L 232.06121,632.58665 L 230.47499,632.58665 z " />
        <path
           style="fill:#323232"
           id="path1798"
           d="M 251.36879,627.22697 L 250.88086,629.79090 C 250.23497,629.48338 249.59188,629.24970 248.95254,629.08986 C 248.31319,628.93003 247.70655,628.84964 247.13544,628.84964 C 246.48394,628.84964 245.97826,628.93283 245.62213,629.09921 C 245.27161,629.27213 245.09682,629.51423 245.09682,629.82829 C 245.09682,630.01243 245.19496,630.16012 245.39125,630.27042 C 245.58754,630.38165 245.97545,630.49849 246.55404,630.62187 L 247.15413,630.73217 C 248.48798,631.01539 249.42270,631.38180 249.95829,631.83046 C 250.49295,632.27352 250.76028,632.89137 250.76028,633.68401 C 250.76028,634.88419 250.28919,635.82078 249.34886,636.49378 C 248.40853,637.16771 247.09151,637.50421 245.39967,637.50421 C 244.69208,637.50421 243.96954,637.44813 243.23205,637.33783 C 242.49362,637.22754 241.74024,637.06116 240.97190,636.84056 L 241.47010,634.24858 C 242.06739,634.59910 242.70674,634.86270 243.39002,635.04123 C 244.06675,635.21976 244.76125,635.30949 245.47538,635.30949 C 246.16987,635.30949 246.69238,635.22630 247.04384,635.05899 C 247.39436,634.89354 247.57009,634.64958 247.57009,634.33084 C 247.57009,634.11025 247.47194,633.93639 247.27471,633.81394 C 247.07749,633.69149 246.67182,633.56530 246.05677,633.43631 L 245.45762,633.32508 C 244.27613,633.07831 243.43301,632.71658 242.92920,632.23707 C 242.42445,631.75662 242.17301,631.09203 242.17301,630.24331 C 242.17301,629.09360 242.60953,628.20749 243.48255,627.58590 C 244.34997,626.96525 245.59128,626.65398 247.21022,626.65398 C 247.91687,626.65398 248.61230,626.70165 249.29464,626.79232 C 249.98166,626.89047 250.67336,627.03442 251.36879,627.22697 z " />
        <path
           style="fill:#323232"
           id="path1800"
           d="M 257.05843,626.90355 L 260.17665,626.90355 L 261.59836,634.06257 L 265.26153,626.90355 L 268.79477,626.90355 L 262.25360,638.21554 C 261.52172,639.48769 260.84404,640.32426 260.22339,640.72526 C 259.60180,641.11878 258.79981,641.31600 257.81555,641.31600 L 255.81245,641.31600 L 256.15455,639.14745 L 257.19677,639.14745 C 257.73797,639.14745 258.15579,639.05772 258.45116,638.88012 C 258.75308,638.69598 259.01947,638.37537 259.25409,637.92110 L 259.55787,637.36774 L 257.05843,626.90355 z " />
        <path
           style="fill:#323232"
           id="path1802"
           d="M 271.74381,633.66532 L 275.06487,633.66532 L 274.37318,637.23595 L 271.04277,637.23595 L 271.74381,633.66532 z " />
        <path
           style="fill:#323232"
           id="path1804"
           d="M 295.68667,635.74133 L 294.62576,641.16738 L 291.30376,641.16738 L 294.08175,626.90355 L 297.40375,626.90355 L 297.09903,628.41593 C 297.60378,627.81210 298.13189,627.37091 298.68618,627.08769 C 299.23954,626.79887 299.84524,626.65305 300.50328,626.65305 C 301.66514,626.65305 302.58583,627.02320 303.26164,627.76069 C 303.93837,628.49912 304.27674,629.50488 304.27674,630.77890 C 304.27674,631.57248 304.15990,632.34456 303.92622,633.09514 C 303.68507,633.84572 303.34483,634.52807 302.90177,635.14311 C 302.34094,635.91799 301.71187,636.50500 301.01083,636.90506 C 300.30325,637.30512 299.54706,637.50515 298.74040,637.50515 C 298.03281,637.50515 297.43085,637.36027 296.93171,637.07144 C 296.44005,636.78728 296.02504,636.34423 295.68667,635.74133 z M 299.15635,629.05248 C 298.30762,629.05248 297.61593,629.44319 297.08033,630.22461 C 296.53913,631.01258 296.26806,632.03423 296.26806,633.28769 C 296.26806,633.85320 296.42229,634.29625 296.72981,634.61593 C 297.03079,634.94308 297.45235,635.10572 297.99356,635.10572 C 298.82452,635.10572 299.50967,634.72062 300.05087,633.95228 C 300.59208,633.17739 300.86315,632.18659 300.86315,630.98080 C 300.86315,630.35361 300.71546,629.87316 300.42009,629.54133 C 300.13126,629.21512 299.70970,629.05248 299.15635,629.05248 z " />
        <path
           style="fill:#323232"
           id="path1806"
           d="M 316.14769,626.65305 C 317.68530,626.65305 318.89389,627.04470 319.77347,627.82519 C 320.65210,628.60661 321.09236,629.67126 321.09236,631.01819 C 321.09236,631.79962 320.95402,632.55581 320.67734,633.28769 C 320.39973,634.02612 319.99686,634.69912 319.46875,635.30856 C 318.84062,636.03296 318.09938,636.58071 317.24505,636.95086 C 316.38978,637.31914 315.43637,637.50421 314.38481,637.50421 C 312.86495,637.50421 311.66570,637.11350 310.78613,636.33301 C 309.91124,635.55158 309.47566,634.48694 309.47566,633.14001 C 309.47566,632.36606 309.61680,631.60800 309.90002,630.87051 C 310.18324,630.12553 310.58891,629.44693 311.11796,628.83095 C 311.73394,628.11682 312.46583,627.57655 313.31455,627.20734 C 314.16889,626.83812 315.11389,626.65305 316.14769,626.65305 z M 315.87942,629.01602 C 315.02415,629.01602 314.32031,629.40300 313.76696,630.17881 C 313.21267,630.95370 312.93599,631.94076 312.93599,633.14001 C 312.93599,633.79151 313.08648,634.28971 313.38746,634.63556 C 313.68190,634.97299 314.11561,635.14311 314.68859,635.14311 C 315.54386,635.14311 316.24770,634.75240 316.80199,633.97097 C 317.35535,633.19609 317.63296,632.20529 317.63296,631.00043 C 317.63296,630.35454 317.48527,629.86101 317.18990,629.52357 C 316.88799,629.18521 316.45147,629.01602 315.87942,629.01602 z " />
        <path
           style="fill:#323232"
           id="path1808"
           d="M 327.19795,626.90355 L 330.24233,626.90355 L 330.60220,634.00743 L 333.72042,626.90355 L 336.34138,626.90355 L 336.71994,633.98873 L 339.81947,626.90355 L 343.06762,626.90355 L 338.34355,637.23688 L 334.83741,637.23688 L 334.49624,630.13301 L 331.34063,637.23688 L 327.91768,637.23688 L 327.19795,626.90355 z " />
        <path
           style="fill:#323232"
           id="path1810"
           d="M 358.67371,632.45673 L 358.56341,632.98297 L 350.83234,632.98297 C 350.83234,633.02036 350.82954,633.07271 350.82300,633.14001 C 350.81645,633.21478 350.81365,633.26993 350.81365,633.30639 C 350.81365,633.97658 351.01648,634.47853 351.42215,634.81035 C 351.82221,635.14218 352.42417,635.30856 353.23083,635.30856 C 353.92533,635.30856 354.65722,635.20387 355.42743,634.99449 C 356.20231,634.78511 357.01365,634.47479 357.86237,634.06257 L 357.35482,636.62745 C 356.54909,636.92188 355.74617,637.14435 354.94698,637.29110 C 354.15340,637.43318 353.34487,637.50421 352.52045,637.50421 C 350.90805,637.50421 349.66301,637.13313 348.78437,636.38816 C 347.90947,635.64412 347.47389,634.59256 347.47389,633.23348 C 347.47389,632.44551 347.61504,631.68371 347.89826,630.94528 C 348.17493,630.20125 348.58060,629.52170 349.11620,628.90572 C 349.74994,628.16730 350.50613,627.60740 351.38663,627.22697 C 352.27181,626.84560 353.25233,626.65398 354.32913,626.65398 C 355.72467,626.65398 356.83605,627.02600 357.65954,627.77097 C 358.47742,628.51501 358.88682,629.51797 358.88682,630.77890 C 358.88682,631.02473 358.87093,631.28365 358.84102,631.55379 C 358.80270,631.83046 358.74755,632.13238 358.67371,632.45673 z M 355.55548,630.94435 C 355.57418,630.86396 355.58539,630.78451 355.59287,630.70413 C 355.60502,630.61813 355.61157,630.53494 355.61157,630.45362 C 355.61157,629.96289 355.46388,629.57218 355.16757,629.28335 C 354.87314,628.99265 354.47308,628.84871 353.96926,628.84871 C 353.32337,628.84871 352.77563,629.02443 352.32696,629.37495 C 351.87175,629.73295 351.52404,630.25453 351.28475,630.94435 L 355.55548,630.94435 z " />
        <path
           style="fill:#323232"
           id="path1812"
           d="M 373.10018,629.71706 C 372.87304,629.58900 372.61973,629.48992 372.34305,629.42169 C 372.06638,629.35532 371.76820,629.32167 371.44853,629.32167 C 370.60541,629.32167 369.90530,629.59181 369.34541,630.13395 C 368.79112,630.67515 368.41536,631.45564 368.21907,632.47635 L 367.27781,637.23782 L 363.96609,637.23782 L 365.97668,626.90449 L 369.29867,626.90449 L 368.93880,628.67578 C 369.37532,628.02428 369.92306,627.52608 370.58111,627.18023 C 371.23261,626.82971 371.95888,626.65398 372.75807,626.65398 C 372.87491,626.65398 373.00764,626.66146 373.15533,626.67361 C 373.30208,626.68576 373.47780,626.70446 373.68157,626.72876 L 373.10018,629.71706 z " />
        <path
           style="fill:#323232"
           id="path1814"
           d="M 386.68727,622.87958 L 386.25356,625.04814 L 384.43553,625.04814 C 383.97471,625.04814 383.63728,625.13133 383.42136,625.29677 C 383.21198,625.47063 383.06710,625.76226 382.98671,626.17354 L 382.83061,626.90262 L 385.62542,626.90262 L 385.17396,629.26279 L 382.37821,629.26279 L 380.82844,637.23501 L 377.50738,637.23501 L 379.05715,629.26279 L 377.42419,629.26279 L 377.88501,626.90262 L 379.50862,626.90262 L 379.65630,626.18195 C 379.88344,625.03785 380.35734,624.20128 381.07708,623.67223 C 381.79681,623.14318 382.82033,622.87772 384.14950,622.87772 L 386.68727,622.87772 L 386.68727,622.87958 z " />
        <path
           style="fill:#323232"
           id="path1816"
           d="M 389.76437,633.21478 L 390.97296,626.90355 L 394.28561,626.90355 L 393.24339,632.28193 C 393.16955,632.63245 393.11347,632.93156 393.07701,633.17646 C 393.04056,633.42323 393.02093,633.61671 393.02093,633.75786 C 393.02093,634.14576 393.12842,634.44674 393.34434,634.66266 C 393.55839,634.87765 393.86685,634.98608 394.26691,634.98608 C 394.94926,634.98608 395.53626,634.72155 396.02886,634.19157 C 396.52146,633.66158 396.85982,632.92782 397.04396,631.98750 L 398.04038,626.90449 L 401.35302,626.90449 L 399.35085,637.23782 L 396.01951,637.23782 L 396.32423,635.72451 C 395.75872,636.32179 395.16424,636.76672 394.54359,637.06303 C 393.92293,637.35746 393.26770,637.50608 392.57787,637.50608 C 391.63661,637.50608 390.90753,637.25651 390.39156,636.75831 C 389.87373,636.26104 389.61574,635.55719 389.61574,634.64584 C 389.61574,634.43085 389.62883,634.20278 389.65313,633.96349 C 389.67744,633.72421 389.71576,633.47183 389.76437,633.21478 z " />
        <path
           style="fill:#323232"
           id="path1818"
           d="M 409.08129,622.87958 L 412.40235,622.87958 L 409.60754,637.23595 L 406.29582,637.23595 L 409.08129,622.87958 z " />
      </g>
      <g
         id="g2255">
        <path
           style="fill:#b4b4b4"
           id="path1774"
           d="M 150.97575,532.06766 L 150.98395,532.01778 C 152.53765,522.48518 161.88783,514.43794 171.40335,514.43794 L 350.11649,514.43794 C 354.53229,514.43794 358.40560,516.13238 361.02173,519.20561 C 363.14594,521.70423 364.25689,524.88131 364.25689,528.34740 C 364.25689,529.24723 364.18242,530.16688 364.03074,531.09950 C 364.01502,531.18423 355.96027,576.24479 355.96027,576.24479 C 354.40657,585.77603 345.05503,593.82941 335.54019,593.82941 L 156.82841,593.82941 C 152.41193,593.82941 148.53931,592.13497 145.92249,589.05696 C 143.79829,586.55902 142.68733,583.38126 142.68733,579.91517 C 142.68733,579.01602 142.76249,578.09501 142.91417,577.16375 C 142.92920,577.07903 150.97575,532.06766 150.97575,532.06766 z " />
        <path
           style="fill:#323232"
           id="path1776"
           d="M 171.40404,508.77864 C 159.07150,508.77864 147.40513,518.79293 145.39844,531.10839 L 145.40732,531.05783 L 137.32934,576.24479 C 136.32019,582.43702 137.84041,588.28831 141.61123,592.72256 C 145.32055,597.08643 150.72500,599.48940 156.82841,599.48940 L 335.54019,599.48940 C 347.87272,599.48940 359.53841,589.47032 361.54578,577.15487 L 361.53690,577.20543 L 369.61351,532.01778 C 370.62403,525.82555 369.10381,519.97426 365.33300,515.54411 C 361.62367,511.18092 356.21785,508.77796 350.11581,508.77796 L 171.40404,508.77796 L 171.40404,508.77864 z M 150.97575,532.06766 L 150.98395,532.01778 C 152.53765,522.48518 161.88783,514.43794 171.40335,514.43794 L 350.11649,514.43794 C 354.53229,514.43794 358.40560,516.13238 361.02173,519.20561 C 363.14594,521.70423 364.25689,524.88131 364.25689,528.34740 C 364.25689,529.24723 364.18242,530.16688 364.03074,531.09950 C 364.01502,531.18423 355.96027,576.24479 355.96027,576.24479 C 354.40657,585.77603 345.05503,593.82941 335.54019,593.82941 L 156.82841,593.82941 C 152.41193,593.82941 148.53931,592.13497 145.92249,589.05696 C 143.79829,586.55902 142.68733,583.38126 142.68733,579.91517 C 142.68733,579.01602 142.76249,578.09501 142.91417,577.16375 C 142.92920,577.07903 150.97575,532.06766 150.97575,532.06766 z " />
        <path
           style="fill:#323232"
           id="path1822"
           d="M 169.47046,531.78685 C 168.81181,531.78685 168.24609,532.25487 168.12310,532.90122 L 161.24490,569.02837 C 161.16906,569.42944 161.27428,569.84417 161.53596,570.15914 C 161.79627,570.47412 162.18367,570.65654 162.59225,570.65654 L 168.38274,570.65654 C 169.03933,570.65654 169.60369,570.19125 169.72941,569.54695 C 169.72941,569.54695 170.21519,567.04765 170.65589,564.78407 C 172.38722,567.08796 174.65764,570.10858 174.65764,570.10858 C 174.91659,570.45430 175.32243,570.65654 175.75356,570.65654 L 182.35164,570.65654 C 182.87637,570.65654 183.35601,570.35660 183.58489,569.88448 C 183.67781,569.69385 183.72291,569.48820 183.72291,569.28527 C 183.72291,568.98396 183.62315,568.68334 183.42980,568.43805 C 183.42980,568.43805 177.97547,561.49767 176.64178,559.79981 C 178.36355,558.42991 186.07531,552.29370 186.07531,552.29370 C 186.40874,552.02792 186.59321,551.63027 186.59321,551.22101 C 186.59321,551.07001 186.56793,550.91697 186.51669,550.76870 C 186.32401,550.21801 185.80475,549.84974 185.22126,549.84974 L 178.41548,549.84974 C 178.09162,549.84974 177.77869,549.96384 177.53204,550.17223 C 177.53204,550.17223 174.96647,552.33401 172.68785,554.25393 C 173.71271,548.83103 176.62606,533.41297 176.62606,533.41297 C 176.64178,533.32824 176.64998,533.24284 176.64998,533.15812 C 176.64998,532.84109 176.53997,532.53090 176.33500,532.28220 C 176.07400,531.96859 175.68660,531.78616 175.27871,531.78616 L 169.47046,531.78616 L 169.47046,531.78685 z M 173.62253,534.52938 C 173.08686,537.36689 169.27642,557.53144 169.27642,557.53144 C 169.26070,557.61685 169.25250,557.70157 169.25250,557.78561 C 169.25250,558.26730 169.50599,558.72097 169.93233,558.96967 C 170.43315,559.26278 171.06446,559.20812 171.50789,558.83507 C 171.50789,558.83507 178.22348,553.17714 178.91561,552.59296 C 179.24015,552.59296 180.13315,552.59296 181.29466,552.59296 C 178.21939,555.03966 173.86644,558.50301 173.86644,558.50301 C 173.52619,558.77358 173.34923,559.17328 173.34923,559.57707 C 173.34923,559.87360 173.44488,560.17218 173.64234,560.42361 C 173.64234,560.42361 177.45279,565.27190 179.52848,567.91332 C 178.01578,567.91332 177.01278,567.91332 176.43749,567.91332 C 175.72623,566.96566 170.99409,560.67026 170.99409,560.67026 C 170.66818,560.23709 170.11817,560.03621 169.59003,560.15783 C 169.06188,560.27945 168.65535,560.70032 168.55150,561.23257 C 168.55150,561.23257 167.56899,566.28105 167.25129,567.91264 C 166.30773,567.91264 165.47554,567.91264 164.24843,567.91264 C 164.79571,565.03960 170.22408,536.52582 170.60464,534.52802 C 171.55367,534.52938 172.39269,534.52938 173.62253,534.52938 z " />
        <path
           style="fill:#323232"
           id="path1824"
           d="M 197.64398,550.48994 C 197.52920,550.55007 197.42398,550.62591 197.31193,550.69150 C 197.26068,550.56510 197.19919,550.44348 197.11174,550.33553 C 196.85142,550.01782 196.46129,549.83266 196.04998,549.83266 L 190.24310,549.83266 C 189.58718,549.83266 189.02282,550.29727 188.89711,550.94088 L 184.32075,574.35220 C 184.24217,574.75532 184.34876,575.16936 184.60771,575.48707 C 184.86802,575.80341 185.25679,575.98652 185.66673,575.98652 L 191.45722,575.98652 C 192.11177,575.98652 192.67544,575.52328 192.80252,574.88172 L 195.50817,561.21549 C 195.79718,559.70962 196.32942,558.57202 197.09056,557.82592 C 197.80455,557.13448 198.69481,556.79559 199.80850,556.79559 C 200.25534,556.79559 200.67143,556.84205 201.04585,556.93429 C 201.40319,557.02106 201.73114,557.14883 202.02152,557.31349 C 202.40550,557.52871 202.87011,557.54852 203.27049,557.36405 C 203.67019,557.17889 203.95715,556.81267 204.04187,556.38086 L 205.05785,551.16908 C 205.13369,550.78305 205.04487,550.38199 204.80437,550.07043 C 204.56319,549.75819 204.20653,549.56483 203.81367,549.53955 L 202.86396,549.47601 C 202.87216,549.47669 202.99104,549.48967 202.99993,549.49036 L 202.09873,549.41247 C 200.47808,549.41247 198.97904,549.77459 197.64398,550.48994 z M 194.37193,552.57588 C 194.22504,553.29875 194.07677,554.02777 194.07677,554.02777 C 194.05832,554.12001 194.04876,554.21088 194.04876,554.30175 C 194.04876,554.84425 194.37398,555.34848 194.89120,555.56644 C 195.06133,555.63749 195.23829,555.67029 195.41388,555.67097 C 195.33667,555.73861 195.25058,555.78849 195.17611,555.86091 C 194.00298,557.01013 193.21110,558.63283 192.81551,560.69008 C 192.81551,560.69008 190.69950,571.37600 190.32987,573.24330 C 189.39041,573.24330 188.56027,573.24330 187.33180,573.24330 C 187.85653,570.55815 191.00696,554.43977 191.37181,552.57520 C 192.31264,552.57588 193.13936,552.57588 194.37193,552.57588 z M 198.92575,552.91477 C 199.87614,552.40644 200.90237,552.16320 202.07003,552.15842 C 201.90059,553.02682 201.83363,553.37049 201.66009,554.26349 C 201.08343,554.12479 200.46168,554.05305 199.80850,554.05305 C 198.72009,554.05305 197.74237,554.29355 196.85757,554.71785 C 197.43969,553.95945 198.10586,553.34316 198.92575,552.91477 z " />
        <path
           style="fill:#323232"
           id="path1826"
           d="M 220.69592,549.84018 C 220.04001,549.84018 219.47565,550.30478 219.34925,550.94840 L 217.60766,559.85789 C 217.33573,561.24555 216.85404,562.32098 216.17353,563.05410 C 215.57091,563.70386 214.91158,564.00722 214.09852,564.00722 C 213.91883,564.00722 213.59771,563.98604 213.45764,563.84529 C 213.34627,563.73461 213.29230,563.52758 213.29230,563.22832 L 213.37429,562.41253 C 213.37429,562.41116 213.65032,560.92511 213.65032,560.92511 L 215.47799,551.47244 C 215.55588,551.07070 215.44930,550.65665 215.18966,550.33963 C 214.92935,550.02397 214.54127,549.84154 214.13132,549.84154 L 208.34015,549.84154 C 207.68151,549.84154 207.11646,550.30888 206.99280,550.95455 C 206.99280,550.95455 204.87953,562.00600 204.87953,562.00668 L 204.66909,563.43603 C 204.66977,563.42920 204.59735,564.76767 204.59735,564.76767 C 204.59735,566.74156 205.19450,568.31848 206.37173,569.45403 C 207.53598,570.57797 209.14228,571.14643 211.14692,571.14643 C 212.55030,571.14643 213.90448,570.84170 215.17053,570.24181 C 215.41513,570.12566 215.64880,569.94392 215.88999,569.80385 C 215.94191,569.93709 216.00887,570.06690 216.10179,570.18032 C 216.36211,570.49940 216.75224,570.68319 217.16355,570.68319 L 222.98615,570.68319 C 223.64275,570.68319 224.20847,570.21653 224.33282,569.57223 L 227.83376,551.47381 C 227.91165,551.07138 227.80506,550.65597 227.54475,550.34031 C 227.28443,550.02465 226.89635,549.84223 226.48709,549.84223 L 220.69592,549.84223 L 220.69592,549.84018 z M 212.46967,552.58271 C 212.03786,554.81350 210.96176,560.37852 210.96176,560.37852 C 210.96654,560.35529 210.66181,562.00600 210.66181,562.00600 C 210.66181,562.00737 210.54976,563.22696 210.54976,563.22696 C 210.54976,564.54015 211.07517,565.34091 211.51655,565.78092 C 212.15402,566.42248 213.02447,566.74907 214.09921,566.74907 C 214.74966,566.74907 215.35569,566.61858 215.93303,566.41224 C 215.29898,566.96771 214.65468,567.44940 213.99604,567.76164 C 213.08664,568.19208 212.15538,568.40184 211.14760,568.40184 C 209.86037,568.40184 208.92159,568.09985 208.27729,567.47878 C 207.64803,566.87069 207.34193,565.98384 207.34193,564.76562 L 207.39864,563.71274 C 207.39933,563.70659 207.57424,562.51980 207.57492,562.51707 C 207.57492,562.51843 207.57492,562.51707 207.57492,562.51843 L 207.57492,562.51707 L 207.57492,562.51707 C 207.57492,562.51365 209.13066,554.38374 209.47502,552.58271 C 210.41789,552.58271 211.24394,552.58271 212.46967,552.58271 z M 224.82476,552.58271 C 224.33760,555.10183 222.19700,566.16832 221.85470,567.93860 C 220.91046,567.93860 220.07485,567.93860 218.83886,567.93860 C 218.93384,567.46648 219.04042,566.93492 219.04042,566.93492 C 219.05887,566.84473 219.06775,566.75386 219.06775,566.66435 C 219.06775,566.16012 218.78899,565.68663 218.32848,565.44750 C 218.14606,565.35253 217.94860,565.31563 217.75251,565.30675 C 217.89667,565.17693 218.04835,565.06625 218.18568,564.91935 C 219.21738,563.80635 219.92932,562.28067 220.30032,560.38467 C 220.30032,560.38467 221.49326,554.28194 221.82464,552.58271 C 222.76683,552.58271 223.59697,552.58271 224.82476,552.58271 z M 204.88021,562.00395 C 204.88021,562.00054 204.88021,561.99917 204.88021,561.99917 C 204.88021,561.99849 204.87816,562.01557 204.88021,562.00395 z M 207.57492,562.51707 C 207.57492,562.51980 207.57424,562.52253 207.57424,562.52253 C 207.57355,562.52322 207.57697,562.50682 207.57492,562.51707 z M 207.57492,562.51707 L 207.57492,562.51707 L 207.57492,562.51707 L 207.57492,562.51707 z " />
        <path
           style="fill:#323232"
           id="path1828"
           d="M 231.91409,551.29958 C 230.01535,552.65172 229.05130,554.59145 229.05130,557.06342 L 229.05130,557.06342 C 229.05130,558.93141 229.63957,560.43933 230.79903,561.54413 C 231.87992,562.57309 233.54294,563.31031 235.88509,563.79883 L 236.96530,563.99834 C 237.56724,564.12542 237.94371,564.23132 238.19446,564.31126 C 237.88973,564.42195 237.30829,564.55518 236.19802,564.55518 L 236.19802,564.55518 C 235.07340,564.55518 233.96450,564.41375 232.90206,564.13294 C 231.83415,563.85554 230.82363,563.43671 229.89374,562.89080 C 229.50907,562.66465 229.03900,562.63937 228.63315,562.82316 C 228.22662,563.00695 227.93556,563.37590 227.85084,563.81386 L 226.97971,568.35128 C 226.84647,569.04887 227.26462,569.73211 227.94581,569.92820 C 229.33553,570.32927 230.72388,570.63604 232.07396,570.83897 C 233.42679,571.04257 234.77073,571.14506 236.06889,571.14506 C 239.30609,571.14506 241.89695,570.46455 243.77040,569.12061 C 245.78734,567.67555 246.80947,565.64700 246.80947,563.09031 C 246.80947,561.28108 246.16995,559.83397 244.90937,558.78929 C 243.79773,557.85530 241.99875,557.13038 239.41814,556.58242 L 238.33315,556.38223 C 237.95259,556.30092 237.68134,556.23192 237.45450,556.16974 C 237.80091,556.08024 238.31539,556.00166 239.10044,556.00166 C 239.98114,556.00166 240.93836,556.12943 241.94683,556.38086 C 242.96691,556.63708 244.01500,557.01901 245.05900,557.51436 C 245.44298,557.69679 245.88914,557.69132 246.26902,557.49933 C 246.64754,557.30666 246.91605,556.95000 246.99531,556.53323 L 247.85005,552.04295 C 247.98328,551.34126 247.55557,550.65392 246.86618,550.46398 C 245.60559,550.11757 244.32793,549.85043 243.06939,549.66868 C 241.80881,549.49924 240.52021,549.41315 239.22889,549.41315 C 236.12218,549.41247 233.66046,550.04720 231.91409,551.29958 z M 239.52815,566.72858 C 241.00942,566.02825 241.23079,564.85239 241.23079,564.21424 C 241.23079,563.35131 240.81879,562.61819 240.07201,562.15017 C 239.57187,561.83656 238.77726,561.57624 237.49618,561.30704 L 236.41392,561.10685 C 234.20090,560.64498 233.16510,560.00888 232.69093,559.55726 C 232.08763,558.98265 231.79452,558.16686 231.79452,557.06342 C 231.79452,555.48581 232.33906,554.36393 233.50878,553.53106 C 234.78371,552.61688 236.70704,552.15500 239.22957,552.15500 C 240.39791,552.15500 241.56284,552.23221 242.69088,552.38457 C 243.42263,552.48979 244.16668,552.64011 244.91142,552.81023 C 244.79185,553.44223 244.75495,553.63559 244.61694,554.35710 C 243.94600,554.10498 243.27642,553.88566 242.61162,553.71895 C 241.38452,553.41285 240.20387,553.25776 239.10044,553.25776 C 237.74625,553.25776 236.69132,553.44292 235.87621,553.82280 C 234.38333,554.55524 234.16469,555.71538 234.16469,556.34260 C 234.16469,557.15908 234.60743,557.87716 235.37949,558.31239 C 235.85981,558.58295 236.60592,558.81731 237.79886,559.07079 L 238.88453,559.27166 C 241.46377,559.82167 242.63280,560.45777 243.15207,560.89437 C 243.77860,561.41363 244.06625,562.10849 244.06625,563.08963 C 244.06625,564.75674 243.46431,565.96403 242.17230,566.89051 C 240.77438,567.89351 238.72124,568.40116 236.06889,568.40116 C 234.90669,568.40116 233.70008,568.30824 232.48186,568.12581 C 231.64216,567.99873 230.78195,567.81220 229.91697,567.59971 C 230.03312,566.99641 230.06796,566.81467 230.20461,566.10136 C 230.85233,566.37466 231.51917,566.60696 232.20651,566.78597 C 233.49306,567.12486 234.83700,567.29772 236.19802,567.29772 C 237.63215,567.29772 238.72124,567.11256 239.52815,566.72858 z " />
        <path
           style="fill:#323232"
           id="path1830"
           d="M 264.80814,557.10237 L 264.80609,557.13858 C 264.80677,557.12765 264.80745,557.11535 264.80814,557.10237 z M 264.80609,557.13790 C 264.80472,557.15634 264.80335,557.16727 264.80404,557.16181 L 264.80609,557.13790 z M 270.54396,556.37061 C 270.54396,554.02641 269.69332,552.23221 268.01665,551.03927 C 266.45749,549.94266 264.24651,549.41178 261.25254,549.41178 C 259.84711,549.41178 258.46491,549.49719 257.14352,549.66458 C 255.85834,549.81968 254.56154,550.05813 253.30574,550.37447 C 252.79263,550.50292 252.40044,550.91765 252.29796,551.43828 L 251.42682,555.84725 C 251.32639,556.35558 251.52043,556.87690 251.92901,557.19529 C 252.33759,557.51368 252.88760,557.57449 253.35357,557.35243 C 254.29644,556.90423 255.28510,556.56397 256.29425,556.34055 C 257.30750,556.11576 258.37472,556.00098 259.46313,556.00098 C 260.81458,556.00098 261.47664,556.20390 261.79572,556.37335 C 260.87129,556.37335 259.93115,556.37335 259.93115,556.37335 C 256.31474,556.37335 253.47040,557.06684 251.46918,558.43401 C 249.30262,559.92894 248.20738,562.08799 248.20738,564.85512 C 248.20738,566.76547 248.86876,568.31507 250.17376,569.46360 C 251.43571,570.57865 253.10965,571.14438 255.14571,571.14438 C 256.58052,571.14438 257.93266,570.84443 259.16933,570.25206 C 259.40164,570.13796 259.62984,570.00199 259.85668,569.86466 C 259.90655,569.97671 259.95984,570.08877 260.04047,570.18442 C 260.30078,570.49598 260.68613,570.67636 261.09266,570.67636 L 266.86811,570.67636 C 267.52403,570.67636 268.08770,570.21175 268.21410,569.56882 L 270.22899,559.24912 C 270.23104,559.24365 270.44284,557.81567 270.45514,557.73437 C 270.45582,557.71114 270.54396,556.37061 270.54396,556.37061 z M 260.00084,563.81728 C 259.45356,564.31331 258.78467,564.55040 257.94496,564.55040 C 257.65732,564.55040 257.27128,564.51077 257.06016,564.32698 C 256.98295,564.26002 256.86680,564.16027 256.86680,563.80840 C 256.86680,563.42031 256.98227,563.21398 257.30818,563.02062 C 257.67713,562.79241 258.40137,562.53620 259.86556,562.53620 C 259.86556,562.53620 260.40327,562.53620 260.86241,562.53620 C 260.64787,563.05751 260.36774,563.48932 260.00084,563.81728 z M 267.73037,557.41666 C 267.73310,557.37976 267.72149,557.48020 267.72763,557.44330 L 267.53428,558.73053 C 267.53428,558.73053 266.08239,566.16900 265.73666,567.93382 L 262.73244,567.93382 C 262.82537,567.42480 262.92512,566.86864 262.92512,566.86864 C 262.93947,566.78802 262.94630,566.70671 262.94630,566.62541 C 262.94630,566.13757 262.68325,565.68322 262.25349,565.43793 C 263.03307,564.57978 263.57420,563.46131 263.85433,562.10302 L 263.98551,561.42729 C 264.06409,561.02486 263.95887,560.60945 263.69787,560.29243 C 263.43755,559.97609 263.04879,559.79366 262.63952,559.79366 L 259.86487,559.79366 C 258.14857,559.79366 256.84836,560.08199 255.89113,560.67504 C 254.76310,561.34667 254.13315,562.46446 254.13315,563.80976 C 254.13315,564.86879 254.52670,565.76452 255.27075,566.40199 C 255.93964,566.98889 256.84289,567.29499 257.94496,567.29499 C 258.27702,567.29499 258.59609,567.26766 258.90697,567.22188 C 258.59814,567.44188 258.28590,567.63182 257.97024,567.78555 C 257.10731,568.19960 256.18219,568.40321 255.14435,568.40321 C 253.77445,568.40321 252.74138,568.07730 251.98640,567.40840 C 251.27788,566.78529 250.94855,565.97428 250.94855,564.85717 C 250.94855,563.01993 251.62565,561.65823 253.01468,560.69759 C 254.54378,559.65155 256.87159,559.11725 259.92978,559.11725 L 263.33233,559.11725 C 264.01489,559.11725 264.59428,558.61575 264.68994,557.94002 L 264.75484,557.48498 C 264.75553,557.47883 264.73845,557.58269 264.73913,557.57722 L 264.81702,556.96708 C 264.81975,556.95274 264.81292,557.03883 264.80745,557.10305 L 264.83205,556.78876 C 264.83205,555.57259 264.21713,554.56890 263.10071,553.96150 C 262.21523,553.48801 261.02844,553.25912 259.46176,553.25912 C 258.17453,553.25912 256.90985,553.39577 255.70256,553.66360 C 255.32336,553.74696 254.95167,553.86926 254.57931,553.98063 C 254.68931,553.42242 254.73030,553.21608 254.80068,552.85533 C 255.68479,552.66265 256.57848,552.49731 257.47831,552.38936 C 258.69448,552.23494 259.96121,552.15637 261.25049,552.15637 C 263.62749,552.15637 265.37045,552.53420 266.43016,553.28031 C 267.36142,553.94305 267.79937,554.92692 267.79937,556.37198 L 267.73037,557.41666 z M 270.45309,557.75486 C 270.45309,557.76580 270.46129,557.68654 270.45651,557.71934 C 270.45651,557.71934 270.45309,557.75350 270.45309,557.75486 z " />
        <path
           style="fill:#323232"
           id="path1832"
           d="M 286.12805,550.35739 C 286.12942,550.35808 286.12942,550.35876 286.12942,550.35876 C 286.13078,550.35944 286.13147,550.35944 286.13147,550.36012 C 286.13078,550.35944 286.12942,550.35876 286.12805,550.35739 z M 298.38816,532.28356 C 298.12717,531.96996 297.74045,531.78685 297.33119,531.78685 L 291.50927,531.78685 C 290.84789,531.78685 290.28080,532.25760 290.15919,532.90600 C 290.15919,532.90600 287.59292,546.63372 286.81061,550.82473 C 286.59061,550.65529 286.36582,550.49677 286.12942,550.35944 C 285.05126,549.73086 283.75515,549.41247 282.27934,549.41247 C 280.63751,549.41247 279.07562,549.82583 277.63534,550.63957 C 276.23811,551.43897 274.98026,552.60799 273.89185,554.11591 C 273.03438,555.30680 272.36822,556.64186 271.90772,558.08692 C 271.45677,559.53608 271.22994,561.03648 271.22994,562.55533 C 271.22994,565.12842 271.94871,567.21778 273.36439,568.76191 C 274.81150,570.34362 276.77445,571.14506 279.19792,571.14506 C 280.56714,571.14506 281.85027,570.83692 283.01315,570.22746 C 283.16004,570.15231 283.30421,570.05597 283.44974,569.96920 C 283.48595,570.03274 283.50918,570.10175 283.55632,570.15846 C 283.81664,570.47753 284.20677,570.66269 284.61808,570.66269 L 290.44000,570.66269 C 291.09933,570.66269 291.66505,570.19399 291.78804,569.54764 L 298.67786,533.41502 C 298.75507,533.01258 298.64848,532.59854 298.38816,532.28356 z M 281.75051,567.79239 C 280.96410,568.20438 280.13259,568.40184 279.19860,568.40184 C 277.55335,568.40184 276.30712,567.91400 275.38815,566.91032 C 274.43708,565.87111 273.97384,564.44655 273.97384,562.55465 C 273.97384,561.31251 274.15968,560.08609 274.52522,558.90886 C 274.89485,557.75076 275.43188,556.67397 276.11922,555.71948 C 276.97533,554.53064 277.94348,553.62398 278.99226,553.02409 C 280.02396,552.44060 281.10075,552.15569 282.28071,552.15569 C 283.26458,552.15569 284.09677,552.34905 284.75132,552.73098 C 284.75268,552.73098 284.75268,552.73166 284.75473,552.73234 C 285.39630,553.10471 285.96476,553.71826 286.44439,554.55729 C 285.69009,553.93827 284.74585,553.62603 283.62055,553.62603 C 281.71908,553.62603 280.08135,554.52312 278.88568,556.22098 C 277.77609,557.80679 277.21583,559.81552 277.21583,562.19526 C 277.21583,563.63280 277.59298,564.78407 278.33703,565.61831 C 279.11183,566.49081 280.19955,566.93287 281.57219,566.93287 C 282.17276,566.93287 282.74805,566.84336 283.28986,566.66845 C 282.78221,567.14809 282.26841,567.52592 281.75051,567.79239 z M 284.06329,562.74390 C 283.38961,563.72709 282.59705,564.18828 281.57150,564.18828 C 280.73453,564.18828 280.47353,563.89244 280.38813,563.79610 C 280.38539,563.79542 280.38539,563.79405 280.38471,563.79268 C 280.10117,563.47566 279.95837,562.93795 279.95837,562.19389 C 279.95837,560.38740 280.35260,558.90681 281.13013,557.79518 C 281.81611,556.82292 282.60798,556.36788 283.62055,556.36788 C 284.34684,556.36788 284.65156,556.60155 284.81759,556.77783 C 285.07791,557.05932 285.21524,557.53213 285.21524,558.16891 C 285.21387,560.08062 284.82647,561.61929 284.06329,562.74390 z M 289.30718,567.91947 L 286.29955,567.91947 C 286.39042,567.46853 286.49564,566.95268 286.49564,566.95268 C 286.51340,566.86113 286.52365,566.76957 286.52365,566.67870 C 286.52365,566.15944 286.22712,565.67502 285.74544,565.44271 C 285.64910,565.39625 285.54934,565.36687 285.44686,565.34364 C 285.76388,565.03482 286.05904,564.68500 286.32961,564.29077 C 287.41050,562.69744 287.95709,560.63952 287.95709,558.16891 C 287.95709,556.90491 287.61684,555.86365 286.95273,555.06425 C 287.22261,555.21935 287.54100,555.28494 287.86212,555.23096 C 288.42921,555.13463 288.87742,554.69598 288.98332,554.13094 C 288.98332,554.13094 292.27246,536.53265 292.64756,534.52938 L 295.67364,534.52938 C 295.12500,537.40310 289.68706,565.92303 289.30718,567.91947 z " />
        <path
           style="fill:#323232"
           id="path1834"
           d="M 310.64144,554.39946 C 309.85435,553.64311 308.82470,553.25776 307.58120,553.25776 C 306.14366,553.25776 304.89264,553.66565 303.86504,554.46915 C 302.86067,555.25693 302.09612,556.39179 301.59189,557.84300 C 301.44568,558.26251 301.51263,558.72575 301.76953,559.08855 C 302.02712,559.44931 302.44389,559.66453 302.88800,559.66453 L 310.35585,559.66453 C 311.03089,559.66453 311.58637,559.27371 311.69091,558.60550 L 311.78793,557.98717 C 311.78861,557.97760 311.74556,558.23245 311.74693,558.22289 L 311.85215,557.43784 C 311.85147,556.21210 311.43264,555.16127 310.64144,554.39946 z M 305.29370,556.92199 C 305.38389,556.83112 305.45768,556.70677 305.55538,556.62956 C 306.09515,556.20800 306.75857,556.00098 307.58120,556.00098 C 308.26991,556.00098 308.57327,556.21552 308.73998,556.37745 C 308.84451,556.47857 308.96750,556.64528 309.04129,556.92199 L 305.29370,556.92199 z M 317.59139,557.98512 C 317.59139,555.39084 316.71684,553.28167 314.99165,551.71636 C 313.29584,550.18726 311.02679,549.41247 308.24736,549.41247 C 306.18533,549.41247 304.27225,549.78688 302.55868,550.52479 C 300.83144,551.27567 299.33036,552.38731 298.09232,553.83168 C 297.05926,555.02053 296.25781,556.36446 295.71805,557.81499 C 295.17077,559.24433 294.89064,560.75635 294.89064,562.29775 C 294.89064,565.08538 295.82395,567.29430 297.66256,568.86303 C 299.45197,570.37914 301.94718,571.14506 305.08531,571.14506 C 306.59938,571.14506 308.10798,571.01319 309.56944,570.75288 C 311.04319,570.48026 312.53471,570.06827 314.00983,569.52646 C 314.45941,569.36111 314.79010,568.97371 314.88233,568.50501 L 315.77123,564.01610 C 315.78763,563.92728 315.79651,563.83778 315.79651,563.74964 C 315.79651,563.56038 315.74595,563.37795 315.67080,563.20646 C 316.31646,563.20578 316.87467,562.75415 317.00927,562.12284 L 317.20468,561.20251 C 317.20058,561.22437 317.51692,559.52241 317.51692,559.52241 C 317.52853,559.46024 317.52170,559.51900 317.52512,559.45546 L 317.59139,557.98512 z M 314.79898,559.15483 C 314.79898,559.15483 314.79283,559.18489 314.79283,559.18626 C 314.79283,559.18762 314.79146,559.22247 314.79146,559.22247 C 314.79215,559.20949 314.79215,559.19309 314.79215,559.19172 C 314.78053,559.25458 314.59742,560.23640 314.55438,560.46392 C 312.67887,560.46392 302.13302,560.46392 302.13302,560.46392 C 301.40946,560.46392 300.80821,561.11164 300.76175,561.83382 L 300.75082,562.00327 C 300.75150,561.98892 300.72964,562.40433 300.72964,562.40433 C 300.72964,564.00859 301.25642,565.25551 302.29426,566.10956 C 303.23304,566.89529 304.59338,567.29772 306.32745,567.29772 C 307.65909,567.29772 309.07272,567.09685 310.52598,566.70056 C 311.19145,566.52155 311.87811,566.29130 312.57502,566.03099 C 312.46365,566.59534 312.41446,566.84746 312.34818,567.18157 C 311.25295,567.54779 310.15702,567.85388 309.07887,568.05270 C 307.78344,568.28432 306.43813,568.40184 305.08463,568.40184 C 302.61402,568.40184 300.71461,567.85388 299.43899,566.77299 C 298.22555,565.73719 297.63386,564.27300 297.63386,562.29706 C 297.63386,561.09251 297.85113,559.90981 298.28431,558.78178 C 298.71202,557.62846 299.34470,556.57080 300.16733,555.62315 C 301.13958,554.48965 302.30793,553.62329 303.64640,553.04254 C 305.01152,552.45426 306.56043,552.15500 308.24599,552.15500 C 310.35585,552.15500 311.96010,552.67700 313.15031,553.75106 C 314.29133,554.78617 314.84749,556.17179 314.84749,557.98443 C 314.84749,557.98443 314.79624,559.10495 314.79146,559.18216 C 314.79419,559.18011 314.79419,559.18011 314.79898,559.15483 z M 312.23750,563.20714 C 311.40463,563.54603 310.58747,563.84461 309.80994,564.05300 C 308.58762,564.38642 307.41585,564.55450 306.32813,564.55450 C 305.27047,564.55450 304.48133,564.36182 304.04678,563.99834 C 303.94361,563.91293 303.70926,563.69908 303.57603,563.20714 L 312.23750,563.20714 L 312.23750,563.20714 z M 314.79215,559.19172 C 314.79215,559.19104 314.79283,559.18216 314.79283,559.18216 L 314.79215,559.18831 L 314.79215,559.19172 z " />
        <path
           style="fill:#323232"
           id="path1836"
           d="M 329.47504,550.48994 C 329.36094,550.55007 329.25572,550.62591 329.14366,550.69150 C 329.09242,550.56510 329.03093,550.44348 328.94347,550.33553 C 328.68248,550.01782 328.29234,549.83266 327.88035,549.83266 L 322.07483,549.83266 C 321.41892,549.83266 320.85524,550.29727 320.72748,550.94088 L 316.15248,574.35220 C 316.07391,574.75532 316.17981,575.16936 316.43944,575.48707 C 316.70044,575.80341 317.08852,575.98652 317.49915,575.98652 L 323.28896,575.98652 C 323.94419,575.98652 324.50718,575.52328 324.63426,574.88172 L 327.34059,561.21549 C 327.62960,559.70962 328.16116,558.57202 328.92298,557.82592 C 329.63628,557.13448 330.52655,556.79559 331.64092,556.79559 C 332.08776,556.79559 332.50454,556.84205 332.87827,556.93429 C 333.23424,557.02106 333.56356,557.14883 333.85531,557.31349 C 334.23929,557.52939 334.70390,557.54852 335.10291,557.36405 C 335.50397,557.17889 335.79094,556.81267 335.87497,556.38086 L 336.89027,551.16908 C 336.96543,550.78305 336.87729,550.38267 336.63679,550.07043 C 336.39629,549.75819 336.03964,549.56483 335.64677,549.53955 L 334.69638,549.47601 C 334.70526,549.47669 334.82483,549.48967 334.83303,549.49036 L 333.93115,549.41383 C 332.30981,549.41247 330.81009,549.77459 329.47504,550.48994 z M 326.20299,552.57588 C 326.05609,553.29875 325.90783,554.02777 325.90783,554.02777 C 325.89006,554.12001 325.88050,554.21088 325.88050,554.30175 C 325.88050,554.84425 326.20504,555.34848 326.72225,555.56644 C 326.89238,555.63749 327.07002,555.67029 327.24562,555.67097 C 327.16841,555.73861 327.08164,555.78849 327.00853,555.86091 C 325.83472,557.00945 325.04147,558.63283 324.64656,560.69008 C 324.64656,560.69008 322.53124,571.37600 322.16160,573.24330 C 321.22146,573.24330 320.39200,573.24330 319.16353,573.24330 C 319.68826,570.55815 322.83801,554.43977 323.20287,552.57520 C 324.14369,552.57588 324.96973,552.57588 326.20299,552.57588 z M 330.75748,552.91477 C 331.70856,552.40644 332.73479,552.16320 333.90177,552.15842 C 333.73301,553.02682 333.66605,553.37049 333.49114,554.26281 C 332.91448,554.12479 332.29205,554.05305 331.64023,554.05305 C 330.55114,554.05305 329.57411,554.29355 328.68862,554.71785 C 329.27143,553.95945 329.93623,553.34316 330.75748,552.91477 z " />
        <path
           style="fill:#323232"
           id="path1838"
           d="M 340.84420,531.47460 C 340.51761,531.55113 340.00654,531.81349 339.71412,532.05195 C 339.44150,532.30201 339.26318,532.65525 339.26318,533.05495 L 339.25088,540.28571 L 339.26318,543.73335 L 339.26318,547.03136 C 339.26318,547.42491 339.42306,547.78157 339.68200,548.03915 C 339.75579,548.12114 339.88014,548.22499 339.97238,548.28717 C 340.25251,548.45456 340.49028,548.54611 340.84420,548.55910 C 341.06899,548.56730 341.27464,548.49624 341.46322,548.40263 C 341.75770,548.23319 343.95296,546.57769 344.16886,546.41440 C 345.06733,548.07878 346.29990,550.37311 346.48096,550.73181 C 346.51717,550.80560 346.55953,550.87461 346.60941,550.94088 C 347.16488,551.68288 348.04217,551.90357 348.84498,551.50251 C 348.84498,551.50114 351.88267,550.03627 351.88267,550.03627 C 351.93938,550.00962 351.97696,549.98707 352.02821,549.95155 C 352.44772,549.67278 352.76611,549.18563 352.76611,548.59326 C 352.76611,548.32269 352.70052,548.02958 352.54884,547.72417 C 352.53312,547.69479 350.46836,543.84814 350.27090,543.48055 C 350.37134,543.45390 352.23113,542.98383 352.53927,542.90594 C 352.55225,542.90594 353.51563,542.61625 353.88868,542.06965 C 354.06905,541.74853 354.21048,541.24703 353.91396,540.61640 C 353.77867,540.32738 353.56072,540.05135 353.32637,539.84433 L 342.22845,531.84151 C 342.19497,531.81759 342.10752,531.76772 341.97497,531.69939 C 341.64974,531.50398 341.14824,531.40218 340.84420,531.47460 z M 342.00640,543.73335 L 341.99410,540.27204 C 341.99410,540.27204 341.99956,536.97813 342.00366,535.06163 C 343.72885,536.30582 347.71148,539.17817 349.88965,540.74826 C 349.73866,540.78652 347.87614,541.25728 347.87614,541.25728 C 347.46551,541.36045 347.13550,541.64194 346.96537,542.02866 C 346.88953,542.20084 346.85196,542.38395 346.85196,542.56569 C 346.85196,542.79321 346.90935,543.02005 347.02003,543.22638 C 347.02003,543.22638 349.10529,547.10925 349.62592,548.08083 C 349.10802,548.33089 348.93448,548.41425 348.47466,548.63630 C 347.72036,547.21926 346.29580,544.57716 345.81958,543.70534 C 345.62895,543.35483 345.30031,543.10272 344.91018,543.01800 C 344.52141,542.93327 344.11830,543.01936 343.80059,543.25918 C 343.80059,543.25918 342.04398,544.58262 342.00571,544.61132 C 342.00640,544.25672 342.00640,543.73335 342.00640,543.73335 z " />
        <path
           style="fill:#ffffff"
           id="path1842"
           d="M 169.51897,533.18340 L 175.32517,533.18340 L 170.67297,557.80132 L 178.46125,551.23946 L 185.26567,551.23946 L 174.76901,559.59210 L 182.39673,569.29757 L 175.80070,569.29757 L 169.94736,561.51065 L 168.43193,569.29757 L 162.64349,569.29757 L 169.51897,533.18340 z " />
        <path
           style="fill:#ffffff"
           id="path1844"
           d="M 202.73551,556.13489 C 202.33718,555.90942 201.89580,555.73793 201.41275,555.61836 C 200.92902,555.49948 200.40838,555.44072 199.84949,555.44072 C 198.37574,555.44072 197.15000,555.91557 196.17228,556.86187 C 195.20412,557.81089 194.54821,559.17738 194.20522,560.96406 L 191.50026,574.62482 L 185.71183,574.62482 L 190.28614,551.22101 L 196.09097,551.22101 L 195.46307,554.31678 C 196.22557,553.18260 197.18279,552.31625 198.33269,551.71568 C 199.47166,551.10623 200.73976,550.80150 202.13836,550.80150 C 202.34196,550.80150 202.57290,550.82200 202.83185,550.86299 C 203.08943,550.87597 203.39689,550.89715 203.75081,550.92312 L 202.73551,556.13489 z " />
        <path
           style="fill:#ffffff"
           id="path1846"
           d="M 206.26651,562.27588 L 208.37910,551.22921 L 214.16890,551.22921 L 212.34669,560.65455 C 212.21687,561.26810 212.12054,561.79146 212.05631,562.22259 C 211.99140,562.65372 211.95861,562.99397 211.95861,563.24131 C 211.95861,563.91977 212.14650,564.44996 212.52365,564.82506 C 212.89943,565.20290 213.43715,565.39079 214.13679,565.39079 C 215.32836,565.39079 216.35596,564.92687 217.21616,564.00107 C 218.07500,563.07391 218.66669,561.78668 218.98986,560.13597 L 220.73076,551.22921 L 226.52057,551.22921 L 223.02100,569.32217 L 217.19976,569.32217 L 217.73133,566.67802 C 216.74131,567.71996 215.70483,568.49818 214.61916,569.01266 C 213.53280,569.52851 212.38837,569.78541 211.18449,569.78541 C 209.53924,569.78541 208.26500,569.34813 207.36312,568.47836 C 206.45987,567.60654 206.00824,566.37397 206.00824,564.77929 C 206.00824,564.40282 206.02942,564.00380 206.07315,563.58429 C 206.11620,563.16478 206.18110,562.72819 206.26651,562.27588 z " />
        <path
           style="fill:#ffffff"
           id="path1848"
           d="M 246.53002,551.80382 L 245.67528,556.29136 C 244.54588,555.75433 243.42400,555.34575 242.30690,555.06562 C 241.18843,554.78822 240.12940,554.64747 239.12982,554.64747 C 237.99017,554.64747 237.10878,554.79369 236.48498,555.08407 C 235.87280,555.38469 235.56670,555.81035 235.56670,556.35900 C 235.56670,556.68081 235.73820,556.93975 236.08255,557.13311 C 236.42554,557.32647 237.10332,557.53076 238.11383,557.74666 L 239.16261,557.93866 C 241.49452,558.43537 243.12747,559.07489 244.06215,559.86062 C 244.99751,560.63405 245.46484,561.71631 245.46484,563.10397 C 245.46484,565.20221 244.64154,566.84063 242.99834,568.01786 C 241.35514,569.19713 239.05398,569.78472 236.09827,569.78472 C 234.86091,569.78472 233.59828,569.68839 232.30900,569.49434 C 231.01904,569.29962 229.70175,569.00993 228.35849,568.62184 L 229.22894,564.08579 C 230.27020,564.69798 231.38867,565.16122 232.58298,565.47209 C 233.76567,565.78297 234.97980,565.93943 236.22740,565.93943 C 237.44152,565.93943 238.35502,565.79458 238.96857,565.50352 C 239.58076,565.21314 239.88822,564.78817 239.88822,564.22859 C 239.88822,563.84188 239.71535,563.53988 239.37168,563.32534 C 239.02733,563.10944 238.31812,562.88875 237.24270,562.66328 L 236.19460,562.46992 C 234.13053,562.03880 232.65745,561.40475 231.77607,560.56573 C 230.89469,559.72602 230.45400,558.56382 230.45400,557.07845 C 230.45400,555.06767 231.21718,553.51807 232.74423,552.43035 C 234.25966,551.34399 236.43169,550.80082 239.25827,550.80082 C 240.49493,550.80082 241.70837,550.88144 242.90200,551.04337 C 244.10587,551.21623 245.31453,551.46903 246.53002,551.80382 z " />
        <path
           style="fill:#ffffff"
           id="path1850"
           d="M 262.66207,561.17791 L 262.53362,561.83997 C 262.26442,563.14019 261.73218,564.14660 260.93688,564.85512 C 260.14159,565.57595 259.15225,565.93465 257.96956,565.93465 C 257.20706,565.93465 256.61264,565.74812 256.18493,565.37029 C 255.74492,564.99382 255.52491,564.47797 255.52491,563.82206 C 255.52491,562.95366 255.89523,562.29706 256.63382,561.85500 C 257.36215,561.40543 258.44851,561.17791 259.88947,561.17791 L 262.66207,561.17791 L 262.66207,561.17791 z M 269.11188,557.59703 C 269.16586,557.15634 269.19182,556.75391 269.19182,556.38701 C 269.19182,554.50468 268.54206,553.09856 267.24185,552.17413 C 265.94095,551.25996 263.95067,550.80218 261.27509,550.80218 C 259.92090,550.80218 258.60976,550.88281 257.34029,551.04473 C 256.08722,551.19436 254.85875,551.42257 253.66103,551.72251 L 252.79399,556.13011 C 253.83184,555.63613 254.90726,555.26513 256.02368,555.01848 C 257.13600,554.77046 258.29068,554.64679 259.48567,554.64679 C 260.80707,554.64679 261.80118,554.82512 262.46735,555.18177 C 263.14444,555.54936 263.48265,556.08980 263.48265,556.80311 C 263.48265,556.85708 263.47718,556.91721 263.46830,556.98280 C 263.46830,557.04702 263.45190,557.15498 263.41979,557.30529 L 263.35488,557.76033 L 259.95301,557.76033 C 256.60102,557.76033 254.04023,558.36773 252.26516,559.58254 C 250.49078,560.80623 249.60325,562.56899 249.60325,564.86811 C 249.60325,566.37466 250.10338,567.56623 251.10433,568.44693 C 252.11417,569.33993 253.46835,569.78472 255.16894,569.78472 C 256.40356,569.78472 257.54458,569.53261 258.59882,569.02769 C 259.65170,568.51048 260.65197,567.71381 261.59758,566.63839 L 261.11453,569.31739 L 266.88725,569.31739 L 268.90213,559.00178 C 268.99915,558.49687 269.06884,558.02816 269.11188,557.59703 z " />
        <path
           style="fill:#ffffff"
           id="path1852"
           d="M 279.37693,564.72053 C 278.85971,564.14114 278.60350,563.30416 278.60350,562.20756 C 278.60350,560.10590 279.07698,558.37866 280.02259,557.02516 C 280.96752,555.68464 282.17139,555.01369 283.63490,555.01369 C 284.56889,555.01369 285.29996,555.29382 285.82742,555.85135 C 286.34191,556.40956 286.60086,557.18777 286.60086,558.18531 C 286.60086,560.38603 286.13830,562.16725 285.21387,563.52895 C 284.27920,564.89270 283.06986,565.57390 281.58722,565.57390 C 280.62043,565.57390 279.88321,565.28967 279.37693,564.72053 z M 285.45642,551.56263 C 284.58666,551.05567 283.53173,550.80218 282.29642,550.80218 C 280.88826,550.80218 279.56482,551.15132 278.32815,551.85096 C 277.10309,552.55060 276.00239,553.57752 275.02399,554.93444 C 274.24919,556.01123 273.65135,557.20485 273.23389,558.51805 C 272.82599,559.83124 272.62170,561.18201 272.62170,562.56968 C 272.62170,564.79773 273.21203,566.55777 274.39540,567.84910 C 275.57741,569.14111 277.18508,569.78609 279.21637,569.78609 C 280.36763,569.78609 281.42597,569.53261 282.39413,569.02564 C 283.36092,568.52824 284.28535,567.75139 285.16810,566.69237 L 284.63585,569.30372 L 290.45640,569.30372 L 297.34485,533.18408 L 291.52294,533.18408 L 287.65032,553.89591 C 287.04701,552.83756 286.31663,552.06072 285.45642,551.56263 z " />
        <path
           style="fill:#ffffff"
           id="path1854"
           d="M 302.89688,558.30966 C 303.31503,557.10578 303.92312,556.19024 304.71841,555.56712 C 305.50277,554.95425 306.46068,554.64679 307.58940,554.64679 C 308.47146,554.64679 309.17315,554.89959 309.69925,555.40451 C 310.22603,555.91011 310.48771,556.59267 310.48771,557.45355 C 310.48771,557.59362 310.46722,557.73915 310.42759,557.88946 C 310.41529,558.02884 310.39411,558.17028 310.36131,558.30897 L 302.89688,558.30897 L 302.89688,558.30966 z M 316.16546,559.35434 C 316.20577,558.88290 316.22696,558.43059 316.22696,558.00083 C 316.22696,555.79942 315.50955,554.04895 314.07747,552.75011 C 312.63788,551.45126 310.69679,550.80150 308.25556,550.80150 C 306.37391,550.80150 304.65897,551.13424 303.11074,551.80108 C 301.57413,552.46998 300.25137,553.44907 299.14451,554.73971 C 298.20984,555.81650 297.49926,557.00535 297.01690,558.30761 C 296.52154,559.59894 296.27558,560.93468 296.27558,562.31141 C 296.27558,564.69046 297.03876,566.52975 298.56444,567.83270 C 300.10174,569.13428 302.27855,569.78472 305.09556,569.78472 C 306.53515,569.78472 307.95152,569.66106 309.33713,569.41304 C 310.73368,569.15546 312.13706,568.76737 313.54454,568.25084 L 314.43276,563.76330 C 312.94876,564.48344 311.52966,565.02594 310.17616,565.39147 C 308.83085,565.75769 307.55114,565.94011 306.33838,565.94011 C 304.92885,565.94011 303.87529,565.64769 303.17701,565.06351 C 302.46781,564.48002 302.11252,563.59727 302.11252,562.41868 C 302.11252,562.35377 302.11799,562.25607 302.12960,562.12489 C 302.13848,562.00805 302.14395,561.91513 302.14395,561.85022 L 315.67558,561.85022 L 315.87167,560.93194 C 316.00149,560.36349 316.09987,559.83739 316.16546,559.35434 z " />
        <path
           style="fill:#ffffff"
           id="path1856"
           d="M 334.52830,556.13489 C 334.12997,555.90942 333.68860,555.73793 333.20554,555.61836 C 332.72112,555.49948 332.19981,555.44072 331.64160,555.44072 C 330.16921,555.44072 328.94279,555.91557 327.96439,556.86187 C 326.99691,557.81089 326.34032,559.17738 325.99665,560.96406 L 323.29237,574.62482 L 317.50394,574.62482 L 322.07825,551.22101 L 327.88308,551.22101 L 327.25518,554.31678 C 328.01768,553.18260 328.97422,552.31625 330.12412,551.71568 C 331.26240,551.10623 332.53187,550.80150 333.92910,550.80150 C 334.13407,550.80150 334.36501,550.82200 334.62259,550.86299 C 334.88086,550.87597 335.18832,550.89715 335.54292,550.92312 L 334.52830,556.13489 z " />
        <path
           style="fill:#ffffff"
           id="path1858"
           d="M 340.89613,532.83972 C 340.74786,532.90737 340.64059,533.07476 340.63445,533.39383 C 340.62010,534.15975 340.61668,534.92567 340.61395,535.69158 C 340.60848,537.05465 340.61395,538.41772 340.62078,539.78079 C 340.62693,541.10560 340.63513,542.43041 340.63513,543.75521 C 340.63513,544.59902 340.63513,545.44146 340.63513,546.28390 C 340.63513,546.48750 340.63581,546.68291 340.63513,546.89403 C 340.63445,547.10516 340.84420,547.22882 341.00135,547.10311 C 341.15849,546.97739 341.33750,546.85372 341.50626,546.72800 C 341.99410,546.36315 342.48193,545.99215 342.96977,545.62115 C 343.51841,545.20437 344.06637,544.78896 344.61434,544.38380 C 344.90198,544.90990 345.51622,546.04681 346.12499,547.17621 C 346.84922,548.51947 347.56253,549.85248 347.70533,550.13670 C 347.86247,550.34783 348.01962,550.39975 348.22937,550.29385 C 349.22486,549.82310 350.21898,549.35302 351.26639,548.82829 C 351.42422,548.72444 351.42422,548.56661 351.31832,548.35822 C 350.69315,547.18304 350.16295,546.19849 349.68195,545.30823 C 349.15790,544.33665 348.69330,543.47713 348.22869,542.60395 C 348.89759,542.42426 349.57741,542.25755 350.25861,542.09083 C 350.72663,541.97605 351.19397,541.86127 351.65857,541.74238 C 351.89566,541.68226 352.13411,541.63033 352.36573,541.55722 C 352.62536,541.47523 352.77431,541.16231 352.46480,540.94435 C 352.21746,540.77081 352.03299,540.62938 351.78770,540.45310 C 350.21420,539.32370 348.64069,538.19362 347.07196,537.06422 C 345.73280,536.10016 344.39775,535.13679 343.06816,534.17273 C 342.51815,533.77440 341.96882,533.37675 341.42222,532.97637 C 341.22477,532.83289 341.04302,532.77208 340.89613,532.83972 z " />
      </g>
    </g>
  </g>
</svg>
